G04 #@! TF.GenerationSoftware,KiCad,Pcbnew,8.0.3*
G04 #@! TF.CreationDate,2024-06-14T21:31:16-03:00*
G04 #@! TF.ProjectId,corne-top-plate,636f726e-652d-4746-9f70-2d706c617465,2.1*
G04 #@! TF.SameCoordinates,Original*
G04 #@! TF.FileFunction,Legend,Top*
G04 #@! TF.FilePolarity,Positive*
%FSLAX46Y46*%
G04 Gerber Fmt 4.6, Leading zero omitted, Abs format (unit mm)*
G04 Created by KiCad (PCBNEW 8.0.3) date 2024-06-14 21:31:16*
%MOMM*%
%LPD*%
G01*
G04 APERTURE LIST*
%ADD10C,0.500000*%
%ADD11C,4.600000*%
G04 APERTURE END LIST*
D10*
X105363947Y-123589000D02*
X105078232Y-123731857D01*
X105078232Y-123731857D02*
X104506804Y-123731857D01*
X104506804Y-123731857D02*
X104221089Y-123589000D01*
X104221089Y-123589000D02*
X104078232Y-123446142D01*
X104078232Y-123446142D02*
X103935375Y-123160428D01*
X103935375Y-123160428D02*
X103935375Y-122303285D01*
X103935375Y-122303285D02*
X104078232Y-122017571D01*
X104078232Y-122017571D02*
X104221089Y-121874714D01*
X104221089Y-121874714D02*
X104506804Y-121731857D01*
X104506804Y-121731857D02*
X105078232Y-121731857D01*
X105078232Y-121731857D02*
X105363947Y-121874714D01*
X107078233Y-123731857D02*
X106792518Y-123589000D01*
X106792518Y-123589000D02*
X106649661Y-123446142D01*
X106649661Y-123446142D02*
X106506804Y-123160428D01*
X106506804Y-123160428D02*
X106506804Y-122303285D01*
X106506804Y-122303285D02*
X106649661Y-122017571D01*
X106649661Y-122017571D02*
X106792518Y-121874714D01*
X106792518Y-121874714D02*
X107078233Y-121731857D01*
X107078233Y-121731857D02*
X107506804Y-121731857D01*
X107506804Y-121731857D02*
X107792518Y-121874714D01*
X107792518Y-121874714D02*
X107935376Y-122017571D01*
X107935376Y-122017571D02*
X108078233Y-122303285D01*
X108078233Y-122303285D02*
X108078233Y-123160428D01*
X108078233Y-123160428D02*
X107935376Y-123446142D01*
X107935376Y-123446142D02*
X107792518Y-123589000D01*
X107792518Y-123589000D02*
X107506804Y-123731857D01*
X107506804Y-123731857D02*
X107078233Y-123731857D01*
X109363947Y-123731857D02*
X109363947Y-121731857D01*
X109363947Y-122303285D02*
X109506804Y-122017571D01*
X109506804Y-122017571D02*
X109649662Y-121874714D01*
X109649662Y-121874714D02*
X109935376Y-121731857D01*
X109935376Y-121731857D02*
X110221090Y-121731857D01*
X110792519Y-121731857D02*
X111935376Y-121731857D01*
X111221090Y-120731857D02*
X111221090Y-123303285D01*
X111221090Y-123303285D02*
X111363947Y-123589000D01*
X111363947Y-123589000D02*
X111649662Y-123731857D01*
X111649662Y-123731857D02*
X111935376Y-123731857D01*
%LPC*%
D11*
X79500000Y-86750000D03*
X79500000Y-105500000D03*
X155500000Y-83000000D03*
X122750000Y-122750000D03*
X169250000Y-130500000D03*
%LPD*%
M02*
