G04 #@! TF.GenerationSoftware,KiCad,Pcbnew,8.0.3*
G04 #@! TF.CreationDate,2024-06-14T21:31:16-03:00*
G04 #@! TF.ProjectId,corne-top-plate,636f726e-652d-4746-9f70-2d706c617465,2.1*
G04 #@! TF.SameCoordinates,Original*
G04 #@! TF.FileFunction,Legend,Bot*
G04 #@! TF.FilePolarity,Positive*
%FSLAX46Y46*%
G04 Gerber Fmt 4.6, Leading zero omitted, Abs format (unit mm)*
G04 Created by KiCad (PCBNEW 8.0.3) date 2024-06-14 21:31:16*
%MOMM*%
%LPD*%
G01*
G04 APERTURE LIST*
%ADD10C,0.500000*%
%ADD11C,4.600000*%
G04 APERTURE END LIST*
D10*
X110681053Y-123589000D02*
X110966767Y-123731857D01*
X110966767Y-123731857D02*
X111538195Y-123731857D01*
X111538195Y-123731857D02*
X111823910Y-123589000D01*
X111823910Y-123589000D02*
X111966767Y-123446142D01*
X111966767Y-123446142D02*
X112109624Y-123160428D01*
X112109624Y-123160428D02*
X112109624Y-122303285D01*
X112109624Y-122303285D02*
X111966767Y-122017571D01*
X111966767Y-122017571D02*
X111823910Y-121874714D01*
X111823910Y-121874714D02*
X111538195Y-121731857D01*
X111538195Y-121731857D02*
X110966767Y-121731857D01*
X110966767Y-121731857D02*
X110681053Y-121874714D01*
X108966766Y-123731857D02*
X109252481Y-123589000D01*
X109252481Y-123589000D02*
X109395338Y-123446142D01*
X109395338Y-123446142D02*
X109538195Y-123160428D01*
X109538195Y-123160428D02*
X109538195Y-122303285D01*
X109538195Y-122303285D02*
X109395338Y-122017571D01*
X109395338Y-122017571D02*
X109252481Y-121874714D01*
X109252481Y-121874714D02*
X108966766Y-121731857D01*
X108966766Y-121731857D02*
X108538195Y-121731857D01*
X108538195Y-121731857D02*
X108252481Y-121874714D01*
X108252481Y-121874714D02*
X108109624Y-122017571D01*
X108109624Y-122017571D02*
X107966766Y-122303285D01*
X107966766Y-122303285D02*
X107966766Y-123160428D01*
X107966766Y-123160428D02*
X108109624Y-123446142D01*
X108109624Y-123446142D02*
X108252481Y-123589000D01*
X108252481Y-123589000D02*
X108538195Y-123731857D01*
X108538195Y-123731857D02*
X108966766Y-123731857D01*
X106681052Y-123731857D02*
X106681052Y-121731857D01*
X106681052Y-122303285D02*
X106538195Y-122017571D01*
X106538195Y-122017571D02*
X106395338Y-121874714D01*
X106395338Y-121874714D02*
X106109623Y-121731857D01*
X106109623Y-121731857D02*
X105823909Y-121731857D01*
X105252480Y-121731857D02*
X104109623Y-121731857D01*
X104823909Y-120731857D02*
X104823909Y-123303285D01*
X104823909Y-123303285D02*
X104681052Y-123589000D01*
X104681052Y-123589000D02*
X104395337Y-123731857D01*
X104395337Y-123731857D02*
X104109623Y-123731857D01*
%LPC*%
D11*
X79500000Y-86750000D03*
X79500000Y-105500000D03*
X155500000Y-83000000D03*
X122750000Y-122750000D03*
X169250000Y-130500000D03*
%LPD*%
M02*
