G04 #@! TF.GenerationSoftware,KiCad,Pcbnew,8.0.3*
G04 #@! TF.CreationDate,2024-06-14T21:31:16-03:00*
G04 #@! TF.ProjectId,corne-top-plate,636f726e-652d-4746-9f70-2d706c617465,2.1*
G04 #@! TF.SameCoordinates,Original*
G04 #@! TF.FileFunction,Copper,L1,Top*
G04 #@! TF.FilePolarity,Positive*
%FSLAX46Y46*%
G04 Gerber Fmt 4.6, Leading zero omitted, Abs format (unit mm)*
G04 Created by KiCad (PCBNEW 8.0.3) date 2024-06-14 21:31:16*
%MOMM*%
%LPD*%
G01*
G04 APERTURE LIST*
G04 #@! TA.AperFunction,ComponentPad*
%ADD10C,4.200000*%
G04 #@! TD*
G04 APERTURE END LIST*
D10*
X79500000Y-86750000D03*
X79500000Y-105500000D03*
X155500000Y-83000000D03*
X122750000Y-122750000D03*
X169250000Y-130500000D03*
G04 #@! TA.AperFunction,NonConductor*
G36*
X135508188Y-61076578D02*
G01*
X135520804Y-61078238D01*
X135593421Y-61087798D01*
X135625193Y-61096312D01*
X135696925Y-61126025D01*
X135725410Y-61142470D01*
X135787006Y-61189734D01*
X135810265Y-61212993D01*
X135857529Y-61274589D01*
X135873974Y-61303074D01*
X135903687Y-61374806D01*
X135912201Y-61406579D01*
X135923422Y-61491811D01*
X135924500Y-61508257D01*
X135924500Y-62725469D01*
X135924500Y-62750000D01*
X135924500Y-62814843D01*
X135934777Y-62859869D01*
X135953358Y-62941278D01*
X135953361Y-62941286D01*
X136009624Y-63058119D01*
X136009625Y-63058120D01*
X136009626Y-63058122D01*
X136090485Y-63159515D01*
X136191878Y-63240374D01*
X136191879Y-63240374D01*
X136191880Y-63240375D01*
X136308713Y-63296638D01*
X136308716Y-63296639D01*
X136308722Y-63296642D01*
X136435157Y-63325500D01*
X136484982Y-63325500D01*
X154475469Y-63325500D01*
X154491743Y-63325500D01*
X154508188Y-63326578D01*
X154520804Y-63328238D01*
X154593421Y-63337798D01*
X154625193Y-63346312D01*
X154696925Y-63376025D01*
X154725410Y-63392470D01*
X154787006Y-63439734D01*
X154810265Y-63462993D01*
X154857529Y-63524589D01*
X154873974Y-63553074D01*
X154903687Y-63624806D01*
X154912201Y-63656579D01*
X154923422Y-63741811D01*
X154924500Y-63758257D01*
X154924500Y-65225469D01*
X154924500Y-65250000D01*
X154924500Y-65314843D01*
X154934803Y-65359982D01*
X154953358Y-65441278D01*
X154953361Y-65441286D01*
X155009624Y-65558119D01*
X155009625Y-65558120D01*
X155009626Y-65558122D01*
X155090485Y-65659515D01*
X155191878Y-65740374D01*
X155191879Y-65740374D01*
X155191880Y-65740375D01*
X155308713Y-65796638D01*
X155308716Y-65796639D01*
X155308722Y-65796642D01*
X155435157Y-65825500D01*
X155484982Y-65825500D01*
X173475469Y-65825500D01*
X173491743Y-65825500D01*
X173508188Y-65826578D01*
X173520804Y-65828238D01*
X173593421Y-65837798D01*
X173625193Y-65846312D01*
X173696925Y-65876025D01*
X173725410Y-65892470D01*
X173787006Y-65939734D01*
X173810265Y-65962993D01*
X173857529Y-66024589D01*
X173873974Y-66053074D01*
X173903687Y-66124806D01*
X173912201Y-66156580D01*
X173923421Y-66241809D01*
X173924499Y-66258261D01*
X173921784Y-116767484D01*
X173920714Y-116774948D01*
X173921727Y-116809441D01*
X173921781Y-116813139D01*
X173921781Y-116831249D01*
X173922568Y-116838219D01*
X173924267Y-116897498D01*
X173960214Y-117063907D01*
X173960216Y-117063912D01*
X174025900Y-117220976D01*
X174025901Y-117220979D01*
X174025902Y-117220980D01*
X174119125Y-117363439D01*
X174119127Y-117363441D01*
X174119129Y-117363444D01*
X174236758Y-117486512D01*
X174285502Y-117521598D01*
X174294963Y-117529122D01*
X174299245Y-117532877D01*
X174299247Y-117532878D01*
X174299248Y-117532879D01*
X174303424Y-117535289D01*
X174314107Y-117542198D01*
X174325747Y-117550589D01*
X174325747Y-117550588D01*
X174327253Y-117551674D01*
X174346829Y-117560345D01*
X182385118Y-122200500D01*
X193036920Y-128349323D01*
X193221556Y-128455905D01*
X193236593Y-128466098D01*
X193335293Y-128543947D01*
X193382710Y-128581347D01*
X193397258Y-128594807D01*
X193523692Y-128731758D01*
X193535950Y-128747334D01*
X193639343Y-128902417D01*
X193649007Y-128919723D01*
X193726799Y-129089100D01*
X193733629Y-129107706D01*
X193783899Y-129287191D01*
X193787727Y-129306638D01*
X193809228Y-129491779D01*
X193809959Y-129511587D01*
X193802158Y-129697819D01*
X193799773Y-129717495D01*
X193762867Y-129900191D01*
X193757426Y-129919251D01*
X193692325Y-130093899D01*
X193683963Y-130111869D01*
X193598749Y-130262697D01*
X193598155Y-130263565D01*
X193598228Y-130263607D01*
X193588113Y-130281172D01*
X193583416Y-130288701D01*
X193570482Y-130307896D01*
X193564231Y-130322654D01*
X181238353Y-151732468D01*
X181228087Y-151747632D01*
X181112906Y-151893665D01*
X181099445Y-151908214D01*
X180962498Y-152034644D01*
X180946921Y-152046903D01*
X180791837Y-152150294D01*
X180774531Y-152159957D01*
X180605163Y-152237743D01*
X180586556Y-152244574D01*
X180407068Y-152294841D01*
X180387620Y-152298668D01*
X180202480Y-152320164D01*
X180182672Y-152320894D01*
X179996453Y-152313089D01*
X179976775Y-152310704D01*
X179794084Y-152273792D01*
X179775025Y-152268351D01*
X179600375Y-152203242D01*
X179582404Y-152194878D01*
X179422979Y-152104797D01*
X179421920Y-152104192D01*
X179413053Y-152099068D01*
X179405682Y-152094462D01*
X179398414Y-152089564D01*
X179386162Y-152081306D01*
X179371678Y-152075157D01*
X165147936Y-143854950D01*
X165137211Y-143845487D01*
X165136705Y-143846216D01*
X165120321Y-143834823D01*
X165120320Y-143834822D01*
X165120319Y-143834822D01*
X165119167Y-143834474D01*
X165110961Y-143830919D01*
X165098877Y-143826811D01*
X165081150Y-143822987D01*
X164987831Y-143794778D01*
X164766003Y-143743259D01*
X164765989Y-143743256D01*
X164691077Y-143730938D01*
X164541256Y-143706304D01*
X164541250Y-143706303D01*
X164541241Y-143706302D01*
X164431118Y-143695517D01*
X164427146Y-143695064D01*
X127799222Y-138930266D01*
X127776547Y-138925154D01*
X127774534Y-138924500D01*
X127774531Y-138924500D01*
X127763046Y-138924500D01*
X127746792Y-138923447D01*
X127740827Y-138922671D01*
X127729658Y-138922495D01*
X127679537Y-138917559D01*
X127655312Y-138912741D01*
X127599426Y-138895789D01*
X127576604Y-138886336D01*
X127525105Y-138858809D01*
X127504568Y-138845087D01*
X127465045Y-138812651D01*
X127443176Y-138789495D01*
X126711841Y-137786641D01*
X126640428Y-137688715D01*
X148841971Y-137688715D01*
X148845890Y-137718487D01*
X148845891Y-137718488D01*
X148845891Y-137718489D01*
X148845892Y-137718491D01*
X148860910Y-137744503D01*
X148884739Y-137762787D01*
X148913751Y-137770561D01*
X148973761Y-137786641D01*
X148973769Y-137786641D01*
X162366038Y-141375090D01*
X162391674Y-141381959D01*
X162391677Y-141381960D01*
X162407699Y-141386253D01*
X162407700Y-141386254D01*
X162432749Y-141392966D01*
X162440621Y-141395355D01*
X162449262Y-141398288D01*
X162455311Y-141395783D01*
X162454739Y-141394098D01*
X162466486Y-141390110D01*
X162466489Y-141390108D01*
X162466491Y-141390108D01*
X162492504Y-141375090D01*
X162510788Y-141351261D01*
X162518562Y-141322249D01*
X162518561Y-141322247D01*
X162522713Y-141306754D01*
X162522715Y-141306741D01*
X163126815Y-139052208D01*
X170111007Y-139052208D01*
X170111008Y-139052212D01*
X170118782Y-139081225D01*
X170137066Y-139105054D01*
X182261421Y-146105053D01*
X182261422Y-146105054D01*
X182287434Y-146120072D01*
X182287436Y-146120072D01*
X182287437Y-146120073D01*
X182317208Y-146123992D01*
X182317209Y-146123991D01*
X182317212Y-146123992D01*
X182346225Y-146116218D01*
X182370054Y-146097934D01*
X189385072Y-133947566D01*
X189388992Y-133917788D01*
X189381218Y-133888775D01*
X189362934Y-133864946D01*
X189362933Y-133864945D01*
X189349928Y-133857437D01*
X189336922Y-133849928D01*
X177212566Y-126849928D01*
X177212565Y-126849927D01*
X177212564Y-126849927D01*
X177212562Y-126849926D01*
X177182791Y-126846007D01*
X177182787Y-126846008D01*
X177153777Y-126853781D01*
X177153774Y-126853782D01*
X177129946Y-126872065D01*
X177129944Y-126872068D01*
X170121653Y-139010783D01*
X170121654Y-139010784D01*
X170114927Y-139022435D01*
X170114926Y-139022437D01*
X170111007Y-139052208D01*
X163126815Y-139052208D01*
X165418374Y-130499998D01*
X166636732Y-130499998D01*
X166636732Y-130500001D01*
X166655785Y-130814992D01*
X166655786Y-130814995D01*
X166712668Y-131125395D01*
X166806553Y-131426682D01*
X166936060Y-131714435D01*
X166936066Y-131714446D01*
X167099319Y-131984499D01*
X167099322Y-131984504D01*
X167293935Y-132232911D01*
X167293947Y-132232924D01*
X167517075Y-132456052D01*
X167517088Y-132456064D01*
X167765495Y-132650677D01*
X168035554Y-132813934D01*
X168035558Y-132813936D01*
X168035564Y-132813939D01*
X168323317Y-132943446D01*
X168323318Y-132943446D01*
X168323322Y-132943448D01*
X168624604Y-133037331D01*
X168935005Y-133094214D01*
X169145001Y-133106916D01*
X169249999Y-133113268D01*
X169250000Y-133113268D01*
X169250001Y-133113268D01*
X169328748Y-133108504D01*
X169564995Y-133094214D01*
X169875396Y-133037331D01*
X170176678Y-132943448D01*
X170464446Y-132813934D01*
X170734505Y-132650677D01*
X170982917Y-132456059D01*
X171206059Y-132232917D01*
X171400677Y-131984505D01*
X171563934Y-131714446D01*
X171693448Y-131426678D01*
X171787331Y-131125396D01*
X171844214Y-130814995D01*
X171863268Y-130500000D01*
X171844214Y-130185005D01*
X171787331Y-129874604D01*
X171693448Y-129573322D01*
X171693446Y-129573317D01*
X171563939Y-129285564D01*
X171563933Y-129285553D01*
X171400680Y-129015500D01*
X171400677Y-129015495D01*
X171206064Y-128767088D01*
X171206052Y-128767075D01*
X170982924Y-128543947D01*
X170982911Y-128543935D01*
X170734504Y-128349322D01*
X170734499Y-128349319D01*
X170464446Y-128186066D01*
X170464435Y-128186060D01*
X170176682Y-128056553D01*
X169875395Y-127962668D01*
X169564995Y-127905786D01*
X169564992Y-127905785D01*
X169250001Y-127886732D01*
X169249999Y-127886732D01*
X168935007Y-127905785D01*
X168935004Y-127905786D01*
X168624604Y-127962668D01*
X168323317Y-128056553D01*
X168035564Y-128186060D01*
X168035553Y-128186066D01*
X167765500Y-128349319D01*
X167765495Y-128349322D01*
X167517088Y-128543935D01*
X167517075Y-128543947D01*
X167293947Y-128767075D01*
X167293935Y-128767088D01*
X167099322Y-129015495D01*
X167099319Y-129015500D01*
X166936066Y-129285553D01*
X166936060Y-129285564D01*
X166806553Y-129573317D01*
X166712668Y-129874604D01*
X166655786Y-130185004D01*
X166655785Y-130185007D01*
X166636732Y-130499998D01*
X165418374Y-130499998D01*
X166129962Y-127844318D01*
X166142029Y-127799289D01*
X166142029Y-127799288D01*
X166138108Y-127769509D01*
X166138107Y-127769507D01*
X166123090Y-127743495D01*
X166099261Y-127725212D01*
X166070249Y-127717438D01*
X166070248Y-127717438D01*
X166062272Y-127715301D01*
X166062272Y-127715300D01*
X166062268Y-127715300D01*
X152592325Y-124106039D01*
X152592325Y-124106038D01*
X152592322Y-124106038D01*
X152547288Y-124093970D01*
X152517510Y-124097891D01*
X152491495Y-124112911D01*
X152473213Y-124136738D01*
X152473212Y-124136738D01*
X150683780Y-130814992D01*
X148841972Y-137688712D01*
X148841972Y-137688713D01*
X148841972Y-137688714D01*
X148841971Y-137688715D01*
X126640428Y-137688715D01*
X116938474Y-124384763D01*
X116928009Y-124367716D01*
X116924286Y-124360407D01*
X116921692Y-124357813D01*
X116918024Y-124354145D01*
X116906027Y-124340123D01*
X116896579Y-124331419D01*
X116896649Y-124331342D01*
X116889951Y-124326071D01*
X116866860Y-124302980D01*
X116772602Y-124239998D01*
X116667867Y-124196616D01*
X116556684Y-124174500D01*
X116556682Y-124174500D01*
X116515018Y-124174500D01*
X61508257Y-124174500D01*
X61491811Y-124173422D01*
X61406579Y-124162201D01*
X61374806Y-124153687D01*
X61303074Y-124123974D01*
X61274589Y-124107529D01*
X61212993Y-124060265D01*
X61189734Y-124037006D01*
X61142470Y-123975410D01*
X61126025Y-123946925D01*
X61096312Y-123875193D01*
X61087798Y-123843419D01*
X61076578Y-123758187D01*
X61075500Y-123741742D01*
X61075500Y-122749998D01*
X120136732Y-122749998D01*
X120136732Y-122750001D01*
X120155785Y-123064992D01*
X120155786Y-123064995D01*
X120212668Y-123375395D01*
X120306553Y-123676682D01*
X120436060Y-123964435D01*
X120436066Y-123964446D01*
X120599319Y-124234499D01*
X120599322Y-124234504D01*
X120793935Y-124482911D01*
X120793947Y-124482924D01*
X121017075Y-124706052D01*
X121017088Y-124706064D01*
X121265495Y-124900677D01*
X121535554Y-125063934D01*
X121535558Y-125063936D01*
X121535564Y-125063939D01*
X121823317Y-125193446D01*
X121823318Y-125193446D01*
X121823322Y-125193448D01*
X122124604Y-125287331D01*
X122435005Y-125344214D01*
X122645001Y-125356916D01*
X122749999Y-125363268D01*
X122750000Y-125363268D01*
X122750001Y-125363268D01*
X122828748Y-125358504D01*
X123064995Y-125344214D01*
X123375396Y-125287331D01*
X123676678Y-125193448D01*
X123964446Y-125063934D01*
X124234505Y-124900677D01*
X124482917Y-124706059D01*
X124706059Y-124482917D01*
X124900677Y-124234505D01*
X125063934Y-123964446D01*
X125193448Y-123676678D01*
X125287331Y-123375396D01*
X125344214Y-123064995D01*
X125346937Y-123019981D01*
X129454500Y-123019981D01*
X129454500Y-137050018D01*
X129465993Y-137077766D01*
X129465996Y-137077770D01*
X129487229Y-137099003D01*
X129487233Y-137099006D01*
X129514982Y-137110500D01*
X143545018Y-137110500D01*
X143572767Y-137099006D01*
X143594006Y-137077767D01*
X143605500Y-137050018D01*
X143605500Y-123019982D01*
X143594006Y-122992233D01*
X143594003Y-122992229D01*
X143572770Y-122970996D01*
X143572766Y-122970993D01*
X143545018Y-122959500D01*
X129545018Y-122959500D01*
X129514982Y-122959500D01*
X129487233Y-122970993D01*
X129487229Y-122970996D01*
X129465996Y-122992229D01*
X129465993Y-122992233D01*
X129454500Y-123019981D01*
X125346937Y-123019981D01*
X125363268Y-122750000D01*
X125344214Y-122435005D01*
X125287331Y-122124604D01*
X125193448Y-121823322D01*
X125063934Y-121535554D01*
X124900677Y-121265495D01*
X124706064Y-121017088D01*
X124706052Y-121017075D01*
X124482924Y-120793947D01*
X124482911Y-120793935D01*
X124234504Y-120599322D01*
X124234499Y-120599319D01*
X123964446Y-120436066D01*
X123964435Y-120436060D01*
X123676682Y-120306553D01*
X123375395Y-120212668D01*
X123064995Y-120155786D01*
X123064992Y-120155785D01*
X122750001Y-120136732D01*
X122749999Y-120136732D01*
X122435007Y-120155785D01*
X122435004Y-120155786D01*
X122124604Y-120212668D01*
X121823317Y-120306553D01*
X121535564Y-120436060D01*
X121535553Y-120436066D01*
X121265500Y-120599319D01*
X121265495Y-120599322D01*
X121017088Y-120793935D01*
X121017075Y-120793947D01*
X120793947Y-121017075D01*
X120793935Y-121017088D01*
X120599322Y-121265495D01*
X120599319Y-121265500D01*
X120436066Y-121535553D01*
X120436060Y-121535564D01*
X120306553Y-121823317D01*
X120212668Y-122124604D01*
X120155786Y-122435004D01*
X120155785Y-122435007D01*
X120136732Y-122749998D01*
X61075500Y-122749998D01*
X61075500Y-108109981D01*
X62934500Y-108109981D01*
X62934500Y-122140018D01*
X62945993Y-122167766D01*
X62945996Y-122167770D01*
X62967229Y-122189003D01*
X62967233Y-122189006D01*
X62994982Y-122200500D01*
X77025018Y-122200500D01*
X77052767Y-122189006D01*
X77074006Y-122167767D01*
X77085500Y-122140018D01*
X77085500Y-108109982D01*
X77074006Y-108082233D01*
X77074003Y-108082229D01*
X77052770Y-108060996D01*
X77052766Y-108060993D01*
X77025018Y-108049500D01*
X63025018Y-108049500D01*
X62994982Y-108049500D01*
X62967233Y-108060993D01*
X62967229Y-108060996D01*
X62945996Y-108082229D01*
X62945993Y-108082233D01*
X62934500Y-108109981D01*
X61075500Y-108109981D01*
X61075500Y-105499998D01*
X76886732Y-105499998D01*
X76886732Y-105500001D01*
X76905785Y-105814992D01*
X76905786Y-105814995D01*
X76962668Y-106125395D01*
X77056553Y-106426682D01*
X77186060Y-106714435D01*
X77186066Y-106714446D01*
X77349319Y-106984499D01*
X77349322Y-106984504D01*
X77543935Y-107232911D01*
X77543947Y-107232924D01*
X77767075Y-107456052D01*
X77767088Y-107456064D01*
X78015495Y-107650677D01*
X78285554Y-107813934D01*
X78285558Y-107813936D01*
X78285564Y-107813939D01*
X78573317Y-107943446D01*
X78573318Y-107943446D01*
X78573322Y-107943448D01*
X78874604Y-108037331D01*
X79185005Y-108094214D01*
X79395001Y-108106916D01*
X79499999Y-108113268D01*
X79500000Y-108113268D01*
X79500001Y-108113268D01*
X79554334Y-108109981D01*
X81934500Y-108109981D01*
X81934500Y-122140018D01*
X81945993Y-122167766D01*
X81945996Y-122167770D01*
X81967229Y-122189003D01*
X81967233Y-122189006D01*
X81994982Y-122200500D01*
X96025018Y-122200500D01*
X96052767Y-122189006D01*
X96074006Y-122167767D01*
X96085500Y-122140018D01*
X96085500Y-108109982D01*
X96074006Y-108082233D01*
X96074003Y-108082229D01*
X96052770Y-108060996D01*
X96052766Y-108060993D01*
X96025018Y-108049500D01*
X82025018Y-108049500D01*
X81994982Y-108049500D01*
X81967233Y-108060993D01*
X81967229Y-108060996D01*
X81945996Y-108082229D01*
X81945993Y-108082233D01*
X81934500Y-108109981D01*
X79554334Y-108109981D01*
X79578748Y-108108504D01*
X79814995Y-108094214D01*
X80125396Y-108037331D01*
X80426678Y-107943448D01*
X80714446Y-107813934D01*
X80984505Y-107650677D01*
X81232917Y-107456059D01*
X81456059Y-107232917D01*
X81650677Y-106984505D01*
X81813934Y-106714446D01*
X81943448Y-106426678D01*
X82037331Y-106125396D01*
X82094214Y-105814995D01*
X82113268Y-105500000D01*
X82094214Y-105185005D01*
X82037331Y-104874604D01*
X81943448Y-104573322D01*
X81813934Y-104285554D01*
X81650677Y-104015495D01*
X81456064Y-103767088D01*
X81456052Y-103767075D01*
X81232924Y-103543947D01*
X81232911Y-103543935D01*
X80998109Y-103359981D01*
X100934500Y-103359981D01*
X100934500Y-117390018D01*
X100945993Y-117417766D01*
X100945996Y-117417770D01*
X100967229Y-117439003D01*
X100967233Y-117439006D01*
X100994982Y-117450500D01*
X115025018Y-117450500D01*
X115052767Y-117439006D01*
X115074006Y-117417767D01*
X115085500Y-117390018D01*
X115085500Y-103359982D01*
X115081084Y-103349322D01*
X115074006Y-103332233D01*
X115074003Y-103332229D01*
X115052770Y-103310996D01*
X115052766Y-103310993D01*
X115025018Y-103299500D01*
X101025018Y-103299500D01*
X100994982Y-103299500D01*
X100967233Y-103310993D01*
X100967229Y-103310996D01*
X100945996Y-103332229D01*
X100945993Y-103332233D01*
X100934500Y-103359981D01*
X80998109Y-103359981D01*
X80984504Y-103349322D01*
X80984499Y-103349319D01*
X80714446Y-103186066D01*
X80714435Y-103186060D01*
X80426682Y-103056553D01*
X80125395Y-102962668D01*
X79814995Y-102905786D01*
X79814992Y-102905785D01*
X79500001Y-102886732D01*
X79499999Y-102886732D01*
X79185007Y-102905785D01*
X79185004Y-102905786D01*
X78874604Y-102962668D01*
X78573317Y-103056553D01*
X78285564Y-103186060D01*
X78285553Y-103186066D01*
X78015500Y-103349319D01*
X78015495Y-103349322D01*
X77767088Y-103543935D01*
X77767075Y-103543947D01*
X77543947Y-103767075D01*
X77543935Y-103767088D01*
X77349322Y-104015495D01*
X77349319Y-104015500D01*
X77186066Y-104285553D01*
X77186060Y-104285564D01*
X77056553Y-104573317D01*
X76962668Y-104874604D01*
X76905786Y-105185004D01*
X76905785Y-105185007D01*
X76886732Y-105499998D01*
X61075500Y-105499998D01*
X61075500Y-89109981D01*
X62934500Y-89109981D01*
X62934500Y-103140018D01*
X62945993Y-103167766D01*
X62945996Y-103167770D01*
X62967229Y-103189003D01*
X62967233Y-103189006D01*
X62994982Y-103200500D01*
X77025018Y-103200500D01*
X77052767Y-103189006D01*
X77074006Y-103167767D01*
X77085500Y-103140018D01*
X77085500Y-89109982D01*
X77074006Y-89082233D01*
X77074003Y-89082229D01*
X77052770Y-89060996D01*
X77052766Y-89060993D01*
X77025018Y-89049500D01*
X63025018Y-89049500D01*
X62994982Y-89049500D01*
X62967233Y-89060993D01*
X62967229Y-89060996D01*
X62945996Y-89082229D01*
X62945993Y-89082233D01*
X62934500Y-89109981D01*
X61075500Y-89109981D01*
X61075500Y-86749998D01*
X76886732Y-86749998D01*
X76886732Y-86750001D01*
X76905785Y-87064992D01*
X76905786Y-87064995D01*
X76962668Y-87375395D01*
X77056553Y-87676682D01*
X77186060Y-87964435D01*
X77186066Y-87964446D01*
X77349319Y-88234499D01*
X77349322Y-88234504D01*
X77543935Y-88482911D01*
X77543947Y-88482924D01*
X77767075Y-88706052D01*
X77767088Y-88706064D01*
X78015495Y-88900677D01*
X78285554Y-89063934D01*
X78285558Y-89063936D01*
X78285564Y-89063939D01*
X78573317Y-89193446D01*
X78573318Y-89193446D01*
X78573322Y-89193448D01*
X78874604Y-89287331D01*
X79185005Y-89344214D01*
X79395001Y-89356916D01*
X79499999Y-89363268D01*
X79500000Y-89363268D01*
X79500001Y-89363268D01*
X79578748Y-89358504D01*
X79814995Y-89344214D01*
X80125396Y-89287331D01*
X80426678Y-89193448D01*
X80612134Y-89109981D01*
X81934500Y-89109981D01*
X81934500Y-103140018D01*
X81945993Y-103167766D01*
X81945996Y-103167770D01*
X81967229Y-103189003D01*
X81967233Y-103189006D01*
X81994982Y-103200500D01*
X96025018Y-103200500D01*
X96052767Y-103189006D01*
X96074006Y-103167767D01*
X96085500Y-103140018D01*
X96085500Y-100984981D01*
X119934500Y-100984981D01*
X119934500Y-115015018D01*
X119945993Y-115042766D01*
X119945996Y-115042770D01*
X119967229Y-115064003D01*
X119967233Y-115064006D01*
X119994982Y-115075500D01*
X134025018Y-115075500D01*
X134052767Y-115064006D01*
X134074006Y-115042767D01*
X134085500Y-115015018D01*
X134085500Y-103359981D01*
X138934500Y-103359981D01*
X138934500Y-117390018D01*
X138945993Y-117417766D01*
X138945996Y-117417770D01*
X138967229Y-117439003D01*
X138967233Y-117439006D01*
X138994982Y-117450500D01*
X153025018Y-117450500D01*
X153052767Y-117439006D01*
X153074006Y-117417767D01*
X153085500Y-117390018D01*
X153085500Y-105734981D01*
X157934500Y-105734981D01*
X157934500Y-119765018D01*
X157945993Y-119792766D01*
X157945996Y-119792770D01*
X157967229Y-119814003D01*
X157967233Y-119814006D01*
X157994982Y-119825500D01*
X172025018Y-119825500D01*
X172052767Y-119814006D01*
X172074006Y-119792767D01*
X172085500Y-119765018D01*
X172085500Y-105734982D01*
X172074006Y-105707233D01*
X172074003Y-105707229D01*
X172052770Y-105685996D01*
X172052766Y-105685993D01*
X172025018Y-105674500D01*
X158025018Y-105674500D01*
X157994982Y-105674500D01*
X157967233Y-105685993D01*
X157967229Y-105685996D01*
X157945996Y-105707229D01*
X157945993Y-105707233D01*
X157934500Y-105734981D01*
X153085500Y-105734981D01*
X153085500Y-103359982D01*
X153081084Y-103349322D01*
X153074006Y-103332233D01*
X153074003Y-103332229D01*
X153052770Y-103310996D01*
X153052766Y-103310993D01*
X153025018Y-103299500D01*
X139025018Y-103299500D01*
X138994982Y-103299500D01*
X138967233Y-103310993D01*
X138967229Y-103310996D01*
X138945996Y-103332229D01*
X138945993Y-103332233D01*
X138934500Y-103359981D01*
X134085500Y-103359981D01*
X134085500Y-100984982D01*
X134074006Y-100957233D01*
X134074003Y-100957229D01*
X134052770Y-100935996D01*
X134052766Y-100935993D01*
X134025018Y-100924500D01*
X120025018Y-100924500D01*
X119994982Y-100924500D01*
X119967233Y-100935993D01*
X119967229Y-100935996D01*
X119945996Y-100957229D01*
X119945993Y-100957233D01*
X119934500Y-100984981D01*
X96085500Y-100984981D01*
X96085500Y-89109982D01*
X96074006Y-89082233D01*
X96074003Y-89082229D01*
X96052770Y-89060996D01*
X96052766Y-89060993D01*
X96025018Y-89049500D01*
X82025018Y-89049500D01*
X81994982Y-89049500D01*
X81967233Y-89060993D01*
X81967229Y-89060996D01*
X81945996Y-89082229D01*
X81945993Y-89082233D01*
X81934500Y-89109981D01*
X80612134Y-89109981D01*
X80714446Y-89063934D01*
X80984505Y-88900677D01*
X81232917Y-88706059D01*
X81456059Y-88482917D01*
X81650677Y-88234505D01*
X81813934Y-87964446D01*
X81943448Y-87676678D01*
X82037331Y-87375396D01*
X82094214Y-87064995D01*
X82113268Y-86750000D01*
X82094214Y-86435005D01*
X82037331Y-86124604D01*
X81943448Y-85823322D01*
X81943446Y-85823317D01*
X81813939Y-85535564D01*
X81813933Y-85535553D01*
X81758253Y-85443448D01*
X81650677Y-85265495D01*
X81456064Y-85017088D01*
X81456052Y-85017075D01*
X81232924Y-84793947D01*
X81232911Y-84793935D01*
X80984504Y-84599322D01*
X80984499Y-84599319D01*
X80714446Y-84436066D01*
X80714435Y-84436060D01*
X80545394Y-84359981D01*
X100934500Y-84359981D01*
X100934500Y-98390018D01*
X100945993Y-98417766D01*
X100945996Y-98417770D01*
X100967229Y-98439003D01*
X100967233Y-98439006D01*
X100994982Y-98450500D01*
X115025018Y-98450500D01*
X115052767Y-98439006D01*
X115074006Y-98417767D01*
X115085500Y-98390018D01*
X115085500Y-84359982D01*
X115074006Y-84332233D01*
X115074003Y-84332229D01*
X115052770Y-84310996D01*
X115052766Y-84310993D01*
X115025018Y-84299500D01*
X101025018Y-84299500D01*
X100994982Y-84299500D01*
X100967233Y-84310993D01*
X100967229Y-84310996D01*
X100945996Y-84332229D01*
X100945993Y-84332233D01*
X100934500Y-84359981D01*
X80545394Y-84359981D01*
X80426682Y-84306553D01*
X80125395Y-84212668D01*
X79814995Y-84155786D01*
X79814992Y-84155785D01*
X79500001Y-84136732D01*
X79499999Y-84136732D01*
X79185007Y-84155785D01*
X79185004Y-84155786D01*
X78874604Y-84212668D01*
X78573317Y-84306553D01*
X78285564Y-84436060D01*
X78285553Y-84436066D01*
X78015500Y-84599319D01*
X78015495Y-84599322D01*
X77767088Y-84793935D01*
X77767075Y-84793947D01*
X77543947Y-85017075D01*
X77543935Y-85017088D01*
X77349322Y-85265495D01*
X77349319Y-85265500D01*
X77186066Y-85535553D01*
X77186060Y-85535564D01*
X77056553Y-85823317D01*
X76962668Y-86124604D01*
X76905786Y-86435004D01*
X76905785Y-86435007D01*
X76886732Y-86749998D01*
X61075500Y-86749998D01*
X61075500Y-70109981D01*
X62934500Y-70109981D01*
X62934500Y-84140018D01*
X62945993Y-84167766D01*
X62945996Y-84167770D01*
X62967229Y-84189003D01*
X62967233Y-84189006D01*
X62994982Y-84200500D01*
X77025018Y-84200500D01*
X77052767Y-84189006D01*
X77074006Y-84167767D01*
X77085500Y-84140018D01*
X77085500Y-70109982D01*
X77085500Y-70109981D01*
X81934500Y-70109981D01*
X81934500Y-84140018D01*
X81945993Y-84167766D01*
X81945996Y-84167770D01*
X81967229Y-84189003D01*
X81967233Y-84189006D01*
X81994982Y-84200500D01*
X96025018Y-84200500D01*
X96052767Y-84189006D01*
X96074006Y-84167767D01*
X96085500Y-84140018D01*
X96085500Y-81984981D01*
X119934500Y-81984981D01*
X119934500Y-96015018D01*
X119945993Y-96042766D01*
X119945996Y-96042770D01*
X119967229Y-96064003D01*
X119967233Y-96064006D01*
X119994982Y-96075500D01*
X134025018Y-96075500D01*
X134052767Y-96064006D01*
X134074006Y-96042767D01*
X134085500Y-96015018D01*
X134085500Y-84359981D01*
X138934500Y-84359981D01*
X138934500Y-98390018D01*
X138945993Y-98417766D01*
X138945996Y-98417770D01*
X138967229Y-98439003D01*
X138967233Y-98439006D01*
X138994982Y-98450500D01*
X153025018Y-98450500D01*
X153052767Y-98439006D01*
X153074006Y-98417767D01*
X153085500Y-98390018D01*
X153085500Y-86734981D01*
X157934500Y-86734981D01*
X157934500Y-100765018D01*
X157945993Y-100792766D01*
X157945996Y-100792770D01*
X157967229Y-100814003D01*
X157967233Y-100814006D01*
X157994982Y-100825500D01*
X172025018Y-100825500D01*
X172052767Y-100814006D01*
X172074006Y-100792767D01*
X172085500Y-100765018D01*
X172085500Y-86734982D01*
X172074006Y-86707233D01*
X172074003Y-86707229D01*
X172052770Y-86685996D01*
X172052766Y-86685993D01*
X172025018Y-86674500D01*
X158025018Y-86674500D01*
X157994982Y-86674500D01*
X157967233Y-86685993D01*
X157967229Y-86685996D01*
X157945996Y-86707229D01*
X157945993Y-86707233D01*
X157934500Y-86734981D01*
X153085500Y-86734981D01*
X153085500Y-84500073D01*
X153105502Y-84431952D01*
X153159158Y-84385459D01*
X153229432Y-84375355D01*
X153294012Y-84404849D01*
X153319328Y-84434889D01*
X153349314Y-84484492D01*
X153349322Y-84484504D01*
X153543935Y-84732911D01*
X153543947Y-84732924D01*
X153767075Y-84956052D01*
X153767088Y-84956064D01*
X154015495Y-85150677D01*
X154285554Y-85313934D01*
X154285558Y-85313936D01*
X154285564Y-85313939D01*
X154573317Y-85443446D01*
X154573318Y-85443446D01*
X154573322Y-85443448D01*
X154874604Y-85537331D01*
X155185005Y-85594214D01*
X155395001Y-85606916D01*
X155499999Y-85613268D01*
X155500000Y-85613268D01*
X155500001Y-85613268D01*
X155578748Y-85608504D01*
X155814995Y-85594214D01*
X156125396Y-85537331D01*
X156426678Y-85443448D01*
X156714446Y-85313934D01*
X156984505Y-85150677D01*
X157232917Y-84956059D01*
X157456059Y-84732917D01*
X157650677Y-84484505D01*
X157813934Y-84214446D01*
X157823984Y-84192117D01*
X157943446Y-83926682D01*
X157943448Y-83926678D01*
X158037331Y-83625396D01*
X158094214Y-83314995D01*
X158113268Y-83000000D01*
X158094214Y-82685005D01*
X158037331Y-82374604D01*
X157943448Y-82073322D01*
X157911893Y-82003211D01*
X157902176Y-81932884D01*
X157932023Y-81868466D01*
X157991959Y-81830411D01*
X158026793Y-81825500D01*
X172025018Y-81825500D01*
X172052767Y-81814006D01*
X172074006Y-81792767D01*
X172085500Y-81765018D01*
X172085500Y-67734982D01*
X172074006Y-67707233D01*
X172074003Y-67707229D01*
X172052770Y-67685996D01*
X172052766Y-67685993D01*
X172025018Y-67674500D01*
X158025018Y-67674500D01*
X157994982Y-67674500D01*
X157967233Y-67685993D01*
X157967229Y-67685996D01*
X157945996Y-67707229D01*
X157945993Y-67707233D01*
X157934500Y-67734981D01*
X157934500Y-81533010D01*
X157914498Y-81601131D01*
X157860842Y-81647624D01*
X157790568Y-81657728D01*
X157725988Y-81628234D01*
X157700672Y-81598195D01*
X157650680Y-81515500D01*
X157650677Y-81515495D01*
X157456064Y-81267088D01*
X157456052Y-81267075D01*
X157232924Y-81043947D01*
X157232911Y-81043935D01*
X156984504Y-80849322D01*
X156984499Y-80849319D01*
X156714446Y-80686066D01*
X156714435Y-80686060D01*
X156426682Y-80556553D01*
X156125395Y-80462668D01*
X155814995Y-80405786D01*
X155814992Y-80405785D01*
X155500001Y-80386732D01*
X155499999Y-80386732D01*
X155185007Y-80405785D01*
X155185004Y-80405786D01*
X154874604Y-80462668D01*
X154573317Y-80556553D01*
X154285564Y-80686060D01*
X154285553Y-80686066D01*
X154015500Y-80849319D01*
X154015495Y-80849322D01*
X153767088Y-81043935D01*
X153767075Y-81043947D01*
X153543947Y-81267075D01*
X153543935Y-81267088D01*
X153349322Y-81515495D01*
X153349319Y-81515500D01*
X153186066Y-81785553D01*
X153186060Y-81785564D01*
X153056553Y-82073317D01*
X152962668Y-82374604D01*
X152905786Y-82685004D01*
X152905785Y-82685007D01*
X152886732Y-82999998D01*
X152886732Y-83000001D01*
X152905785Y-83314992D01*
X152905786Y-83314995D01*
X152962668Y-83625395D01*
X153056553Y-83926682D01*
X153144363Y-84121788D01*
X153154081Y-84192117D01*
X153124234Y-84256534D01*
X153064298Y-84294589D01*
X153029464Y-84299500D01*
X138994982Y-84299500D01*
X138967233Y-84310993D01*
X138967229Y-84310996D01*
X138945996Y-84332229D01*
X138945993Y-84332233D01*
X138934500Y-84359981D01*
X134085500Y-84359981D01*
X134085500Y-81984982D01*
X134074006Y-81957233D01*
X134074003Y-81957229D01*
X134052770Y-81935996D01*
X134052766Y-81935993D01*
X134025018Y-81924500D01*
X120025018Y-81924500D01*
X119994982Y-81924500D01*
X119967233Y-81935993D01*
X119967229Y-81935996D01*
X119945996Y-81957229D01*
X119945993Y-81957233D01*
X119934500Y-81984981D01*
X96085500Y-81984981D01*
X96085500Y-70109982D01*
X96074006Y-70082233D01*
X96074003Y-70082229D01*
X96052770Y-70060996D01*
X96052766Y-70060993D01*
X96025018Y-70049500D01*
X82025018Y-70049500D01*
X81994982Y-70049500D01*
X81967233Y-70060993D01*
X81967229Y-70060996D01*
X81945996Y-70082229D01*
X81945993Y-70082233D01*
X81934500Y-70109981D01*
X77085500Y-70109981D01*
X77074006Y-70082233D01*
X77074003Y-70082229D01*
X77052770Y-70060996D01*
X77052766Y-70060993D01*
X77025018Y-70049500D01*
X63025018Y-70049500D01*
X62994982Y-70049500D01*
X62967233Y-70060993D01*
X62967229Y-70060996D01*
X62945996Y-70082229D01*
X62945993Y-70082233D01*
X62934500Y-70109981D01*
X61075500Y-70109981D01*
X61075500Y-68508257D01*
X61076578Y-68491812D01*
X61084036Y-68435157D01*
X61087799Y-68406576D01*
X61096312Y-68374806D01*
X61126025Y-68303074D01*
X61142467Y-68274593D01*
X61189738Y-68212988D01*
X61212988Y-68189738D01*
X61274593Y-68142467D01*
X61303074Y-68126025D01*
X61374806Y-68096312D01*
X61406576Y-68087799D01*
X61481982Y-68077871D01*
X61491812Y-68076578D01*
X61508257Y-68075500D01*
X98564840Y-68075500D01*
X98564843Y-68075500D01*
X98691278Y-68046642D01*
X98808122Y-67990374D01*
X98909515Y-67909515D01*
X98990374Y-67808122D01*
X99046642Y-67691278D01*
X99075500Y-67564843D01*
X99075500Y-67500000D01*
X99075500Y-67475469D01*
X99075500Y-65359981D01*
X100934500Y-65359981D01*
X100934500Y-79390018D01*
X100945993Y-79417766D01*
X100945996Y-79417770D01*
X100967229Y-79439003D01*
X100967233Y-79439006D01*
X100994982Y-79450500D01*
X115025018Y-79450500D01*
X115052767Y-79439006D01*
X115074006Y-79417767D01*
X115085500Y-79390018D01*
X115085500Y-65359982D01*
X115085453Y-65359869D01*
X115074006Y-65332233D01*
X115074003Y-65332229D01*
X115052770Y-65310996D01*
X115052766Y-65310993D01*
X115025018Y-65299500D01*
X101025018Y-65299500D01*
X100994982Y-65299500D01*
X100967233Y-65310993D01*
X100967229Y-65310996D01*
X100945996Y-65332229D01*
X100945993Y-65332233D01*
X100934500Y-65359981D01*
X99075500Y-65359981D01*
X99075500Y-63758257D01*
X99076578Y-63741812D01*
X99084036Y-63685157D01*
X99087799Y-63656576D01*
X99096312Y-63624806D01*
X99126025Y-63553074D01*
X99142467Y-63524593D01*
X99189738Y-63462988D01*
X99212988Y-63439738D01*
X99274593Y-63392467D01*
X99303074Y-63376025D01*
X99374806Y-63346312D01*
X99406576Y-63337799D01*
X99481982Y-63327871D01*
X99491812Y-63326578D01*
X99508257Y-63325500D01*
X117564840Y-63325500D01*
X117564843Y-63325500D01*
X117691278Y-63296642D01*
X117808122Y-63240374D01*
X117909515Y-63159515D01*
X117990374Y-63058122D01*
X118025596Y-62984981D01*
X119934500Y-62984981D01*
X119934500Y-77015018D01*
X119945993Y-77042766D01*
X119945996Y-77042770D01*
X119967229Y-77064003D01*
X119967233Y-77064006D01*
X119994982Y-77075500D01*
X134025018Y-77075500D01*
X134052767Y-77064006D01*
X134074006Y-77042767D01*
X134085500Y-77015018D01*
X134085500Y-65359981D01*
X138934500Y-65359981D01*
X138934500Y-79390018D01*
X138945993Y-79417766D01*
X138945996Y-79417770D01*
X138967229Y-79439003D01*
X138967233Y-79439006D01*
X138994982Y-79450500D01*
X153025018Y-79450500D01*
X153052767Y-79439006D01*
X153074006Y-79417767D01*
X153085500Y-79390018D01*
X153085500Y-65359982D01*
X153085453Y-65359869D01*
X153074006Y-65332233D01*
X153074003Y-65332229D01*
X153052770Y-65310996D01*
X153052766Y-65310993D01*
X153025018Y-65299500D01*
X139025018Y-65299500D01*
X138994982Y-65299500D01*
X138967233Y-65310993D01*
X138967229Y-65310996D01*
X138945996Y-65332229D01*
X138945993Y-65332233D01*
X138934500Y-65359981D01*
X134085500Y-65359981D01*
X134085500Y-62984982D01*
X134074006Y-62957233D01*
X134074003Y-62957229D01*
X134052770Y-62935996D01*
X134052766Y-62935993D01*
X134025018Y-62924500D01*
X120025018Y-62924500D01*
X119994982Y-62924500D01*
X119967233Y-62935993D01*
X119967229Y-62935996D01*
X119945996Y-62957229D01*
X119945993Y-62957233D01*
X119934500Y-62984981D01*
X118025596Y-62984981D01*
X118046642Y-62941278D01*
X118075500Y-62814843D01*
X118075500Y-62750000D01*
X118075500Y-62725469D01*
X118075500Y-61508257D01*
X118076578Y-61491812D01*
X118084036Y-61435157D01*
X118087799Y-61406576D01*
X118096312Y-61374806D01*
X118126025Y-61303074D01*
X118142467Y-61274593D01*
X118189738Y-61212988D01*
X118212988Y-61189738D01*
X118274593Y-61142467D01*
X118303074Y-61126025D01*
X118374806Y-61096312D01*
X118406576Y-61087799D01*
X118481982Y-61077871D01*
X118491812Y-61076578D01*
X118508257Y-61075500D01*
X118524531Y-61075500D01*
X135475469Y-61075500D01*
X135491743Y-61075500D01*
X135508188Y-61076578D01*
G37*
G04 #@! TD.AperFunction*
M02*
