%TF.GenerationSoftware,KiCad,Pcbnew,8.0.3*%
%TF.CreationDate,2024-06-14T21:37:35-03:00*%
%TF.ProjectId,corne-bottom-plate,636f726e-652d-4626-9f74-746f6d2d706c,2.1*%
%TF.SameCoordinates,Original*%
%TF.FileFunction,Drillmap*%
%TF.FilePolarity,Positive*%
%FSLAX45Y45*%
G04 Gerber Fmt 4.5, Leading zero omitted, Abs format (unit mm)*
G04 Created by KiCad (PCBNEW 8.0.3) date 2024-06-14 21:37:35*
%MOMM*%
%LPD*%
G01*
G04 APERTURE LIST*
%ADD10C,0.150000*%
%ADD11C,0.200000*%
G04 APERTURE END LIST*
D10*
X6150000Y-12425000D02*
G75*
G02*
X6100000Y-12375000I0J50000D01*
G01*
X9850000Y-6800000D02*
X6150000Y-6800000D01*
X13550000Y-6100000D02*
X11850000Y-6100000D01*
X16507500Y-14390000D02*
X17936925Y-15216096D01*
X15450000Y-6325000D02*
G75*
G02*
X15500000Y-6375000I0J-50000D01*
G01*
X11800000Y-6150000D02*
X11800000Y-6275000D01*
X16442056Y-14377034D02*
G75*
G02*
X16507500Y-14390000I-33316J-339806D01*
G01*
X17350000Y-6575000D02*
G75*
G02*
X17400000Y-6625000I0J-50000D01*
G01*
X11650000Y-12425000D02*
X6149999Y-12425000D01*
X9900000Y-6375000D02*
X9900000Y-6750000D01*
X19425000Y-6800000D02*
G75*
G02*
X19475000Y-6850000I0J-50000D01*
G01*
X17450000Y-6800000D02*
G75*
G02*
X17400000Y-6750000I0J50000D01*
G01*
X9900000Y-6750000D02*
G75*
G02*
X9850000Y-6800000I-50000J0D01*
G01*
X11650000Y-12425000D02*
G75*
G02*
X11685355Y-12439645I0J-50000D01*
G01*
X17400000Y-6625000D02*
X17400000Y-6750000D01*
X6100000Y-6850000D02*
G75*
G02*
X6150000Y-6800000I50000J0D01*
G01*
X17350000Y-6575000D02*
X15550000Y-6575000D01*
X11800000Y-6275000D02*
G75*
G02*
X11750000Y-6325000I-50000J0D01*
G01*
X18129726Y-15178146D02*
X19452500Y-12885000D01*
X15550000Y-6575000D02*
G75*
G02*
X15500000Y-6525000I0J50000D01*
G01*
X11750000Y-6325000D02*
X9950000Y-6325000D01*
X15500000Y-6525000D02*
X15500000Y-6375000D01*
X15450000Y-6325000D02*
X13650000Y-6325000D01*
X13550000Y-6100000D02*
G75*
G02*
X13600000Y-6150000I0J-50000D01*
G01*
X6100000Y-6850000D02*
X6100000Y-12375000D01*
X19475000Y-12797500D02*
G75*
G02*
X19452277Y-12884770I-170230J-2270D01*
G01*
X11800000Y-6150000D02*
G75*
G02*
X11850000Y-6100000I50000J0D01*
G01*
X13650000Y-6325000D02*
G75*
G02*
X13600000Y-6275000I0J50000D01*
G01*
X12775000Y-13900000D02*
G75*
G02*
X12739645Y-13885355I0J50000D01*
G01*
X11685355Y-12439645D02*
X12739645Y-13885355D01*
X18129726Y-15178146D02*
G75*
G02*
X17936928Y-15216091I-115296J77047D01*
G01*
X12775000Y-13900000D02*
X16442056Y-14377034D01*
X9900000Y-6375000D02*
G75*
G02*
X9950000Y-6325000I50000J0D01*
G01*
X19425000Y-6800000D02*
X17450000Y-6800000D01*
X13600000Y-6275000D02*
X13600000Y-6150000D01*
X19475000Y-6850000D02*
X19475000Y-12797500D01*
D11*
X6353277Y-15558754D02*
X6353277Y-15358754D01*
X6353277Y-15358754D02*
X6400896Y-15358754D01*
X6400896Y-15358754D02*
X6429467Y-15368278D01*
X6429467Y-15368278D02*
X6448515Y-15387325D01*
X6448515Y-15387325D02*
X6458039Y-15406373D01*
X6458039Y-15406373D02*
X6467562Y-15444468D01*
X6467562Y-15444468D02*
X6467562Y-15473040D01*
X6467562Y-15473040D02*
X6458039Y-15511135D01*
X6458039Y-15511135D02*
X6448515Y-15530182D01*
X6448515Y-15530182D02*
X6429467Y-15549230D01*
X6429467Y-15549230D02*
X6400896Y-15558754D01*
X6400896Y-15558754D02*
X6353277Y-15558754D01*
X6553277Y-15558754D02*
X6553277Y-15425420D01*
X6553277Y-15463516D02*
X6562801Y-15444468D01*
X6562801Y-15444468D02*
X6572324Y-15434944D01*
X6572324Y-15434944D02*
X6591372Y-15425420D01*
X6591372Y-15425420D02*
X6610420Y-15425420D01*
X6677086Y-15558754D02*
X6677086Y-15425420D01*
X6677086Y-15358754D02*
X6667562Y-15368278D01*
X6667562Y-15368278D02*
X6677086Y-15377801D01*
X6677086Y-15377801D02*
X6686610Y-15368278D01*
X6686610Y-15368278D02*
X6677086Y-15358754D01*
X6677086Y-15358754D02*
X6677086Y-15377801D01*
X6800896Y-15558754D02*
X6781848Y-15549230D01*
X6781848Y-15549230D02*
X6772324Y-15530182D01*
X6772324Y-15530182D02*
X6772324Y-15358754D01*
X6905658Y-15558754D02*
X6886610Y-15549230D01*
X6886610Y-15549230D02*
X6877086Y-15530182D01*
X6877086Y-15530182D02*
X6877086Y-15358754D01*
X7134229Y-15558754D02*
X7134229Y-15358754D01*
X7134229Y-15358754D02*
X7200896Y-15501611D01*
X7200896Y-15501611D02*
X7267562Y-15358754D01*
X7267562Y-15358754D02*
X7267562Y-15558754D01*
X7448515Y-15558754D02*
X7448515Y-15453992D01*
X7448515Y-15453992D02*
X7438991Y-15434944D01*
X7438991Y-15434944D02*
X7419943Y-15425420D01*
X7419943Y-15425420D02*
X7381848Y-15425420D01*
X7381848Y-15425420D02*
X7362801Y-15434944D01*
X7448515Y-15549230D02*
X7429467Y-15558754D01*
X7429467Y-15558754D02*
X7381848Y-15558754D01*
X7381848Y-15558754D02*
X7362801Y-15549230D01*
X7362801Y-15549230D02*
X7353277Y-15530182D01*
X7353277Y-15530182D02*
X7353277Y-15511135D01*
X7353277Y-15511135D02*
X7362801Y-15492087D01*
X7362801Y-15492087D02*
X7381848Y-15482563D01*
X7381848Y-15482563D02*
X7429467Y-15482563D01*
X7429467Y-15482563D02*
X7448515Y-15473040D01*
X7543753Y-15425420D02*
X7543753Y-15625420D01*
X7543753Y-15434944D02*
X7562801Y-15425420D01*
X7562801Y-15425420D02*
X7600896Y-15425420D01*
X7600896Y-15425420D02*
X7619943Y-15434944D01*
X7619943Y-15434944D02*
X7629467Y-15444468D01*
X7629467Y-15444468D02*
X7638991Y-15463516D01*
X7638991Y-15463516D02*
X7638991Y-15520659D01*
X7638991Y-15520659D02*
X7629467Y-15539706D01*
X7629467Y-15539706D02*
X7619943Y-15549230D01*
X7619943Y-15549230D02*
X7600896Y-15558754D01*
X7600896Y-15558754D02*
X7562801Y-15558754D01*
X7562801Y-15558754D02*
X7543753Y-15549230D01*
X7724705Y-15539706D02*
X7734229Y-15549230D01*
X7734229Y-15549230D02*
X7724705Y-15558754D01*
X7724705Y-15558754D02*
X7715182Y-15549230D01*
X7715182Y-15549230D02*
X7724705Y-15539706D01*
X7724705Y-15539706D02*
X7724705Y-15558754D01*
X7724705Y-15434944D02*
X7734229Y-15444468D01*
X7734229Y-15444468D02*
X7724705Y-15453992D01*
X7724705Y-15453992D02*
X7715182Y-15444468D01*
X7715182Y-15444468D02*
X7724705Y-15434944D01*
X7724705Y-15434944D02*
X7724705Y-15453992D01*
M02*
