G04 #@! TF.GenerationSoftware,KiCad,Pcbnew,8.0.3*
G04 #@! TF.CreationDate,2024-06-14T21:37:23-03:00*
G04 #@! TF.ProjectId,corne-bottom-plate,636f726e-652d-4626-9f74-746f6d2d706c,2.1*
G04 #@! TF.SameCoordinates,Original*
G04 #@! TF.FileFunction,Copper,L1,Top*
G04 #@! TF.FilePolarity,Positive*
%FSLAX46Y46*%
G04 Gerber Fmt 4.6, Leading zero omitted, Abs format (unit mm)*
G04 Created by KiCad (PCBNEW 8.0.3) date 2024-06-14 21:37:23*
%MOMM*%
%LPD*%
G01*
G04 APERTURE LIST*
G04 #@! TA.AperFunction,ComponentPad*
%ADD10C,4.200000*%
G04 #@! TD*
G04 APERTURE END LIST*
D10*
X79500000Y-86750000D03*
X79500000Y-105500000D03*
X155500000Y-83000000D03*
X122750000Y-122750000D03*
X169250000Y-130500000D03*
G04 #@! TA.AperFunction,NonConductor*
G36*
X135508188Y-61076578D02*
G01*
X135520804Y-61078238D01*
X135593421Y-61087798D01*
X135625193Y-61096312D01*
X135696925Y-61126025D01*
X135725410Y-61142470D01*
X135787006Y-61189734D01*
X135810265Y-61212993D01*
X135857529Y-61274589D01*
X135873974Y-61303074D01*
X135903687Y-61374806D01*
X135912201Y-61406579D01*
X135923422Y-61491811D01*
X135924500Y-61508257D01*
X135924500Y-62725469D01*
X135924500Y-62750000D01*
X135924500Y-62814843D01*
X135953358Y-62941278D01*
X135987522Y-63012223D01*
X136000000Y-63066890D01*
X136000000Y-63200000D01*
X136097161Y-63200000D01*
X136165282Y-63220002D01*
X136175722Y-63227491D01*
X136191873Y-63240371D01*
X136191876Y-63240372D01*
X136191878Y-63240374D01*
X136266570Y-63276343D01*
X136308713Y-63296638D01*
X136308716Y-63296639D01*
X136308722Y-63296642D01*
X136435157Y-63325500D01*
X136484982Y-63325500D01*
X154475469Y-63325500D01*
X154491743Y-63325500D01*
X154508188Y-63326578D01*
X154520804Y-63328238D01*
X154593421Y-63337798D01*
X154625193Y-63346312D01*
X154696925Y-63376025D01*
X154725410Y-63392470D01*
X154787006Y-63439734D01*
X154810265Y-63462993D01*
X154857529Y-63524589D01*
X154873974Y-63553074D01*
X154903687Y-63624806D01*
X154912201Y-63656579D01*
X154923422Y-63741811D01*
X154924500Y-63758257D01*
X154924500Y-65225469D01*
X154924500Y-65250000D01*
X154924500Y-65314843D01*
X154953358Y-65441278D01*
X154987522Y-65512223D01*
X155000000Y-65566890D01*
X155000000Y-65700000D01*
X155097161Y-65700000D01*
X155165282Y-65720002D01*
X155175722Y-65727491D01*
X155191873Y-65740371D01*
X155191876Y-65740372D01*
X155191878Y-65740374D01*
X155266570Y-65776343D01*
X155308713Y-65796638D01*
X155308716Y-65796639D01*
X155308722Y-65796642D01*
X155435157Y-65825500D01*
X155484982Y-65825500D01*
X173475469Y-65825500D01*
X173491743Y-65825500D01*
X173508188Y-65826578D01*
X173520804Y-65828238D01*
X173593421Y-65837798D01*
X173625193Y-65846312D01*
X173696925Y-65876025D01*
X173725410Y-65892470D01*
X173787006Y-65939734D01*
X173810265Y-65962993D01*
X173857529Y-66024589D01*
X173873974Y-66053074D01*
X173903687Y-66124806D01*
X173912201Y-66156579D01*
X173923422Y-66241811D01*
X173924500Y-66258257D01*
X173924500Y-67475469D01*
X173924500Y-67500000D01*
X173924500Y-67564843D01*
X173953358Y-67691278D01*
X173987522Y-67762223D01*
X174000000Y-67816890D01*
X174000000Y-67900000D01*
X174034464Y-67900000D01*
X174102585Y-67920002D01*
X174113018Y-67927485D01*
X174191878Y-67990374D01*
X174191879Y-67990374D01*
X174191880Y-67990375D01*
X174308713Y-68046638D01*
X174308716Y-68046639D01*
X174308722Y-68046642D01*
X174435157Y-68075500D01*
X174484982Y-68075500D01*
X194225469Y-68075500D01*
X194241743Y-68075500D01*
X194258188Y-68076578D01*
X194270804Y-68078238D01*
X194343421Y-68087798D01*
X194375193Y-68096312D01*
X194446925Y-68126025D01*
X194475410Y-68142470D01*
X194537006Y-68189734D01*
X194560265Y-68212993D01*
X194607529Y-68274589D01*
X194623974Y-68303074D01*
X194653687Y-68374806D01*
X194662201Y-68406579D01*
X194673422Y-68491811D01*
X194674500Y-68508257D01*
X194674500Y-127931382D01*
X194673960Y-127934951D01*
X194674450Y-127971767D01*
X194674280Y-127980203D01*
X194663269Y-128185141D01*
X194661237Y-128201893D01*
X194624735Y-128394068D01*
X194610442Y-128432902D01*
X189403823Y-137576912D01*
X189403472Y-137577524D01*
X181238346Y-151732499D01*
X181228134Y-151747570D01*
X181112908Y-151893662D01*
X181099447Y-151908212D01*
X180962498Y-152034644D01*
X180946921Y-152046903D01*
X180791837Y-152150294D01*
X180774531Y-152159957D01*
X180605163Y-152237743D01*
X180586556Y-152244574D01*
X180407068Y-152294841D01*
X180387620Y-152298668D01*
X180202480Y-152320164D01*
X180182672Y-152320894D01*
X179996454Y-152313089D01*
X179976776Y-152310704D01*
X179921513Y-152299538D01*
X179884462Y-152285722D01*
X173095557Y-148448045D01*
X173094515Y-148447449D01*
X165147936Y-143854950D01*
X165137211Y-143845487D01*
X165136705Y-143846216D01*
X165120321Y-143834823D01*
X165120320Y-143834822D01*
X165120319Y-143834822D01*
X165119167Y-143834474D01*
X165110961Y-143830919D01*
X165098877Y-143826811D01*
X165081150Y-143822987D01*
X164987831Y-143794778D01*
X164766003Y-143743259D01*
X164765989Y-143743256D01*
X164691077Y-143730938D01*
X164541256Y-143706304D01*
X164541250Y-143706303D01*
X164541241Y-143706302D01*
X164431118Y-143695517D01*
X164427146Y-143695064D01*
X127799222Y-138930266D01*
X127776547Y-138925154D01*
X127774534Y-138924500D01*
X127774531Y-138924500D01*
X127763046Y-138924500D01*
X127746792Y-138923447D01*
X127740827Y-138922671D01*
X127729658Y-138922495D01*
X127679537Y-138917559D01*
X127655312Y-138912741D01*
X127599426Y-138895789D01*
X127576604Y-138886336D01*
X127525105Y-138858809D01*
X127504568Y-138845087D01*
X127465045Y-138812651D01*
X127443176Y-138789495D01*
X123289872Y-133094214D01*
X121398031Y-130499998D01*
X166636732Y-130499998D01*
X166636732Y-130500001D01*
X166655785Y-130814992D01*
X166655786Y-130814995D01*
X166712668Y-131125395D01*
X166806553Y-131426682D01*
X166936060Y-131714435D01*
X166936066Y-131714446D01*
X167099319Y-131984499D01*
X167099322Y-131984504D01*
X167293935Y-132232911D01*
X167293947Y-132232924D01*
X167517075Y-132456052D01*
X167517088Y-132456064D01*
X167765495Y-132650677D01*
X168035554Y-132813934D01*
X168035558Y-132813936D01*
X168035564Y-132813939D01*
X168323317Y-132943446D01*
X168323318Y-132943446D01*
X168323322Y-132943448D01*
X168624604Y-133037331D01*
X168935005Y-133094214D01*
X169145001Y-133106916D01*
X169249999Y-133113268D01*
X169250000Y-133113268D01*
X169250001Y-133113268D01*
X169328748Y-133108504D01*
X169564995Y-133094214D01*
X169875396Y-133037331D01*
X170176678Y-132943448D01*
X170464446Y-132813934D01*
X170734505Y-132650677D01*
X170982917Y-132456059D01*
X171206059Y-132232917D01*
X171400677Y-131984505D01*
X171563934Y-131714446D01*
X171693448Y-131426678D01*
X171787331Y-131125396D01*
X171844214Y-130814995D01*
X171863268Y-130500000D01*
X171844214Y-130185005D01*
X171787331Y-129874604D01*
X171693448Y-129573322D01*
X171563934Y-129285554D01*
X171400677Y-129015495D01*
X171206064Y-128767088D01*
X171206052Y-128767075D01*
X170982924Y-128543947D01*
X170982911Y-128543935D01*
X170734504Y-128349322D01*
X170734499Y-128349319D01*
X170464446Y-128186066D01*
X170464435Y-128186060D01*
X170176682Y-128056553D01*
X169875395Y-127962668D01*
X169564995Y-127905786D01*
X169564992Y-127905785D01*
X169250001Y-127886732D01*
X169249999Y-127886732D01*
X168935007Y-127905785D01*
X168935004Y-127905786D01*
X168624604Y-127962668D01*
X168323317Y-128056553D01*
X168035564Y-128186060D01*
X168035553Y-128186066D01*
X167765500Y-128349319D01*
X167765495Y-128349322D01*
X167517088Y-128543935D01*
X167517075Y-128543947D01*
X167293947Y-128767075D01*
X167293935Y-128767088D01*
X167099322Y-129015495D01*
X167099319Y-129015500D01*
X166936066Y-129285553D01*
X166936060Y-129285564D01*
X166806553Y-129573317D01*
X166712668Y-129874604D01*
X166655786Y-130185004D01*
X166655785Y-130185007D01*
X166636732Y-130499998D01*
X121398031Y-130499998D01*
X116938474Y-124384763D01*
X116928009Y-124367716D01*
X116924286Y-124360407D01*
X116921692Y-124357813D01*
X116918024Y-124354145D01*
X116906027Y-124340123D01*
X116896579Y-124331419D01*
X116896649Y-124331342D01*
X116889951Y-124326071D01*
X116866860Y-124302980D01*
X116772602Y-124239998D01*
X116667867Y-124196616D01*
X116556684Y-124174500D01*
X116556682Y-124174500D01*
X116515018Y-124174500D01*
X61508257Y-124174500D01*
X61491811Y-124173422D01*
X61406579Y-124162201D01*
X61374806Y-124153687D01*
X61303074Y-124123974D01*
X61274589Y-124107529D01*
X61212993Y-124060265D01*
X61189734Y-124037006D01*
X61142470Y-123975410D01*
X61126025Y-123946925D01*
X61096312Y-123875193D01*
X61087798Y-123843419D01*
X61076578Y-123758187D01*
X61075500Y-123741742D01*
X61075500Y-122749998D01*
X120136732Y-122749998D01*
X120136732Y-122750001D01*
X120155785Y-123064992D01*
X120155786Y-123064995D01*
X120212668Y-123375395D01*
X120306553Y-123676682D01*
X120436060Y-123964435D01*
X120436066Y-123964446D01*
X120599319Y-124234499D01*
X120599322Y-124234504D01*
X120793935Y-124482911D01*
X120793947Y-124482924D01*
X121017075Y-124706052D01*
X121017088Y-124706064D01*
X121265495Y-124900677D01*
X121535554Y-125063934D01*
X121535558Y-125063936D01*
X121535564Y-125063939D01*
X121823317Y-125193446D01*
X121823318Y-125193446D01*
X121823322Y-125193448D01*
X122124604Y-125287331D01*
X122435005Y-125344214D01*
X122645001Y-125356916D01*
X122749999Y-125363268D01*
X122750000Y-125363268D01*
X122750001Y-125363268D01*
X122828748Y-125358504D01*
X123064995Y-125344214D01*
X123375396Y-125287331D01*
X123676678Y-125193448D01*
X123964446Y-125063934D01*
X124234505Y-124900677D01*
X124482917Y-124706059D01*
X124706059Y-124482917D01*
X124900677Y-124234505D01*
X125063934Y-123964446D01*
X125193448Y-123676678D01*
X125287331Y-123375396D01*
X125344214Y-123064995D01*
X125363268Y-122750000D01*
X125344214Y-122435005D01*
X125287331Y-122124604D01*
X125193448Y-121823322D01*
X125063934Y-121535554D01*
X124900677Y-121265495D01*
X124706064Y-121017088D01*
X124706052Y-121017075D01*
X124482924Y-120793947D01*
X124482911Y-120793935D01*
X124234504Y-120599322D01*
X124234499Y-120599319D01*
X123964446Y-120436066D01*
X123964435Y-120436060D01*
X123676682Y-120306553D01*
X123375395Y-120212668D01*
X123064995Y-120155786D01*
X123064992Y-120155785D01*
X122750001Y-120136732D01*
X122749999Y-120136732D01*
X122435007Y-120155785D01*
X122435004Y-120155786D01*
X122124604Y-120212668D01*
X121823317Y-120306553D01*
X121535564Y-120436060D01*
X121535553Y-120436066D01*
X121265500Y-120599319D01*
X121265495Y-120599322D01*
X121017088Y-120793935D01*
X121017075Y-120793947D01*
X120793947Y-121017075D01*
X120793935Y-121017088D01*
X120599322Y-121265495D01*
X120599319Y-121265500D01*
X120436066Y-121535553D01*
X120436060Y-121535564D01*
X120306553Y-121823317D01*
X120212668Y-122124604D01*
X120155786Y-122435004D01*
X120155785Y-122435007D01*
X120136732Y-122749998D01*
X61075500Y-122749998D01*
X61075500Y-105499998D01*
X76886732Y-105499998D01*
X76886732Y-105500001D01*
X76905785Y-105814992D01*
X76905786Y-105814995D01*
X76962668Y-106125395D01*
X77056553Y-106426682D01*
X77186060Y-106714435D01*
X77186066Y-106714446D01*
X77349319Y-106984499D01*
X77349322Y-106984504D01*
X77543935Y-107232911D01*
X77543947Y-107232924D01*
X77767075Y-107456052D01*
X77767088Y-107456064D01*
X78015495Y-107650677D01*
X78285554Y-107813934D01*
X78285558Y-107813936D01*
X78285564Y-107813939D01*
X78573317Y-107943446D01*
X78573318Y-107943446D01*
X78573322Y-107943448D01*
X78874604Y-108037331D01*
X79185005Y-108094214D01*
X79395001Y-108106916D01*
X79499999Y-108113268D01*
X79500000Y-108113268D01*
X79500001Y-108113268D01*
X79578748Y-108108504D01*
X79814995Y-108094214D01*
X80125396Y-108037331D01*
X80426678Y-107943448D01*
X80714446Y-107813934D01*
X80984505Y-107650677D01*
X81232917Y-107456059D01*
X81456059Y-107232917D01*
X81650677Y-106984505D01*
X81813934Y-106714446D01*
X81943448Y-106426678D01*
X82037331Y-106125396D01*
X82094214Y-105814995D01*
X82113268Y-105500000D01*
X82094214Y-105185005D01*
X82037331Y-104874604D01*
X81943448Y-104573322D01*
X81813934Y-104285554D01*
X81650677Y-104015495D01*
X81456064Y-103767088D01*
X81456052Y-103767075D01*
X81232924Y-103543947D01*
X81232911Y-103543935D01*
X80984504Y-103349322D01*
X80984499Y-103349319D01*
X80714446Y-103186066D01*
X80714435Y-103186060D01*
X80426682Y-103056553D01*
X80125395Y-102962668D01*
X79814995Y-102905786D01*
X79814992Y-102905785D01*
X79500001Y-102886732D01*
X79499999Y-102886732D01*
X79185007Y-102905785D01*
X79185004Y-102905786D01*
X78874604Y-102962668D01*
X78573317Y-103056553D01*
X78285564Y-103186060D01*
X78285553Y-103186066D01*
X78015500Y-103349319D01*
X78015495Y-103349322D01*
X77767088Y-103543935D01*
X77767075Y-103543947D01*
X77543947Y-103767075D01*
X77543935Y-103767088D01*
X77349322Y-104015495D01*
X77349319Y-104015500D01*
X77186066Y-104285553D01*
X77186060Y-104285564D01*
X77056553Y-104573317D01*
X76962668Y-104874604D01*
X76905786Y-105185004D01*
X76905785Y-105185007D01*
X76886732Y-105499998D01*
X61075500Y-105499998D01*
X61075500Y-86749998D01*
X76886732Y-86749998D01*
X76886732Y-86750001D01*
X76905785Y-87064992D01*
X76905786Y-87064995D01*
X76962668Y-87375395D01*
X77056553Y-87676682D01*
X77186060Y-87964435D01*
X77186066Y-87964446D01*
X77349319Y-88234499D01*
X77349322Y-88234504D01*
X77543935Y-88482911D01*
X77543947Y-88482924D01*
X77767075Y-88706052D01*
X77767088Y-88706064D01*
X78015495Y-88900677D01*
X78285554Y-89063934D01*
X78285558Y-89063936D01*
X78285564Y-89063939D01*
X78573317Y-89193446D01*
X78573318Y-89193446D01*
X78573322Y-89193448D01*
X78874604Y-89287331D01*
X79185005Y-89344214D01*
X79395001Y-89356916D01*
X79499999Y-89363268D01*
X79500000Y-89363268D01*
X79500001Y-89363268D01*
X79578748Y-89358504D01*
X79814995Y-89344214D01*
X80125396Y-89287331D01*
X80426678Y-89193448D01*
X80714446Y-89063934D01*
X80984505Y-88900677D01*
X81232917Y-88706059D01*
X81456059Y-88482917D01*
X81650677Y-88234505D01*
X81813934Y-87964446D01*
X81943448Y-87676678D01*
X82037331Y-87375396D01*
X82094214Y-87064995D01*
X82113268Y-86750000D01*
X82094214Y-86435005D01*
X82037331Y-86124604D01*
X81943448Y-85823322D01*
X81943446Y-85823317D01*
X81813939Y-85535564D01*
X81813933Y-85535553D01*
X81758253Y-85443448D01*
X81650677Y-85265495D01*
X81456064Y-85017088D01*
X81456052Y-85017075D01*
X81232924Y-84793947D01*
X81232911Y-84793935D01*
X80984504Y-84599322D01*
X80984499Y-84599319D01*
X80714446Y-84436066D01*
X80714435Y-84436060D01*
X80426682Y-84306553D01*
X80125395Y-84212668D01*
X79814995Y-84155786D01*
X79814992Y-84155785D01*
X79500001Y-84136732D01*
X79499999Y-84136732D01*
X79185007Y-84155785D01*
X79185004Y-84155786D01*
X78874604Y-84212668D01*
X78573317Y-84306553D01*
X78285564Y-84436060D01*
X78285553Y-84436066D01*
X78015500Y-84599319D01*
X78015495Y-84599322D01*
X77767088Y-84793935D01*
X77767075Y-84793947D01*
X77543947Y-85017075D01*
X77543935Y-85017088D01*
X77349322Y-85265495D01*
X77349319Y-85265500D01*
X77186066Y-85535553D01*
X77186060Y-85535564D01*
X77056553Y-85823317D01*
X76962668Y-86124604D01*
X76905786Y-86435004D01*
X76905785Y-86435007D01*
X76886732Y-86749998D01*
X61075500Y-86749998D01*
X61075500Y-82999998D01*
X152886732Y-82999998D01*
X152886732Y-83000001D01*
X152905785Y-83314992D01*
X152905786Y-83314995D01*
X152962668Y-83625395D01*
X153056553Y-83926682D01*
X153186060Y-84214435D01*
X153186066Y-84214446D01*
X153349319Y-84484499D01*
X153349322Y-84484504D01*
X153543935Y-84732911D01*
X153543947Y-84732924D01*
X153767075Y-84956052D01*
X153767088Y-84956064D01*
X154015495Y-85150677D01*
X154285554Y-85313934D01*
X154285558Y-85313936D01*
X154285564Y-85313939D01*
X154573317Y-85443446D01*
X154573318Y-85443446D01*
X154573322Y-85443448D01*
X154874604Y-85537331D01*
X155185005Y-85594214D01*
X155395001Y-85606916D01*
X155499999Y-85613268D01*
X155500000Y-85613268D01*
X155500001Y-85613268D01*
X155578748Y-85608504D01*
X155814995Y-85594214D01*
X156125396Y-85537331D01*
X156426678Y-85443448D01*
X156714446Y-85313934D01*
X156984505Y-85150677D01*
X157232917Y-84956059D01*
X157456059Y-84732917D01*
X157650677Y-84484505D01*
X157813934Y-84214446D01*
X157943448Y-83926678D01*
X158037331Y-83625396D01*
X158094214Y-83314995D01*
X158113268Y-83000000D01*
X158094214Y-82685005D01*
X158037331Y-82374604D01*
X157943448Y-82073322D01*
X157813934Y-81785554D01*
X157650677Y-81515495D01*
X157456064Y-81267088D01*
X157456052Y-81267075D01*
X157232924Y-81043947D01*
X157232911Y-81043935D01*
X156984504Y-80849322D01*
X156984499Y-80849319D01*
X156714446Y-80686066D01*
X156714435Y-80686060D01*
X156426682Y-80556553D01*
X156125395Y-80462668D01*
X155814995Y-80405786D01*
X155814992Y-80405785D01*
X155500001Y-80386732D01*
X155499999Y-80386732D01*
X155185007Y-80405785D01*
X155185004Y-80405786D01*
X154874604Y-80462668D01*
X154573317Y-80556553D01*
X154285564Y-80686060D01*
X154285553Y-80686066D01*
X154015500Y-80849319D01*
X154015495Y-80849322D01*
X153767088Y-81043935D01*
X153767075Y-81043947D01*
X153543947Y-81267075D01*
X153543935Y-81267088D01*
X153349322Y-81515495D01*
X153349319Y-81515500D01*
X153186066Y-81785553D01*
X153186060Y-81785564D01*
X153056553Y-82073317D01*
X152962668Y-82374604D01*
X152905786Y-82685004D01*
X152905785Y-82685007D01*
X152886732Y-82999998D01*
X61075500Y-82999998D01*
X61075500Y-68508257D01*
X61076578Y-68491812D01*
X61084036Y-68435157D01*
X61087799Y-68406576D01*
X61096312Y-68374806D01*
X61126025Y-68303074D01*
X61142467Y-68274593D01*
X61189738Y-68212988D01*
X61212988Y-68189738D01*
X61274593Y-68142467D01*
X61303074Y-68126025D01*
X61374806Y-68096312D01*
X61406576Y-68087799D01*
X61481982Y-68077871D01*
X61491812Y-68076578D01*
X61508257Y-68075500D01*
X98564840Y-68075500D01*
X98564843Y-68075500D01*
X98691278Y-68046642D01*
X98808122Y-67990374D01*
X98909515Y-67909515D01*
X98990374Y-67808122D01*
X99046642Y-67691278D01*
X99075500Y-67564843D01*
X99075500Y-67500000D01*
X99075500Y-67475469D01*
X99075500Y-63758257D01*
X99076578Y-63741812D01*
X99084036Y-63685157D01*
X99087799Y-63656576D01*
X99096312Y-63624806D01*
X99126025Y-63553074D01*
X99142467Y-63524593D01*
X99189738Y-63462988D01*
X99212988Y-63439738D01*
X99274593Y-63392467D01*
X99303074Y-63376025D01*
X99374806Y-63346312D01*
X99406576Y-63337799D01*
X99481982Y-63327871D01*
X99491812Y-63326578D01*
X99508257Y-63325500D01*
X117564840Y-63325500D01*
X117564843Y-63325500D01*
X117691278Y-63296642D01*
X117808122Y-63240374D01*
X117808126Y-63240371D01*
X117824278Y-63227491D01*
X117890007Y-63200655D01*
X117902839Y-63200000D01*
X118000000Y-63200000D01*
X118000000Y-63066890D01*
X118012477Y-63012223D01*
X118046642Y-62941278D01*
X118075500Y-62814843D01*
X118075500Y-62750000D01*
X118075500Y-62725469D01*
X118075500Y-61508257D01*
X118076578Y-61491812D01*
X118084036Y-61435157D01*
X118087799Y-61406576D01*
X118096312Y-61374806D01*
X118126025Y-61303074D01*
X118142467Y-61274593D01*
X118189738Y-61212988D01*
X118212988Y-61189738D01*
X118274593Y-61142467D01*
X118303074Y-61126025D01*
X118374806Y-61096312D01*
X118406576Y-61087799D01*
X118481982Y-61077871D01*
X118491812Y-61076578D01*
X118508257Y-61075500D01*
X118524531Y-61075500D01*
X135475469Y-61075500D01*
X135491743Y-61075500D01*
X135508188Y-61076578D01*
G37*
G04 #@! TD.AperFunction*
M02*
