%TF.GenerationSoftware,KiCad,Pcbnew,8.0.3*%
%TF.CreationDate,2024-06-14T21:37:35-03:00*%
%TF.ProjectId,corne-bottom-plate,636f726e-652d-4626-9f74-746f6d2d706c,2.1*%
%TF.SameCoordinates,Original*%
%TF.FileFunction,Drillmap*%
%TF.FilePolarity,Positive*%
%FSLAX45Y45*%
G04 Gerber Fmt 4.5, Leading zero omitted, Abs format (unit mm)*
G04 Created by KiCad (PCBNEW 8.0.3) date 2024-06-14 21:37:35*
%MOMM*%
%LPD*%
G01*
G04 APERTURE LIST*
%ADD10C,0.150000*%
%ADD11C,0.200000*%
%ADD12C,0.230000*%
G04 APERTURE END LIST*
D10*
X6150000Y-12425000D02*
G75*
G02*
X6100000Y-12375000I0J50000D01*
G01*
X9850000Y-6800000D02*
X6150000Y-6800000D01*
X13550000Y-6100000D02*
X11850000Y-6100000D01*
X16507500Y-14390000D02*
X17936925Y-15216096D01*
X15450000Y-6325000D02*
G75*
G02*
X15500000Y-6375000I0J-50000D01*
G01*
X11800000Y-6150000D02*
X11800000Y-6275000D01*
X16442056Y-14377034D02*
G75*
G02*
X16507500Y-14390000I-33316J-339806D01*
G01*
X17350000Y-6575000D02*
G75*
G02*
X17400000Y-6625000I0J-50000D01*
G01*
X11650000Y-12425000D02*
X6149999Y-12425000D01*
X9900000Y-6375000D02*
X9900000Y-6750000D01*
X19425000Y-6800000D02*
G75*
G02*
X19475000Y-6850000I0J-50000D01*
G01*
X17450000Y-6800000D02*
G75*
G02*
X17400000Y-6750000I0J50000D01*
G01*
X9900000Y-6750000D02*
G75*
G02*
X9850000Y-6800000I-50000J0D01*
G01*
X11650000Y-12425000D02*
G75*
G02*
X11685355Y-12439645I0J-50000D01*
G01*
X17400000Y-6625000D02*
X17400000Y-6750000D01*
X6100000Y-6850000D02*
G75*
G02*
X6150000Y-6800000I50000J0D01*
G01*
X17350000Y-6575000D02*
X15550000Y-6575000D01*
X11800000Y-6275000D02*
G75*
G02*
X11750000Y-6325000I-50000J0D01*
G01*
X18129726Y-15178146D02*
X19452500Y-12885000D01*
X15550000Y-6575000D02*
G75*
G02*
X15500000Y-6525000I0J50000D01*
G01*
X11750000Y-6325000D02*
X9950000Y-6325000D01*
X15500000Y-6525000D02*
X15500000Y-6375000D01*
X15450000Y-6325000D02*
X13650000Y-6325000D01*
X13550000Y-6100000D02*
G75*
G02*
X13600000Y-6150000I0J-50000D01*
G01*
X6100000Y-6850000D02*
X6100000Y-12375000D01*
X19475000Y-12797500D02*
G75*
G02*
X19452277Y-12884770I-170230J-2270D01*
G01*
X11800000Y-6150000D02*
G75*
G02*
X11850000Y-6100000I50000J0D01*
G01*
X13650000Y-6325000D02*
G75*
G02*
X13600000Y-6275000I0J50000D01*
G01*
X12775000Y-13900000D02*
G75*
G02*
X12739645Y-13885355I0J50000D01*
G01*
X11685355Y-12439645D02*
X12739645Y-13885355D01*
X18129726Y-15178146D02*
G75*
G02*
X17936928Y-15216091I-115296J77047D01*
G01*
X12775000Y-13900000D02*
X16442056Y-14377034D01*
X9900000Y-6375000D02*
G75*
G02*
X9950000Y-6325000I50000J0D01*
G01*
X19425000Y-6800000D02*
X17450000Y-6800000D01*
X13600000Y-6275000D02*
X13600000Y-6150000D01*
X19475000Y-6850000D02*
X19475000Y-12797500D01*
D11*
D12*
X7835000Y-8560000D02*
X8065000Y-8790000D01*
X8065000Y-8560000D02*
X7835000Y-8790000D01*
X7835000Y-10435000D02*
X8065000Y-10665000D01*
X8065000Y-10435000D02*
X7835000Y-10665000D01*
X12160000Y-12160000D02*
X12390000Y-12390000D01*
X12390000Y-12160000D02*
X12160000Y-12390000D01*
X15435000Y-8185000D02*
X15665000Y-8415000D01*
X15665000Y-8185000D02*
X15435000Y-8415000D01*
X16810000Y-12935000D02*
X17040000Y-13165000D01*
X17040000Y-12935000D02*
X16810000Y-13165000D01*
D11*
X6353277Y-15558754D02*
X6353277Y-15358754D01*
X6353277Y-15358754D02*
X6400896Y-15358754D01*
X6400896Y-15358754D02*
X6429467Y-15368278D01*
X6429467Y-15368278D02*
X6448515Y-15387325D01*
X6448515Y-15387325D02*
X6458039Y-15406373D01*
X6458039Y-15406373D02*
X6467562Y-15444468D01*
X6467562Y-15444468D02*
X6467562Y-15473040D01*
X6467562Y-15473040D02*
X6458039Y-15511135D01*
X6458039Y-15511135D02*
X6448515Y-15530182D01*
X6448515Y-15530182D02*
X6429467Y-15549230D01*
X6429467Y-15549230D02*
X6400896Y-15558754D01*
X6400896Y-15558754D02*
X6353277Y-15558754D01*
X6553277Y-15558754D02*
X6553277Y-15425420D01*
X6553277Y-15463516D02*
X6562801Y-15444468D01*
X6562801Y-15444468D02*
X6572324Y-15434944D01*
X6572324Y-15434944D02*
X6591372Y-15425420D01*
X6591372Y-15425420D02*
X6610420Y-15425420D01*
X6677086Y-15558754D02*
X6677086Y-15425420D01*
X6677086Y-15358754D02*
X6667562Y-15368278D01*
X6667562Y-15368278D02*
X6677086Y-15377801D01*
X6677086Y-15377801D02*
X6686610Y-15368278D01*
X6686610Y-15368278D02*
X6677086Y-15358754D01*
X6677086Y-15358754D02*
X6677086Y-15377801D01*
X6800896Y-15558754D02*
X6781848Y-15549230D01*
X6781848Y-15549230D02*
X6772324Y-15530182D01*
X6772324Y-15530182D02*
X6772324Y-15358754D01*
X6905658Y-15558754D02*
X6886610Y-15549230D01*
X6886610Y-15549230D02*
X6877086Y-15530182D01*
X6877086Y-15530182D02*
X6877086Y-15358754D01*
X7134229Y-15558754D02*
X7134229Y-15358754D01*
X7134229Y-15358754D02*
X7200896Y-15501611D01*
X7200896Y-15501611D02*
X7267562Y-15358754D01*
X7267562Y-15358754D02*
X7267562Y-15558754D01*
X7448515Y-15558754D02*
X7448515Y-15453992D01*
X7448515Y-15453992D02*
X7438991Y-15434944D01*
X7438991Y-15434944D02*
X7419943Y-15425420D01*
X7419943Y-15425420D02*
X7381848Y-15425420D01*
X7381848Y-15425420D02*
X7362801Y-15434944D01*
X7448515Y-15549230D02*
X7429467Y-15558754D01*
X7429467Y-15558754D02*
X7381848Y-15558754D01*
X7381848Y-15558754D02*
X7362801Y-15549230D01*
X7362801Y-15549230D02*
X7353277Y-15530182D01*
X7353277Y-15530182D02*
X7353277Y-15511135D01*
X7353277Y-15511135D02*
X7362801Y-15492087D01*
X7362801Y-15492087D02*
X7381848Y-15482563D01*
X7381848Y-15482563D02*
X7429467Y-15482563D01*
X7429467Y-15482563D02*
X7448515Y-15473040D01*
X7543753Y-15425420D02*
X7543753Y-15625420D01*
X7543753Y-15434944D02*
X7562801Y-15425420D01*
X7562801Y-15425420D02*
X7600896Y-15425420D01*
X7600896Y-15425420D02*
X7619943Y-15434944D01*
X7619943Y-15434944D02*
X7629467Y-15444468D01*
X7629467Y-15444468D02*
X7638991Y-15463516D01*
X7638991Y-15463516D02*
X7638991Y-15520659D01*
X7638991Y-15520659D02*
X7629467Y-15539706D01*
X7629467Y-15539706D02*
X7619943Y-15549230D01*
X7619943Y-15549230D02*
X7600896Y-15558754D01*
X7600896Y-15558754D02*
X7562801Y-15558754D01*
X7562801Y-15558754D02*
X7543753Y-15549230D01*
X7724705Y-15539706D02*
X7734229Y-15549230D01*
X7734229Y-15549230D02*
X7724705Y-15558754D01*
X7724705Y-15558754D02*
X7715182Y-15549230D01*
X7715182Y-15549230D02*
X7724705Y-15539706D01*
X7724705Y-15539706D02*
X7724705Y-15558754D01*
X7724705Y-15434944D02*
X7734229Y-15444468D01*
X7734229Y-15444468D02*
X7724705Y-15453992D01*
X7724705Y-15453992D02*
X7715182Y-15444468D01*
X7715182Y-15444468D02*
X7724705Y-15434944D01*
X7724705Y-15434944D02*
X7724705Y-15453992D01*
X5892500Y-15787270D02*
X6092500Y-15987270D01*
X6092500Y-15787270D02*
X5892500Y-15987270D01*
X6343753Y-15797801D02*
X6353277Y-15788278D01*
X6353277Y-15788278D02*
X6372324Y-15778754D01*
X6372324Y-15778754D02*
X6419943Y-15778754D01*
X6419943Y-15778754D02*
X6438991Y-15788278D01*
X6438991Y-15788278D02*
X6448515Y-15797801D01*
X6448515Y-15797801D02*
X6458039Y-15816849D01*
X6458039Y-15816849D02*
X6458039Y-15835897D01*
X6458039Y-15835897D02*
X6448515Y-15864468D01*
X6448515Y-15864468D02*
X6334229Y-15978754D01*
X6334229Y-15978754D02*
X6458039Y-15978754D01*
X6543753Y-15959706D02*
X6553277Y-15969230D01*
X6553277Y-15969230D02*
X6543753Y-15978754D01*
X6543753Y-15978754D02*
X6534229Y-15969230D01*
X6534229Y-15969230D02*
X6543753Y-15959706D01*
X6543753Y-15959706D02*
X6543753Y-15978754D01*
X6619943Y-15778754D02*
X6743753Y-15778754D01*
X6743753Y-15778754D02*
X6677086Y-15854944D01*
X6677086Y-15854944D02*
X6705658Y-15854944D01*
X6705658Y-15854944D02*
X6724705Y-15864468D01*
X6724705Y-15864468D02*
X6734229Y-15873992D01*
X6734229Y-15873992D02*
X6743753Y-15893040D01*
X6743753Y-15893040D02*
X6743753Y-15940659D01*
X6743753Y-15940659D02*
X6734229Y-15959706D01*
X6734229Y-15959706D02*
X6724705Y-15969230D01*
X6724705Y-15969230D02*
X6705658Y-15978754D01*
X6705658Y-15978754D02*
X6648515Y-15978754D01*
X6648515Y-15978754D02*
X6629467Y-15969230D01*
X6629467Y-15969230D02*
X6619943Y-15959706D01*
X6867562Y-15778754D02*
X6886610Y-15778754D01*
X6886610Y-15778754D02*
X6905658Y-15788278D01*
X6905658Y-15788278D02*
X6915182Y-15797801D01*
X6915182Y-15797801D02*
X6924705Y-15816849D01*
X6924705Y-15816849D02*
X6934229Y-15854944D01*
X6934229Y-15854944D02*
X6934229Y-15902563D01*
X6934229Y-15902563D02*
X6924705Y-15940659D01*
X6924705Y-15940659D02*
X6915182Y-15959706D01*
X6915182Y-15959706D02*
X6905658Y-15969230D01*
X6905658Y-15969230D02*
X6886610Y-15978754D01*
X6886610Y-15978754D02*
X6867562Y-15978754D01*
X6867562Y-15978754D02*
X6848515Y-15969230D01*
X6848515Y-15969230D02*
X6838991Y-15959706D01*
X6838991Y-15959706D02*
X6829467Y-15940659D01*
X6829467Y-15940659D02*
X6819943Y-15902563D01*
X6819943Y-15902563D02*
X6819943Y-15854944D01*
X6819943Y-15854944D02*
X6829467Y-15816849D01*
X6829467Y-15816849D02*
X6838991Y-15797801D01*
X6838991Y-15797801D02*
X6848515Y-15788278D01*
X6848515Y-15788278D02*
X6867562Y-15778754D01*
X7058039Y-15778754D02*
X7077086Y-15778754D01*
X7077086Y-15778754D02*
X7096134Y-15788278D01*
X7096134Y-15788278D02*
X7105658Y-15797801D01*
X7105658Y-15797801D02*
X7115182Y-15816849D01*
X7115182Y-15816849D02*
X7124705Y-15854944D01*
X7124705Y-15854944D02*
X7124705Y-15902563D01*
X7124705Y-15902563D02*
X7115182Y-15940659D01*
X7115182Y-15940659D02*
X7105658Y-15959706D01*
X7105658Y-15959706D02*
X7096134Y-15969230D01*
X7096134Y-15969230D02*
X7077086Y-15978754D01*
X7077086Y-15978754D02*
X7058039Y-15978754D01*
X7058039Y-15978754D02*
X7038991Y-15969230D01*
X7038991Y-15969230D02*
X7029467Y-15959706D01*
X7029467Y-15959706D02*
X7019943Y-15940659D01*
X7019943Y-15940659D02*
X7010420Y-15902563D01*
X7010420Y-15902563D02*
X7010420Y-15854944D01*
X7010420Y-15854944D02*
X7019943Y-15816849D01*
X7019943Y-15816849D02*
X7029467Y-15797801D01*
X7029467Y-15797801D02*
X7038991Y-15788278D01*
X7038991Y-15788278D02*
X7058039Y-15778754D01*
X7210420Y-15978754D02*
X7210420Y-15845420D01*
X7210420Y-15864468D02*
X7219943Y-15854944D01*
X7219943Y-15854944D02*
X7238991Y-15845420D01*
X7238991Y-15845420D02*
X7267563Y-15845420D01*
X7267563Y-15845420D02*
X7286610Y-15854944D01*
X7286610Y-15854944D02*
X7296134Y-15873992D01*
X7296134Y-15873992D02*
X7296134Y-15978754D01*
X7296134Y-15873992D02*
X7305658Y-15854944D01*
X7305658Y-15854944D02*
X7324705Y-15845420D01*
X7324705Y-15845420D02*
X7353277Y-15845420D01*
X7353277Y-15845420D02*
X7372324Y-15854944D01*
X7372324Y-15854944D02*
X7381848Y-15873992D01*
X7381848Y-15873992D02*
X7381848Y-15978754D01*
X7477086Y-15978754D02*
X7477086Y-15845420D01*
X7477086Y-15864468D02*
X7486610Y-15854944D01*
X7486610Y-15854944D02*
X7505658Y-15845420D01*
X7505658Y-15845420D02*
X7534229Y-15845420D01*
X7534229Y-15845420D02*
X7553277Y-15854944D01*
X7553277Y-15854944D02*
X7562801Y-15873992D01*
X7562801Y-15873992D02*
X7562801Y-15978754D01*
X7562801Y-15873992D02*
X7572324Y-15854944D01*
X7572324Y-15854944D02*
X7591372Y-15845420D01*
X7591372Y-15845420D02*
X7619943Y-15845420D01*
X7619943Y-15845420D02*
X7638991Y-15854944D01*
X7638991Y-15854944D02*
X7648515Y-15873992D01*
X7648515Y-15873992D02*
X7648515Y-15978754D01*
X8038991Y-15769230D02*
X7867563Y-16026373D01*
X8296134Y-15778754D02*
X8315182Y-15778754D01*
X8315182Y-15778754D02*
X8334229Y-15788278D01*
X8334229Y-15788278D02*
X8343753Y-15797801D01*
X8343753Y-15797801D02*
X8353277Y-15816849D01*
X8353277Y-15816849D02*
X8362801Y-15854944D01*
X8362801Y-15854944D02*
X8362801Y-15902563D01*
X8362801Y-15902563D02*
X8353277Y-15940659D01*
X8353277Y-15940659D02*
X8343753Y-15959706D01*
X8343753Y-15959706D02*
X8334229Y-15969230D01*
X8334229Y-15969230D02*
X8315182Y-15978754D01*
X8315182Y-15978754D02*
X8296134Y-15978754D01*
X8296134Y-15978754D02*
X8277086Y-15969230D01*
X8277086Y-15969230D02*
X8267563Y-15959706D01*
X8267563Y-15959706D02*
X8258039Y-15940659D01*
X8258039Y-15940659D02*
X8248515Y-15902563D01*
X8248515Y-15902563D02*
X8248515Y-15854944D01*
X8248515Y-15854944D02*
X8258039Y-15816849D01*
X8258039Y-15816849D02*
X8267563Y-15797801D01*
X8267563Y-15797801D02*
X8277086Y-15788278D01*
X8277086Y-15788278D02*
X8296134Y-15778754D01*
X8448515Y-15959706D02*
X8458039Y-15969230D01*
X8458039Y-15969230D02*
X8448515Y-15978754D01*
X8448515Y-15978754D02*
X8438991Y-15969230D01*
X8438991Y-15969230D02*
X8448515Y-15959706D01*
X8448515Y-15959706D02*
X8448515Y-15978754D01*
X8581848Y-15778754D02*
X8600896Y-15778754D01*
X8600896Y-15778754D02*
X8619944Y-15788278D01*
X8619944Y-15788278D02*
X8629468Y-15797801D01*
X8629468Y-15797801D02*
X8638991Y-15816849D01*
X8638991Y-15816849D02*
X8648515Y-15854944D01*
X8648515Y-15854944D02*
X8648515Y-15902563D01*
X8648515Y-15902563D02*
X8638991Y-15940659D01*
X8638991Y-15940659D02*
X8629468Y-15959706D01*
X8629468Y-15959706D02*
X8619944Y-15969230D01*
X8619944Y-15969230D02*
X8600896Y-15978754D01*
X8600896Y-15978754D02*
X8581848Y-15978754D01*
X8581848Y-15978754D02*
X8562801Y-15969230D01*
X8562801Y-15969230D02*
X8553277Y-15959706D01*
X8553277Y-15959706D02*
X8543753Y-15940659D01*
X8543753Y-15940659D02*
X8534229Y-15902563D01*
X8534229Y-15902563D02*
X8534229Y-15854944D01*
X8534229Y-15854944D02*
X8543753Y-15816849D01*
X8543753Y-15816849D02*
X8553277Y-15797801D01*
X8553277Y-15797801D02*
X8562801Y-15788278D01*
X8562801Y-15788278D02*
X8581848Y-15778754D01*
X8743753Y-15978754D02*
X8781848Y-15978754D01*
X8781848Y-15978754D02*
X8800896Y-15969230D01*
X8800896Y-15969230D02*
X8810420Y-15959706D01*
X8810420Y-15959706D02*
X8829468Y-15931135D01*
X8829468Y-15931135D02*
X8838991Y-15893040D01*
X8838991Y-15893040D02*
X8838991Y-15816849D01*
X8838991Y-15816849D02*
X8829468Y-15797801D01*
X8829468Y-15797801D02*
X8819944Y-15788278D01*
X8819944Y-15788278D02*
X8800896Y-15778754D01*
X8800896Y-15778754D02*
X8762801Y-15778754D01*
X8762801Y-15778754D02*
X8743753Y-15788278D01*
X8743753Y-15788278D02*
X8734229Y-15797801D01*
X8734229Y-15797801D02*
X8724706Y-15816849D01*
X8724706Y-15816849D02*
X8724706Y-15864468D01*
X8724706Y-15864468D02*
X8734229Y-15883516D01*
X8734229Y-15883516D02*
X8743753Y-15893040D01*
X8743753Y-15893040D02*
X8762801Y-15902563D01*
X8762801Y-15902563D02*
X8800896Y-15902563D01*
X8800896Y-15902563D02*
X8819944Y-15893040D01*
X8819944Y-15893040D02*
X8829468Y-15883516D01*
X8829468Y-15883516D02*
X8838991Y-15864468D01*
X8962801Y-15778754D02*
X8981849Y-15778754D01*
X8981849Y-15778754D02*
X9000896Y-15788278D01*
X9000896Y-15788278D02*
X9010420Y-15797801D01*
X9010420Y-15797801D02*
X9019944Y-15816849D01*
X9019944Y-15816849D02*
X9029468Y-15854944D01*
X9029468Y-15854944D02*
X9029468Y-15902563D01*
X9029468Y-15902563D02*
X9019944Y-15940659D01*
X9019944Y-15940659D02*
X9010420Y-15959706D01*
X9010420Y-15959706D02*
X9000896Y-15969230D01*
X9000896Y-15969230D02*
X8981849Y-15978754D01*
X8981849Y-15978754D02*
X8962801Y-15978754D01*
X8962801Y-15978754D02*
X8943753Y-15969230D01*
X8943753Y-15969230D02*
X8934229Y-15959706D01*
X8934229Y-15959706D02*
X8924706Y-15940659D01*
X8924706Y-15940659D02*
X8915182Y-15902563D01*
X8915182Y-15902563D02*
X8915182Y-15854944D01*
X8915182Y-15854944D02*
X8924706Y-15816849D01*
X8924706Y-15816849D02*
X8934229Y-15797801D01*
X8934229Y-15797801D02*
X8943753Y-15788278D01*
X8943753Y-15788278D02*
X8962801Y-15778754D01*
X9200896Y-15778754D02*
X9162801Y-15778754D01*
X9162801Y-15778754D02*
X9143753Y-15788278D01*
X9143753Y-15788278D02*
X9134229Y-15797801D01*
X9134229Y-15797801D02*
X9115182Y-15826373D01*
X9115182Y-15826373D02*
X9105658Y-15864468D01*
X9105658Y-15864468D02*
X9105658Y-15940659D01*
X9105658Y-15940659D02*
X9115182Y-15959706D01*
X9115182Y-15959706D02*
X9124706Y-15969230D01*
X9124706Y-15969230D02*
X9143753Y-15978754D01*
X9143753Y-15978754D02*
X9181849Y-15978754D01*
X9181849Y-15978754D02*
X9200896Y-15969230D01*
X9200896Y-15969230D02*
X9210420Y-15959706D01*
X9210420Y-15959706D02*
X9219944Y-15940659D01*
X9219944Y-15940659D02*
X9219944Y-15893040D01*
X9219944Y-15893040D02*
X9210420Y-15873992D01*
X9210420Y-15873992D02*
X9200896Y-15864468D01*
X9200896Y-15864468D02*
X9181849Y-15854944D01*
X9181849Y-15854944D02*
X9143753Y-15854944D01*
X9143753Y-15854944D02*
X9124706Y-15864468D01*
X9124706Y-15864468D02*
X9115182Y-15873992D01*
X9115182Y-15873992D02*
X9105658Y-15893040D01*
X9296134Y-15778754D02*
X9296134Y-15816849D01*
X9372325Y-15778754D02*
X9372325Y-15816849D01*
X9667563Y-16054944D02*
X9658039Y-16045420D01*
X9658039Y-16045420D02*
X9638991Y-16016849D01*
X9638991Y-16016849D02*
X9629468Y-15997801D01*
X9629468Y-15997801D02*
X9619944Y-15969230D01*
X9619944Y-15969230D02*
X9610420Y-15921611D01*
X9610420Y-15921611D02*
X9610420Y-15883516D01*
X9610420Y-15883516D02*
X9619944Y-15835897D01*
X9619944Y-15835897D02*
X9629468Y-15807325D01*
X9629468Y-15807325D02*
X9638991Y-15788278D01*
X9638991Y-15788278D02*
X9658039Y-15759706D01*
X9658039Y-15759706D02*
X9667563Y-15750182D01*
X9838991Y-15778754D02*
X9743753Y-15778754D01*
X9743753Y-15778754D02*
X9734230Y-15873992D01*
X9734230Y-15873992D02*
X9743753Y-15864468D01*
X9743753Y-15864468D02*
X9762801Y-15854944D01*
X9762801Y-15854944D02*
X9810420Y-15854944D01*
X9810420Y-15854944D02*
X9829468Y-15864468D01*
X9829468Y-15864468D02*
X9838991Y-15873992D01*
X9838991Y-15873992D02*
X9848515Y-15893040D01*
X9848515Y-15893040D02*
X9848515Y-15940659D01*
X9848515Y-15940659D02*
X9838991Y-15959706D01*
X9838991Y-15959706D02*
X9829468Y-15969230D01*
X9829468Y-15969230D02*
X9810420Y-15978754D01*
X9810420Y-15978754D02*
X9762801Y-15978754D01*
X9762801Y-15978754D02*
X9743753Y-15969230D01*
X9743753Y-15969230D02*
X9734230Y-15959706D01*
X10086611Y-15978754D02*
X10086611Y-15778754D01*
X10172325Y-15978754D02*
X10172325Y-15873992D01*
X10172325Y-15873992D02*
X10162801Y-15854944D01*
X10162801Y-15854944D02*
X10143753Y-15845420D01*
X10143753Y-15845420D02*
X10115182Y-15845420D01*
X10115182Y-15845420D02*
X10096134Y-15854944D01*
X10096134Y-15854944D02*
X10086611Y-15864468D01*
X10296134Y-15978754D02*
X10277087Y-15969230D01*
X10277087Y-15969230D02*
X10267563Y-15959706D01*
X10267563Y-15959706D02*
X10258039Y-15940659D01*
X10258039Y-15940659D02*
X10258039Y-15883516D01*
X10258039Y-15883516D02*
X10267563Y-15864468D01*
X10267563Y-15864468D02*
X10277087Y-15854944D01*
X10277087Y-15854944D02*
X10296134Y-15845420D01*
X10296134Y-15845420D02*
X10324706Y-15845420D01*
X10324706Y-15845420D02*
X10343753Y-15854944D01*
X10343753Y-15854944D02*
X10353277Y-15864468D01*
X10353277Y-15864468D02*
X10362801Y-15883516D01*
X10362801Y-15883516D02*
X10362801Y-15940659D01*
X10362801Y-15940659D02*
X10353277Y-15959706D01*
X10353277Y-15959706D02*
X10343753Y-15969230D01*
X10343753Y-15969230D02*
X10324706Y-15978754D01*
X10324706Y-15978754D02*
X10296134Y-15978754D01*
X10477087Y-15978754D02*
X10458039Y-15969230D01*
X10458039Y-15969230D02*
X10448515Y-15950182D01*
X10448515Y-15950182D02*
X10448515Y-15778754D01*
X10629468Y-15969230D02*
X10610420Y-15978754D01*
X10610420Y-15978754D02*
X10572325Y-15978754D01*
X10572325Y-15978754D02*
X10553277Y-15969230D01*
X10553277Y-15969230D02*
X10543753Y-15950182D01*
X10543753Y-15950182D02*
X10543753Y-15873992D01*
X10543753Y-15873992D02*
X10553277Y-15854944D01*
X10553277Y-15854944D02*
X10572325Y-15845420D01*
X10572325Y-15845420D02*
X10610420Y-15845420D01*
X10610420Y-15845420D02*
X10629468Y-15854944D01*
X10629468Y-15854944D02*
X10638992Y-15873992D01*
X10638992Y-15873992D02*
X10638992Y-15893040D01*
X10638992Y-15893040D02*
X10543753Y-15912087D01*
X10715182Y-15969230D02*
X10734230Y-15978754D01*
X10734230Y-15978754D02*
X10772325Y-15978754D01*
X10772325Y-15978754D02*
X10791373Y-15969230D01*
X10791373Y-15969230D02*
X10800896Y-15950182D01*
X10800896Y-15950182D02*
X10800896Y-15940659D01*
X10800896Y-15940659D02*
X10791373Y-15921611D01*
X10791373Y-15921611D02*
X10772325Y-15912087D01*
X10772325Y-15912087D02*
X10743753Y-15912087D01*
X10743753Y-15912087D02*
X10724706Y-15902563D01*
X10724706Y-15902563D02*
X10715182Y-15883516D01*
X10715182Y-15883516D02*
X10715182Y-15873992D01*
X10715182Y-15873992D02*
X10724706Y-15854944D01*
X10724706Y-15854944D02*
X10743753Y-15845420D01*
X10743753Y-15845420D02*
X10772325Y-15845420D01*
X10772325Y-15845420D02*
X10791373Y-15854944D01*
X10867563Y-16054944D02*
X10877087Y-16045420D01*
X10877087Y-16045420D02*
X10896134Y-16016849D01*
X10896134Y-16016849D02*
X10905658Y-15997801D01*
X10905658Y-15997801D02*
X10915182Y-15969230D01*
X10915182Y-15969230D02*
X10924706Y-15921611D01*
X10924706Y-15921611D02*
X10924706Y-15883516D01*
X10924706Y-15883516D02*
X10915182Y-15835897D01*
X10915182Y-15835897D02*
X10905658Y-15807325D01*
X10905658Y-15807325D02*
X10896134Y-15788278D01*
X10896134Y-15788278D02*
X10877087Y-15759706D01*
X10877087Y-15759706D02*
X10867563Y-15750182D01*
M02*
