M48
; DRILL file {KiCad 8.0.3} date 2024-06-14T22:13:28-0300
; FORMAT={-:-/ absolute / metric / decimal}
; #@! TF.CreationDate,2024-06-14T22:13:28-03:00
; #@! TF.GenerationSoftware,Kicad,Pcbnew,8.0.3
; #@! TF.FileFunction,Plated,1,2,PTH
FMAT,2
METRIC
; #@! TA.AperFunction,Plated,PTH,ViaDrill
T1C0.200
; #@! TA.AperFunction,Plated,PTH,ComponentDrill
T2C0.813
; #@! TA.AperFunction,Plated,PTH,ComponentDrill
T3C1.000
%
G90
G05
T1
X32.023Y-33.24
X32.023Y-52.24
X34.712Y-64.89
X51.023Y-28.49
X51.023Y-47.49
X53.127Y-61.175
X70.022Y-26.115
X70.022Y-45.115
X70.022Y-64.115
X72.087Y-58.45
X79.522Y-86.115
X89.022Y-28.49
X89.022Y-47.49
X89.022Y-66.49
X93.767Y-58.54
X100.007Y-85.205
X108.022Y-30.865
X108.022Y-49.865
X108.022Y-68.865
X113.453Y-59.175
X122.607Y-99.005
X122.707Y-54.18
X124.607Y-59.81
X173.778Y-58.951
X174.522Y-30.865
X174.529Y-49.86
X174.529Y-68.86
X178.222Y-97.91
X179.492Y-58.54
X181.614Y-90.78
X189.207Y-73.18
X193.529Y-28.485
X193.529Y-47.485
X193.529Y-66.485
X203.029Y-86.11
X212.529Y-26.11
X212.529Y-45.11
X212.529Y-64.11
X231.234Y-58.513
X231.529Y-28.485
X231.529Y-47.485
X231.529Y-66.485
X249.127Y-61.761
X250.529Y-33.235
X250.529Y-52.235
X268.108Y-60.445
X269.529Y-33.235
X269.529Y-52.235
T2
X127.316Y-31.942
X127.316Y-34.482
X127.316Y-37.022
X127.316Y-39.562
X127.316Y-42.102
X127.316Y-44.642
X127.316Y-47.182
X127.316Y-49.722
X127.316Y-52.262
X127.316Y-54.802
X127.316Y-57.342
X127.316Y-59.882
X131.124Y-67.02
X133.664Y-67.02
X136.204Y-67.02
X138.744Y-67.02
X142.535Y-31.942
X142.535Y-34.482
X142.535Y-37.022
X142.535Y-39.562
X142.535Y-42.102
X142.535Y-44.642
X142.535Y-47.182
X142.535Y-49.722
X142.535Y-52.262
X142.535Y-54.802
X142.535Y-57.342
X142.535Y-59.882
X154.379Y-31.912
X154.379Y-34.452
X154.379Y-36.992
X154.379Y-39.532
X154.379Y-42.072
X154.379Y-44.612
X154.379Y-47.152
X154.379Y-49.692
X154.379Y-52.232
X154.379Y-54.772
X154.379Y-57.312
X154.379Y-59.852
X158.188Y-67.02
X160.727Y-67.02
X163.267Y-67.02
X165.808Y-67.02
X169.599Y-31.912
X169.599Y-34.452
X169.599Y-36.992
X169.599Y-39.532
X169.599Y-42.072
X169.599Y-44.612
X169.599Y-47.152
X169.599Y-49.692
X169.599Y-52.232
X169.599Y-54.772
X169.599Y-57.312
X169.599Y-59.852
T3
X127.34Y-28.974
X142.56Y-28.974
X154.404Y-28.974
X169.599Y-28.974
M30
