G04 #@! TF.GenerationSoftware,KiCad,Pcbnew,8.0.3*
G04 #@! TF.CreationDate,2024-06-14T22:13:16-03:00*
G04 #@! TF.ProjectId,corne-cherry,636f726e-652d-4636-9865-7272792e6b69,3.0.1*
G04 #@! TF.SameCoordinates,Original*
G04 #@! TF.FileFunction,Legend,Bot*
G04 #@! TF.FilePolarity,Positive*
%FSLAX46Y46*%
G04 Gerber Fmt 4.6, Leading zero omitted, Abs format (unit mm)*
G04 Created by KiCad (PCBNEW 8.0.3) date 2024-06-14 22:13:16*
%MOMM*%
%LPD*%
G01*
G04 APERTURE LIST*
%ADD10C,0.200000*%
%ADD11C,0.500000*%
%ADD12C,0.150000*%
%ADD13C,0.300000*%
%ADD14C,0.800000*%
%ADD15C,3.000000*%
%ADD16C,3.500000*%
%ADD17C,1.000000*%
%ADD18C,0.400000*%
G04 APERTURE END LIST*
D10*
X99483063Y-57320671D02*
X99554491Y-57392100D01*
X99554491Y-57392100D02*
X99768777Y-57463528D01*
X99768777Y-57463528D02*
X99911634Y-57463528D01*
X99911634Y-57463528D02*
X100125920Y-57392100D01*
X100125920Y-57392100D02*
X100268777Y-57249242D01*
X100268777Y-57249242D02*
X100340206Y-57106385D01*
X100340206Y-57106385D02*
X100411634Y-56820671D01*
X100411634Y-56820671D02*
X100411634Y-56606385D01*
X100411634Y-56606385D02*
X100340206Y-56320671D01*
X100340206Y-56320671D02*
X100268777Y-56177814D01*
X100268777Y-56177814D02*
X100125920Y-56034957D01*
X100125920Y-56034957D02*
X99911634Y-55963528D01*
X99911634Y-55963528D02*
X99768777Y-55963528D01*
X99768777Y-55963528D02*
X99554491Y-56034957D01*
X99554491Y-56034957D02*
X99483063Y-56106385D01*
X98625920Y-57463528D02*
X98768777Y-57392100D01*
X98768777Y-57392100D02*
X98840206Y-57320671D01*
X98840206Y-57320671D02*
X98911634Y-57177814D01*
X98911634Y-57177814D02*
X98911634Y-56749242D01*
X98911634Y-56749242D02*
X98840206Y-56606385D01*
X98840206Y-56606385D02*
X98768777Y-56534957D01*
X98768777Y-56534957D02*
X98625920Y-56463528D01*
X98625920Y-56463528D02*
X98411634Y-56463528D01*
X98411634Y-56463528D02*
X98268777Y-56534957D01*
X98268777Y-56534957D02*
X98197349Y-56606385D01*
X98197349Y-56606385D02*
X98125920Y-56749242D01*
X98125920Y-56749242D02*
X98125920Y-57177814D01*
X98125920Y-57177814D02*
X98197349Y-57320671D01*
X98197349Y-57320671D02*
X98268777Y-57392100D01*
X98268777Y-57392100D02*
X98411634Y-57463528D01*
X98411634Y-57463528D02*
X98625920Y-57463528D01*
X97483063Y-57463528D02*
X97483063Y-56463528D01*
X97483063Y-56749242D02*
X97411634Y-56606385D01*
X97411634Y-56606385D02*
X97340206Y-56534957D01*
X97340206Y-56534957D02*
X97197348Y-56463528D01*
X97197348Y-56463528D02*
X97054491Y-56463528D01*
X96554492Y-56463528D02*
X96554492Y-57463528D01*
X96554492Y-56606385D02*
X96483063Y-56534957D01*
X96483063Y-56534957D02*
X96340206Y-56463528D01*
X96340206Y-56463528D02*
X96125920Y-56463528D01*
X96125920Y-56463528D02*
X95983063Y-56534957D01*
X95983063Y-56534957D02*
X95911635Y-56677814D01*
X95911635Y-56677814D02*
X95911635Y-57463528D01*
X94625920Y-57392100D02*
X94768777Y-57463528D01*
X94768777Y-57463528D02*
X95054492Y-57463528D01*
X95054492Y-57463528D02*
X95197349Y-57392100D01*
X95197349Y-57392100D02*
X95268777Y-57249242D01*
X95268777Y-57249242D02*
X95268777Y-56677814D01*
X95268777Y-56677814D02*
X95197349Y-56534957D01*
X95197349Y-56534957D02*
X95054492Y-56463528D01*
X95054492Y-56463528D02*
X94768777Y-56463528D01*
X94768777Y-56463528D02*
X94625920Y-56534957D01*
X94625920Y-56534957D02*
X94554492Y-56677814D01*
X94554492Y-56677814D02*
X94554492Y-56820671D01*
X94554492Y-56820671D02*
X95268777Y-56963528D01*
X92983063Y-55963528D02*
X92483063Y-57463528D01*
X92483063Y-57463528D02*
X91983063Y-55963528D01*
X91625921Y-55963528D02*
X90697349Y-55963528D01*
X90697349Y-55963528D02*
X91197349Y-56534957D01*
X91197349Y-56534957D02*
X90983064Y-56534957D01*
X90983064Y-56534957D02*
X90840207Y-56606385D01*
X90840207Y-56606385D02*
X90768778Y-56677814D01*
X90768778Y-56677814D02*
X90697349Y-56820671D01*
X90697349Y-56820671D02*
X90697349Y-57177814D01*
X90697349Y-57177814D02*
X90768778Y-57320671D01*
X90768778Y-57320671D02*
X90840207Y-57392100D01*
X90840207Y-57392100D02*
X90983064Y-57463528D01*
X90983064Y-57463528D02*
X91411635Y-57463528D01*
X91411635Y-57463528D02*
X91554492Y-57392100D01*
X91554492Y-57392100D02*
X91625921Y-57320671D01*
X88911636Y-57463528D02*
X88911636Y-55963528D01*
X88911636Y-55963528D02*
X88411636Y-57034957D01*
X88411636Y-57034957D02*
X87911636Y-55963528D01*
X87911636Y-55963528D02*
X87911636Y-57463528D01*
X86983064Y-57463528D02*
X87125921Y-57392100D01*
X87125921Y-57392100D02*
X87197350Y-57320671D01*
X87197350Y-57320671D02*
X87268778Y-57177814D01*
X87268778Y-57177814D02*
X87268778Y-56749242D01*
X87268778Y-56749242D02*
X87197350Y-56606385D01*
X87197350Y-56606385D02*
X87125921Y-56534957D01*
X87125921Y-56534957D02*
X86983064Y-56463528D01*
X86983064Y-56463528D02*
X86768778Y-56463528D01*
X86768778Y-56463528D02*
X86625921Y-56534957D01*
X86625921Y-56534957D02*
X86554493Y-56606385D01*
X86554493Y-56606385D02*
X86483064Y-56749242D01*
X86483064Y-56749242D02*
X86483064Y-57177814D01*
X86483064Y-57177814D02*
X86554493Y-57320671D01*
X86554493Y-57320671D02*
X86625921Y-57392100D01*
X86625921Y-57392100D02*
X86768778Y-57463528D01*
X86768778Y-57463528D02*
X86983064Y-57463528D01*
X85197350Y-57463528D02*
X85197350Y-55963528D01*
X85197350Y-57392100D02*
X85340207Y-57463528D01*
X85340207Y-57463528D02*
X85625921Y-57463528D01*
X85625921Y-57463528D02*
X85768778Y-57392100D01*
X85768778Y-57392100D02*
X85840207Y-57320671D01*
X85840207Y-57320671D02*
X85911635Y-57177814D01*
X85911635Y-57177814D02*
X85911635Y-56749242D01*
X85911635Y-56749242D02*
X85840207Y-56606385D01*
X85840207Y-56606385D02*
X85768778Y-56534957D01*
X85768778Y-56534957D02*
X85625921Y-56463528D01*
X85625921Y-56463528D02*
X85340207Y-56463528D01*
X85340207Y-56463528D02*
X85197350Y-56534957D01*
X84483064Y-57463528D02*
X84483064Y-56463528D01*
X84483064Y-55963528D02*
X84554492Y-56034957D01*
X84554492Y-56034957D02*
X84483064Y-56106385D01*
X84483064Y-56106385D02*
X84411635Y-56034957D01*
X84411635Y-56034957D02*
X84483064Y-55963528D01*
X84483064Y-55963528D02*
X84483064Y-56106385D01*
X83983063Y-56463528D02*
X83411635Y-56463528D01*
X83768778Y-57463528D02*
X83768778Y-56177814D01*
X83768778Y-56177814D02*
X83697349Y-56034957D01*
X83697349Y-56034957D02*
X83554492Y-55963528D01*
X83554492Y-55963528D02*
X83411635Y-55963528D01*
X82911635Y-57463528D02*
X82911635Y-56463528D01*
X82911635Y-55963528D02*
X82983063Y-56034957D01*
X82983063Y-56034957D02*
X82911635Y-56106385D01*
X82911635Y-56106385D02*
X82840206Y-56034957D01*
X82840206Y-56034957D02*
X82911635Y-55963528D01*
X82911635Y-55963528D02*
X82911635Y-56106385D01*
X81625920Y-57392100D02*
X81768777Y-57463528D01*
X81768777Y-57463528D02*
X82054492Y-57463528D01*
X82054492Y-57463528D02*
X82197349Y-57392100D01*
X82197349Y-57392100D02*
X82268777Y-57249242D01*
X82268777Y-57249242D02*
X82268777Y-56677814D01*
X82268777Y-56677814D02*
X82197349Y-56534957D01*
X82197349Y-56534957D02*
X82054492Y-56463528D01*
X82054492Y-56463528D02*
X81768777Y-56463528D01*
X81768777Y-56463528D02*
X81625920Y-56534957D01*
X81625920Y-56534957D02*
X81554492Y-56677814D01*
X81554492Y-56677814D02*
X81554492Y-56820671D01*
X81554492Y-56820671D02*
X82268777Y-56963528D01*
X80268778Y-57463528D02*
X80268778Y-55963528D01*
X80268778Y-57392100D02*
X80411635Y-57463528D01*
X80411635Y-57463528D02*
X80697349Y-57463528D01*
X80697349Y-57463528D02*
X80840206Y-57392100D01*
X80840206Y-57392100D02*
X80911635Y-57320671D01*
X80911635Y-57320671D02*
X80983063Y-57177814D01*
X80983063Y-57177814D02*
X80983063Y-56749242D01*
X80983063Y-56749242D02*
X80911635Y-56606385D01*
X80911635Y-56606385D02*
X80840206Y-56534957D01*
X80840206Y-56534957D02*
X80697349Y-56463528D01*
X80697349Y-56463528D02*
X80411635Y-56463528D01*
X80411635Y-56463528D02*
X80268778Y-56534957D01*
X78411635Y-57463528D02*
X78411635Y-55963528D01*
X78411635Y-56534957D02*
X78268778Y-56463528D01*
X78268778Y-56463528D02*
X77983063Y-56463528D01*
X77983063Y-56463528D02*
X77840206Y-56534957D01*
X77840206Y-56534957D02*
X77768778Y-56606385D01*
X77768778Y-56606385D02*
X77697349Y-56749242D01*
X77697349Y-56749242D02*
X77697349Y-57177814D01*
X77697349Y-57177814D02*
X77768778Y-57320671D01*
X77768778Y-57320671D02*
X77840206Y-57392100D01*
X77840206Y-57392100D02*
X77983063Y-57463528D01*
X77983063Y-57463528D02*
X78268778Y-57463528D01*
X78268778Y-57463528D02*
X78411635Y-57392100D01*
X77197349Y-56463528D02*
X76840206Y-57463528D01*
X76483063Y-56463528D02*
X76840206Y-57463528D01*
X76840206Y-57463528D02*
X76983063Y-57820671D01*
X76983063Y-57820671D02*
X77054492Y-57892100D01*
X77054492Y-57892100D02*
X77197349Y-57963528D01*
X74840206Y-56106385D02*
X74768778Y-56034957D01*
X74768778Y-56034957D02*
X74625921Y-55963528D01*
X74625921Y-55963528D02*
X74268778Y-55963528D01*
X74268778Y-55963528D02*
X74125921Y-56034957D01*
X74125921Y-56034957D02*
X74054492Y-56106385D01*
X74054492Y-56106385D02*
X73983063Y-56249242D01*
X73983063Y-56249242D02*
X73983063Y-56392100D01*
X73983063Y-56392100D02*
X74054492Y-56606385D01*
X74054492Y-56606385D02*
X74911635Y-57463528D01*
X74911635Y-57463528D02*
X73983063Y-57463528D01*
X72697350Y-56463528D02*
X72697350Y-57463528D01*
X73054492Y-55892100D02*
X73411635Y-56963528D01*
X73411635Y-56963528D02*
X72483064Y-56963528D01*
X71911636Y-57463528D02*
X71911636Y-55963528D01*
X71268779Y-57463528D02*
X71268779Y-56677814D01*
X71268779Y-56677814D02*
X71340207Y-56534957D01*
X71340207Y-56534957D02*
X71483064Y-56463528D01*
X71483064Y-56463528D02*
X71697350Y-56463528D01*
X71697350Y-56463528D02*
X71840207Y-56534957D01*
X71840207Y-56534957D02*
X71911636Y-56606385D01*
X70340207Y-57463528D02*
X70483064Y-57392100D01*
X70483064Y-57392100D02*
X70554493Y-57320671D01*
X70554493Y-57320671D02*
X70625921Y-57177814D01*
X70625921Y-57177814D02*
X70625921Y-56749242D01*
X70625921Y-56749242D02*
X70554493Y-56606385D01*
X70554493Y-56606385D02*
X70483064Y-56534957D01*
X70483064Y-56534957D02*
X70340207Y-56463528D01*
X70340207Y-56463528D02*
X70125921Y-56463528D01*
X70125921Y-56463528D02*
X69983064Y-56534957D01*
X69983064Y-56534957D02*
X69911636Y-56606385D01*
X69911636Y-56606385D02*
X69840207Y-56749242D01*
X69840207Y-56749242D02*
X69840207Y-57177814D01*
X69840207Y-57177814D02*
X69911636Y-57320671D01*
X69911636Y-57320671D02*
X69983064Y-57392100D01*
X69983064Y-57392100D02*
X70125921Y-57463528D01*
X70125921Y-57463528D02*
X70340207Y-57463528D01*
X69197350Y-57463528D02*
X69197350Y-56463528D01*
X69197350Y-56749242D02*
X69125921Y-56606385D01*
X69125921Y-56606385D02*
X69054493Y-56534957D01*
X69054493Y-56534957D02*
X68911635Y-56463528D01*
X68911635Y-56463528D02*
X68768778Y-56463528D01*
X67625922Y-57463528D02*
X67625922Y-56677814D01*
X67625922Y-56677814D02*
X67697350Y-56534957D01*
X67697350Y-56534957D02*
X67840207Y-56463528D01*
X67840207Y-56463528D02*
X68125922Y-56463528D01*
X68125922Y-56463528D02*
X68268779Y-56534957D01*
X67625922Y-57392100D02*
X67768779Y-57463528D01*
X67768779Y-57463528D02*
X68125922Y-57463528D01*
X68125922Y-57463528D02*
X68268779Y-57392100D01*
X68268779Y-57392100D02*
X68340207Y-57249242D01*
X68340207Y-57249242D02*
X68340207Y-57106385D01*
X68340207Y-57106385D02*
X68268779Y-56963528D01*
X68268779Y-56963528D02*
X68125922Y-56892100D01*
X68125922Y-56892100D02*
X67768779Y-56892100D01*
X67768779Y-56892100D02*
X67625922Y-56820671D01*
X65125922Y-57463528D02*
X65125922Y-56677814D01*
X65125922Y-56677814D02*
X65197350Y-56534957D01*
X65197350Y-56534957D02*
X65340207Y-56463528D01*
X65340207Y-56463528D02*
X65625922Y-56463528D01*
X65625922Y-56463528D02*
X65768779Y-56534957D01*
X65125922Y-57392100D02*
X65268779Y-57463528D01*
X65268779Y-57463528D02*
X65625922Y-57463528D01*
X65625922Y-57463528D02*
X65768779Y-57392100D01*
X65768779Y-57392100D02*
X65840207Y-57249242D01*
X65840207Y-57249242D02*
X65840207Y-57106385D01*
X65840207Y-57106385D02*
X65768779Y-56963528D01*
X65768779Y-56963528D02*
X65625922Y-56892100D01*
X65625922Y-56892100D02*
X65268779Y-56892100D01*
X65268779Y-56892100D02*
X65125922Y-56820671D01*
X64411636Y-56463528D02*
X64411636Y-57463528D01*
X64411636Y-56606385D02*
X64340207Y-56534957D01*
X64340207Y-56534957D02*
X64197350Y-56463528D01*
X64197350Y-56463528D02*
X63983064Y-56463528D01*
X63983064Y-56463528D02*
X63840207Y-56534957D01*
X63840207Y-56534957D02*
X63768779Y-56677814D01*
X63768779Y-56677814D02*
X63768779Y-57463528D01*
X62411636Y-57463528D02*
X62411636Y-55963528D01*
X62411636Y-57392100D02*
X62554493Y-57463528D01*
X62554493Y-57463528D02*
X62840207Y-57463528D01*
X62840207Y-57463528D02*
X62983064Y-57392100D01*
X62983064Y-57392100D02*
X63054493Y-57320671D01*
X63054493Y-57320671D02*
X63125921Y-57177814D01*
X63125921Y-57177814D02*
X63125921Y-56749242D01*
X63125921Y-56749242D02*
X63054493Y-56606385D01*
X63054493Y-56606385D02*
X62983064Y-56534957D01*
X62983064Y-56534957D02*
X62840207Y-56463528D01*
X62840207Y-56463528D02*
X62554493Y-56463528D01*
X62554493Y-56463528D02*
X62411636Y-56534957D01*
X60054493Y-56677814D02*
X60554493Y-56677814D01*
X60554493Y-57463528D02*
X60554493Y-55963528D01*
X60554493Y-55963528D02*
X59840207Y-55963528D01*
X58697350Y-57392100D02*
X58840207Y-57463528D01*
X58840207Y-57463528D02*
X59125922Y-57463528D01*
X59125922Y-57463528D02*
X59268779Y-57392100D01*
X59268779Y-57392100D02*
X59340207Y-57249242D01*
X59340207Y-57249242D02*
X59340207Y-56677814D01*
X59340207Y-56677814D02*
X59268779Y-56534957D01*
X59268779Y-56534957D02*
X59125922Y-56463528D01*
X59125922Y-56463528D02*
X58840207Y-56463528D01*
X58840207Y-56463528D02*
X58697350Y-56534957D01*
X58697350Y-56534957D02*
X58625922Y-56677814D01*
X58625922Y-56677814D02*
X58625922Y-56820671D01*
X58625922Y-56820671D02*
X59340207Y-56963528D01*
X57768779Y-57463528D02*
X57911636Y-57392100D01*
X57911636Y-57392100D02*
X57983065Y-57249242D01*
X57983065Y-57249242D02*
X57983065Y-55963528D01*
X57411636Y-55963528D02*
X56554494Y-55963528D01*
X56983065Y-57463528D02*
X56983065Y-55963528D01*
X55483065Y-57392100D02*
X55625922Y-57463528D01*
X55625922Y-57463528D02*
X55911637Y-57463528D01*
X55911637Y-57463528D02*
X56054494Y-57392100D01*
X56054494Y-57392100D02*
X56125922Y-57249242D01*
X56125922Y-57249242D02*
X56125922Y-56677814D01*
X56125922Y-56677814D02*
X56054494Y-56534957D01*
X56054494Y-56534957D02*
X55911637Y-56463528D01*
X55911637Y-56463528D02*
X55625922Y-56463528D01*
X55625922Y-56463528D02*
X55483065Y-56534957D01*
X55483065Y-56534957D02*
X55411637Y-56677814D01*
X55411637Y-56677814D02*
X55411637Y-56820671D01*
X55411637Y-56820671D02*
X56125922Y-56963528D01*
X54554494Y-57463528D02*
X54697351Y-57392100D01*
X54697351Y-57392100D02*
X54768780Y-57249242D01*
X54768780Y-57249242D02*
X54768780Y-55963528D01*
X53768780Y-57463528D02*
X53911637Y-57392100D01*
X53911637Y-57392100D02*
X53983066Y-57249242D01*
X53983066Y-57249242D02*
X53983066Y-55963528D01*
X241990063Y-57320671D02*
X242061491Y-57392100D01*
X242061491Y-57392100D02*
X242275777Y-57463528D01*
X242275777Y-57463528D02*
X242418634Y-57463528D01*
X242418634Y-57463528D02*
X242632920Y-57392100D01*
X242632920Y-57392100D02*
X242775777Y-57249242D01*
X242775777Y-57249242D02*
X242847206Y-57106385D01*
X242847206Y-57106385D02*
X242918634Y-56820671D01*
X242918634Y-56820671D02*
X242918634Y-56606385D01*
X242918634Y-56606385D02*
X242847206Y-56320671D01*
X242847206Y-56320671D02*
X242775777Y-56177814D01*
X242775777Y-56177814D02*
X242632920Y-56034957D01*
X242632920Y-56034957D02*
X242418634Y-55963528D01*
X242418634Y-55963528D02*
X242275777Y-55963528D01*
X242275777Y-55963528D02*
X242061491Y-56034957D01*
X242061491Y-56034957D02*
X241990063Y-56106385D01*
X241132920Y-57463528D02*
X241275777Y-57392100D01*
X241275777Y-57392100D02*
X241347206Y-57320671D01*
X241347206Y-57320671D02*
X241418634Y-57177814D01*
X241418634Y-57177814D02*
X241418634Y-56749242D01*
X241418634Y-56749242D02*
X241347206Y-56606385D01*
X241347206Y-56606385D02*
X241275777Y-56534957D01*
X241275777Y-56534957D02*
X241132920Y-56463528D01*
X241132920Y-56463528D02*
X240918634Y-56463528D01*
X240918634Y-56463528D02*
X240775777Y-56534957D01*
X240775777Y-56534957D02*
X240704349Y-56606385D01*
X240704349Y-56606385D02*
X240632920Y-56749242D01*
X240632920Y-56749242D02*
X240632920Y-57177814D01*
X240632920Y-57177814D02*
X240704349Y-57320671D01*
X240704349Y-57320671D02*
X240775777Y-57392100D01*
X240775777Y-57392100D02*
X240918634Y-57463528D01*
X240918634Y-57463528D02*
X241132920Y-57463528D01*
X239990063Y-57463528D02*
X239990063Y-56463528D01*
X239990063Y-56749242D02*
X239918634Y-56606385D01*
X239918634Y-56606385D02*
X239847206Y-56534957D01*
X239847206Y-56534957D02*
X239704348Y-56463528D01*
X239704348Y-56463528D02*
X239561491Y-56463528D01*
X239061492Y-56463528D02*
X239061492Y-57463528D01*
X239061492Y-56606385D02*
X238990063Y-56534957D01*
X238990063Y-56534957D02*
X238847206Y-56463528D01*
X238847206Y-56463528D02*
X238632920Y-56463528D01*
X238632920Y-56463528D02*
X238490063Y-56534957D01*
X238490063Y-56534957D02*
X238418635Y-56677814D01*
X238418635Y-56677814D02*
X238418635Y-57463528D01*
X237132920Y-57392100D02*
X237275777Y-57463528D01*
X237275777Y-57463528D02*
X237561492Y-57463528D01*
X237561492Y-57463528D02*
X237704349Y-57392100D01*
X237704349Y-57392100D02*
X237775777Y-57249242D01*
X237775777Y-57249242D02*
X237775777Y-56677814D01*
X237775777Y-56677814D02*
X237704349Y-56534957D01*
X237704349Y-56534957D02*
X237561492Y-56463528D01*
X237561492Y-56463528D02*
X237275777Y-56463528D01*
X237275777Y-56463528D02*
X237132920Y-56534957D01*
X237132920Y-56534957D02*
X237061492Y-56677814D01*
X237061492Y-56677814D02*
X237061492Y-56820671D01*
X237061492Y-56820671D02*
X237775777Y-56963528D01*
X235490063Y-55963528D02*
X234990063Y-57463528D01*
X234990063Y-57463528D02*
X234490063Y-55963528D01*
X234132921Y-55963528D02*
X233204349Y-55963528D01*
X233204349Y-55963528D02*
X233704349Y-56534957D01*
X233704349Y-56534957D02*
X233490064Y-56534957D01*
X233490064Y-56534957D02*
X233347207Y-56606385D01*
X233347207Y-56606385D02*
X233275778Y-56677814D01*
X233275778Y-56677814D02*
X233204349Y-56820671D01*
X233204349Y-56820671D02*
X233204349Y-57177814D01*
X233204349Y-57177814D02*
X233275778Y-57320671D01*
X233275778Y-57320671D02*
X233347207Y-57392100D01*
X233347207Y-57392100D02*
X233490064Y-57463528D01*
X233490064Y-57463528D02*
X233918635Y-57463528D01*
X233918635Y-57463528D02*
X234061492Y-57392100D01*
X234061492Y-57392100D02*
X234132921Y-57320671D01*
X231418636Y-57463528D02*
X231418636Y-55963528D01*
X231418636Y-55963528D02*
X230918636Y-57034957D01*
X230918636Y-57034957D02*
X230418636Y-55963528D01*
X230418636Y-55963528D02*
X230418636Y-57463528D01*
X229490064Y-57463528D02*
X229632921Y-57392100D01*
X229632921Y-57392100D02*
X229704350Y-57320671D01*
X229704350Y-57320671D02*
X229775778Y-57177814D01*
X229775778Y-57177814D02*
X229775778Y-56749242D01*
X229775778Y-56749242D02*
X229704350Y-56606385D01*
X229704350Y-56606385D02*
X229632921Y-56534957D01*
X229632921Y-56534957D02*
X229490064Y-56463528D01*
X229490064Y-56463528D02*
X229275778Y-56463528D01*
X229275778Y-56463528D02*
X229132921Y-56534957D01*
X229132921Y-56534957D02*
X229061493Y-56606385D01*
X229061493Y-56606385D02*
X228990064Y-56749242D01*
X228990064Y-56749242D02*
X228990064Y-57177814D01*
X228990064Y-57177814D02*
X229061493Y-57320671D01*
X229061493Y-57320671D02*
X229132921Y-57392100D01*
X229132921Y-57392100D02*
X229275778Y-57463528D01*
X229275778Y-57463528D02*
X229490064Y-57463528D01*
X227704350Y-57463528D02*
X227704350Y-55963528D01*
X227704350Y-57392100D02*
X227847207Y-57463528D01*
X227847207Y-57463528D02*
X228132921Y-57463528D01*
X228132921Y-57463528D02*
X228275778Y-57392100D01*
X228275778Y-57392100D02*
X228347207Y-57320671D01*
X228347207Y-57320671D02*
X228418635Y-57177814D01*
X228418635Y-57177814D02*
X228418635Y-56749242D01*
X228418635Y-56749242D02*
X228347207Y-56606385D01*
X228347207Y-56606385D02*
X228275778Y-56534957D01*
X228275778Y-56534957D02*
X228132921Y-56463528D01*
X228132921Y-56463528D02*
X227847207Y-56463528D01*
X227847207Y-56463528D02*
X227704350Y-56534957D01*
X226990064Y-57463528D02*
X226990064Y-56463528D01*
X226990064Y-55963528D02*
X227061492Y-56034957D01*
X227061492Y-56034957D02*
X226990064Y-56106385D01*
X226990064Y-56106385D02*
X226918635Y-56034957D01*
X226918635Y-56034957D02*
X226990064Y-55963528D01*
X226990064Y-55963528D02*
X226990064Y-56106385D01*
X226490063Y-56463528D02*
X225918635Y-56463528D01*
X226275778Y-57463528D02*
X226275778Y-56177814D01*
X226275778Y-56177814D02*
X226204349Y-56034957D01*
X226204349Y-56034957D02*
X226061492Y-55963528D01*
X226061492Y-55963528D02*
X225918635Y-55963528D01*
X225418635Y-57463528D02*
X225418635Y-56463528D01*
X225418635Y-55963528D02*
X225490063Y-56034957D01*
X225490063Y-56034957D02*
X225418635Y-56106385D01*
X225418635Y-56106385D02*
X225347206Y-56034957D01*
X225347206Y-56034957D02*
X225418635Y-55963528D01*
X225418635Y-55963528D02*
X225418635Y-56106385D01*
X224132920Y-57392100D02*
X224275777Y-57463528D01*
X224275777Y-57463528D02*
X224561492Y-57463528D01*
X224561492Y-57463528D02*
X224704349Y-57392100D01*
X224704349Y-57392100D02*
X224775777Y-57249242D01*
X224775777Y-57249242D02*
X224775777Y-56677814D01*
X224775777Y-56677814D02*
X224704349Y-56534957D01*
X224704349Y-56534957D02*
X224561492Y-56463528D01*
X224561492Y-56463528D02*
X224275777Y-56463528D01*
X224275777Y-56463528D02*
X224132920Y-56534957D01*
X224132920Y-56534957D02*
X224061492Y-56677814D01*
X224061492Y-56677814D02*
X224061492Y-56820671D01*
X224061492Y-56820671D02*
X224775777Y-56963528D01*
X222775778Y-57463528D02*
X222775778Y-55963528D01*
X222775778Y-57392100D02*
X222918635Y-57463528D01*
X222918635Y-57463528D02*
X223204349Y-57463528D01*
X223204349Y-57463528D02*
X223347206Y-57392100D01*
X223347206Y-57392100D02*
X223418635Y-57320671D01*
X223418635Y-57320671D02*
X223490063Y-57177814D01*
X223490063Y-57177814D02*
X223490063Y-56749242D01*
X223490063Y-56749242D02*
X223418635Y-56606385D01*
X223418635Y-56606385D02*
X223347206Y-56534957D01*
X223347206Y-56534957D02*
X223204349Y-56463528D01*
X223204349Y-56463528D02*
X222918635Y-56463528D01*
X222918635Y-56463528D02*
X222775778Y-56534957D01*
X220918635Y-57463528D02*
X220918635Y-55963528D01*
X220918635Y-56534957D02*
X220775778Y-56463528D01*
X220775778Y-56463528D02*
X220490063Y-56463528D01*
X220490063Y-56463528D02*
X220347206Y-56534957D01*
X220347206Y-56534957D02*
X220275778Y-56606385D01*
X220275778Y-56606385D02*
X220204349Y-56749242D01*
X220204349Y-56749242D02*
X220204349Y-57177814D01*
X220204349Y-57177814D02*
X220275778Y-57320671D01*
X220275778Y-57320671D02*
X220347206Y-57392100D01*
X220347206Y-57392100D02*
X220490063Y-57463528D01*
X220490063Y-57463528D02*
X220775778Y-57463528D01*
X220775778Y-57463528D02*
X220918635Y-57392100D01*
X219704349Y-56463528D02*
X219347206Y-57463528D01*
X218990063Y-56463528D02*
X219347206Y-57463528D01*
X219347206Y-57463528D02*
X219490063Y-57820671D01*
X219490063Y-57820671D02*
X219561492Y-57892100D01*
X219561492Y-57892100D02*
X219704349Y-57963528D01*
X217347206Y-56106385D02*
X217275778Y-56034957D01*
X217275778Y-56034957D02*
X217132921Y-55963528D01*
X217132921Y-55963528D02*
X216775778Y-55963528D01*
X216775778Y-55963528D02*
X216632921Y-56034957D01*
X216632921Y-56034957D02*
X216561492Y-56106385D01*
X216561492Y-56106385D02*
X216490063Y-56249242D01*
X216490063Y-56249242D02*
X216490063Y-56392100D01*
X216490063Y-56392100D02*
X216561492Y-56606385D01*
X216561492Y-56606385D02*
X217418635Y-57463528D01*
X217418635Y-57463528D02*
X216490063Y-57463528D01*
X215204350Y-56463528D02*
X215204350Y-57463528D01*
X215561492Y-55892100D02*
X215918635Y-56963528D01*
X215918635Y-56963528D02*
X214990064Y-56963528D01*
X214418636Y-57463528D02*
X214418636Y-55963528D01*
X213775779Y-57463528D02*
X213775779Y-56677814D01*
X213775779Y-56677814D02*
X213847207Y-56534957D01*
X213847207Y-56534957D02*
X213990064Y-56463528D01*
X213990064Y-56463528D02*
X214204350Y-56463528D01*
X214204350Y-56463528D02*
X214347207Y-56534957D01*
X214347207Y-56534957D02*
X214418636Y-56606385D01*
X212847207Y-57463528D02*
X212990064Y-57392100D01*
X212990064Y-57392100D02*
X213061493Y-57320671D01*
X213061493Y-57320671D02*
X213132921Y-57177814D01*
X213132921Y-57177814D02*
X213132921Y-56749242D01*
X213132921Y-56749242D02*
X213061493Y-56606385D01*
X213061493Y-56606385D02*
X212990064Y-56534957D01*
X212990064Y-56534957D02*
X212847207Y-56463528D01*
X212847207Y-56463528D02*
X212632921Y-56463528D01*
X212632921Y-56463528D02*
X212490064Y-56534957D01*
X212490064Y-56534957D02*
X212418636Y-56606385D01*
X212418636Y-56606385D02*
X212347207Y-56749242D01*
X212347207Y-56749242D02*
X212347207Y-57177814D01*
X212347207Y-57177814D02*
X212418636Y-57320671D01*
X212418636Y-57320671D02*
X212490064Y-57392100D01*
X212490064Y-57392100D02*
X212632921Y-57463528D01*
X212632921Y-57463528D02*
X212847207Y-57463528D01*
X211704350Y-57463528D02*
X211704350Y-56463528D01*
X211704350Y-56749242D02*
X211632921Y-56606385D01*
X211632921Y-56606385D02*
X211561493Y-56534957D01*
X211561493Y-56534957D02*
X211418635Y-56463528D01*
X211418635Y-56463528D02*
X211275778Y-56463528D01*
X210132922Y-57463528D02*
X210132922Y-56677814D01*
X210132922Y-56677814D02*
X210204350Y-56534957D01*
X210204350Y-56534957D02*
X210347207Y-56463528D01*
X210347207Y-56463528D02*
X210632922Y-56463528D01*
X210632922Y-56463528D02*
X210775779Y-56534957D01*
X210132922Y-57392100D02*
X210275779Y-57463528D01*
X210275779Y-57463528D02*
X210632922Y-57463528D01*
X210632922Y-57463528D02*
X210775779Y-57392100D01*
X210775779Y-57392100D02*
X210847207Y-57249242D01*
X210847207Y-57249242D02*
X210847207Y-57106385D01*
X210847207Y-57106385D02*
X210775779Y-56963528D01*
X210775779Y-56963528D02*
X210632922Y-56892100D01*
X210632922Y-56892100D02*
X210275779Y-56892100D01*
X210275779Y-56892100D02*
X210132922Y-56820671D01*
X207632922Y-57463528D02*
X207632922Y-56677814D01*
X207632922Y-56677814D02*
X207704350Y-56534957D01*
X207704350Y-56534957D02*
X207847207Y-56463528D01*
X207847207Y-56463528D02*
X208132922Y-56463528D01*
X208132922Y-56463528D02*
X208275779Y-56534957D01*
X207632922Y-57392100D02*
X207775779Y-57463528D01*
X207775779Y-57463528D02*
X208132922Y-57463528D01*
X208132922Y-57463528D02*
X208275779Y-57392100D01*
X208275779Y-57392100D02*
X208347207Y-57249242D01*
X208347207Y-57249242D02*
X208347207Y-57106385D01*
X208347207Y-57106385D02*
X208275779Y-56963528D01*
X208275779Y-56963528D02*
X208132922Y-56892100D01*
X208132922Y-56892100D02*
X207775779Y-56892100D01*
X207775779Y-56892100D02*
X207632922Y-56820671D01*
X206918636Y-56463528D02*
X206918636Y-57463528D01*
X206918636Y-56606385D02*
X206847207Y-56534957D01*
X206847207Y-56534957D02*
X206704350Y-56463528D01*
X206704350Y-56463528D02*
X206490064Y-56463528D01*
X206490064Y-56463528D02*
X206347207Y-56534957D01*
X206347207Y-56534957D02*
X206275779Y-56677814D01*
X206275779Y-56677814D02*
X206275779Y-57463528D01*
X204918636Y-57463528D02*
X204918636Y-55963528D01*
X204918636Y-57392100D02*
X205061493Y-57463528D01*
X205061493Y-57463528D02*
X205347207Y-57463528D01*
X205347207Y-57463528D02*
X205490064Y-57392100D01*
X205490064Y-57392100D02*
X205561493Y-57320671D01*
X205561493Y-57320671D02*
X205632921Y-57177814D01*
X205632921Y-57177814D02*
X205632921Y-56749242D01*
X205632921Y-56749242D02*
X205561493Y-56606385D01*
X205561493Y-56606385D02*
X205490064Y-56534957D01*
X205490064Y-56534957D02*
X205347207Y-56463528D01*
X205347207Y-56463528D02*
X205061493Y-56463528D01*
X205061493Y-56463528D02*
X204918636Y-56534957D01*
X202561493Y-56677814D02*
X203061493Y-56677814D01*
X203061493Y-57463528D02*
X203061493Y-55963528D01*
X203061493Y-55963528D02*
X202347207Y-55963528D01*
X201204350Y-57392100D02*
X201347207Y-57463528D01*
X201347207Y-57463528D02*
X201632922Y-57463528D01*
X201632922Y-57463528D02*
X201775779Y-57392100D01*
X201775779Y-57392100D02*
X201847207Y-57249242D01*
X201847207Y-57249242D02*
X201847207Y-56677814D01*
X201847207Y-56677814D02*
X201775779Y-56534957D01*
X201775779Y-56534957D02*
X201632922Y-56463528D01*
X201632922Y-56463528D02*
X201347207Y-56463528D01*
X201347207Y-56463528D02*
X201204350Y-56534957D01*
X201204350Y-56534957D02*
X201132922Y-56677814D01*
X201132922Y-56677814D02*
X201132922Y-56820671D01*
X201132922Y-56820671D02*
X201847207Y-56963528D01*
X200275779Y-57463528D02*
X200418636Y-57392100D01*
X200418636Y-57392100D02*
X200490065Y-57249242D01*
X200490065Y-57249242D02*
X200490065Y-55963528D01*
X199918636Y-55963528D02*
X199061494Y-55963528D01*
X199490065Y-57463528D02*
X199490065Y-55963528D01*
X197990065Y-57392100D02*
X198132922Y-57463528D01*
X198132922Y-57463528D02*
X198418637Y-57463528D01*
X198418637Y-57463528D02*
X198561494Y-57392100D01*
X198561494Y-57392100D02*
X198632922Y-57249242D01*
X198632922Y-57249242D02*
X198632922Y-56677814D01*
X198632922Y-56677814D02*
X198561494Y-56534957D01*
X198561494Y-56534957D02*
X198418637Y-56463528D01*
X198418637Y-56463528D02*
X198132922Y-56463528D01*
X198132922Y-56463528D02*
X197990065Y-56534957D01*
X197990065Y-56534957D02*
X197918637Y-56677814D01*
X197918637Y-56677814D02*
X197918637Y-56820671D01*
X197918637Y-56820671D02*
X198632922Y-56963528D01*
X197061494Y-57463528D02*
X197204351Y-57392100D01*
X197204351Y-57392100D02*
X197275780Y-57249242D01*
X197275780Y-57249242D02*
X197275780Y-55963528D01*
X196275780Y-57463528D02*
X196418637Y-57392100D01*
X196418637Y-57392100D02*
X196490066Y-57249242D01*
X196490066Y-57249242D02*
X196490066Y-55963528D01*
D11*
X60078553Y-81919000D02*
X60364267Y-82061857D01*
X60364267Y-82061857D02*
X60935695Y-82061857D01*
X60935695Y-82061857D02*
X61221410Y-81919000D01*
X61221410Y-81919000D02*
X61364267Y-81776142D01*
X61364267Y-81776142D02*
X61507124Y-81490428D01*
X61507124Y-81490428D02*
X61507124Y-80633285D01*
X61507124Y-80633285D02*
X61364267Y-80347571D01*
X61364267Y-80347571D02*
X61221410Y-80204714D01*
X61221410Y-80204714D02*
X60935695Y-80061857D01*
X60935695Y-80061857D02*
X60364267Y-80061857D01*
X60364267Y-80061857D02*
X60078553Y-80204714D01*
X58364266Y-82061857D02*
X58649981Y-81919000D01*
X58649981Y-81919000D02*
X58792838Y-81776142D01*
X58792838Y-81776142D02*
X58935695Y-81490428D01*
X58935695Y-81490428D02*
X58935695Y-80633285D01*
X58935695Y-80633285D02*
X58792838Y-80347571D01*
X58792838Y-80347571D02*
X58649981Y-80204714D01*
X58649981Y-80204714D02*
X58364266Y-80061857D01*
X58364266Y-80061857D02*
X57935695Y-80061857D01*
X57935695Y-80061857D02*
X57649981Y-80204714D01*
X57649981Y-80204714D02*
X57507124Y-80347571D01*
X57507124Y-80347571D02*
X57364266Y-80633285D01*
X57364266Y-80633285D02*
X57364266Y-81490428D01*
X57364266Y-81490428D02*
X57507124Y-81776142D01*
X57507124Y-81776142D02*
X57649981Y-81919000D01*
X57649981Y-81919000D02*
X57935695Y-82061857D01*
X57935695Y-82061857D02*
X58364266Y-82061857D01*
X56078552Y-82061857D02*
X56078552Y-80061857D01*
X56078552Y-80633285D02*
X55935695Y-80347571D01*
X55935695Y-80347571D02*
X55792838Y-80204714D01*
X55792838Y-80204714D02*
X55507123Y-80061857D01*
X55507123Y-80061857D02*
X55221409Y-80061857D01*
X54649980Y-80061857D02*
X53507123Y-80061857D01*
X54221409Y-79061857D02*
X54221409Y-81633285D01*
X54221409Y-81633285D02*
X54078552Y-81919000D01*
X54078552Y-81919000D02*
X53792837Y-82061857D01*
X53792837Y-82061857D02*
X53507123Y-82061857D01*
X241478553Y-81794000D02*
X241764267Y-81936857D01*
X241764267Y-81936857D02*
X242335695Y-81936857D01*
X242335695Y-81936857D02*
X242621410Y-81794000D01*
X242621410Y-81794000D02*
X242764267Y-81651142D01*
X242764267Y-81651142D02*
X242907124Y-81365428D01*
X242907124Y-81365428D02*
X242907124Y-80508285D01*
X242907124Y-80508285D02*
X242764267Y-80222571D01*
X242764267Y-80222571D02*
X242621410Y-80079714D01*
X242621410Y-80079714D02*
X242335695Y-79936857D01*
X242335695Y-79936857D02*
X241764267Y-79936857D01*
X241764267Y-79936857D02*
X241478553Y-80079714D01*
X239764266Y-81936857D02*
X240049981Y-81794000D01*
X240049981Y-81794000D02*
X240192838Y-81651142D01*
X240192838Y-81651142D02*
X240335695Y-81365428D01*
X240335695Y-81365428D02*
X240335695Y-80508285D01*
X240335695Y-80508285D02*
X240192838Y-80222571D01*
X240192838Y-80222571D02*
X240049981Y-80079714D01*
X240049981Y-80079714D02*
X239764266Y-79936857D01*
X239764266Y-79936857D02*
X239335695Y-79936857D01*
X239335695Y-79936857D02*
X239049981Y-80079714D01*
X239049981Y-80079714D02*
X238907124Y-80222571D01*
X238907124Y-80222571D02*
X238764266Y-80508285D01*
X238764266Y-80508285D02*
X238764266Y-81365428D01*
X238764266Y-81365428D02*
X238907124Y-81651142D01*
X238907124Y-81651142D02*
X239049981Y-81794000D01*
X239049981Y-81794000D02*
X239335695Y-81936857D01*
X239335695Y-81936857D02*
X239764266Y-81936857D01*
X237478552Y-81936857D02*
X237478552Y-79936857D01*
X237478552Y-80508285D02*
X237335695Y-80222571D01*
X237335695Y-80222571D02*
X237192838Y-80079714D01*
X237192838Y-80079714D02*
X236907123Y-79936857D01*
X236907123Y-79936857D02*
X236621409Y-79936857D01*
X236049980Y-79936857D02*
X234907123Y-79936857D01*
X235621409Y-78936857D02*
X235621409Y-81508285D01*
X235621409Y-81508285D02*
X235478552Y-81794000D01*
X235478552Y-81794000D02*
X235192837Y-81936857D01*
X235192837Y-81936857D02*
X234907123Y-81936857D01*
D12*
X33207500Y-31080000D02*
X33207500Y-31830000D01*
X33207500Y-31830000D02*
X33407500Y-31830000D01*
D13*
X33307500Y-31730000D02*
X33307500Y-31080000D01*
D12*
X33457500Y-30230000D02*
X33457500Y-34680000D01*
X33457500Y-34680000D02*
X36487500Y-34680000D01*
D11*
X33657500Y-34480000D02*
X36107500Y-34480000D01*
D14*
X33807500Y-34180000D02*
X33807500Y-32380001D01*
D15*
X34937500Y-30680000D02*
X34937500Y-32920000D01*
D12*
X38707500Y-32780000D02*
X43507500Y-32780000D01*
D16*
X41707500Y-30980000D02*
X35007500Y-30980000D01*
D17*
X43007500Y-29780000D02*
X43007500Y-32280000D01*
D11*
X43307500Y-32530000D02*
X42007500Y-32480000D01*
D18*
X43357500Y-29380000D02*
X42107500Y-29380000D01*
D12*
X43487500Y-31780000D02*
X43487500Y-29530000D01*
X43507500Y-29180000D02*
X35307499Y-29180000D01*
X43507500Y-32780000D02*
X43507500Y-29180000D01*
X33207500Y-31080001D02*
G75*
G02*
X35307499Y-29179999I1999999J-99997D01*
G01*
D17*
X36091182Y-34258529D02*
G75*
G02*
X38307500Y-32380000I2151317J-291470D01*
G01*
D12*
X36491182Y-34658529D02*
G75*
G02*
X38707500Y-32780000I2151317J-291470D01*
G01*
X52207500Y-26330000D02*
X52207500Y-27080000D01*
X52207500Y-27080000D02*
X52407500Y-27080000D01*
D13*
X52307500Y-26980000D02*
X52307500Y-26330000D01*
D12*
X52457500Y-25480000D02*
X52457500Y-29930000D01*
X52457500Y-29930000D02*
X55487500Y-29930000D01*
D11*
X52657500Y-29730000D02*
X55107500Y-29730000D01*
D14*
X52807500Y-29430000D02*
X52807500Y-27630001D01*
D15*
X53937500Y-25930000D02*
X53937500Y-28170000D01*
D12*
X57707500Y-28030000D02*
X62507500Y-28030000D01*
D16*
X60707500Y-26230000D02*
X54007500Y-26230000D01*
D17*
X62007500Y-25030000D02*
X62007500Y-27530000D01*
D11*
X62307500Y-27780000D02*
X61007500Y-27730000D01*
D18*
X62357500Y-24630000D02*
X61107500Y-24630000D01*
D12*
X62487500Y-27030000D02*
X62487500Y-24780000D01*
X62507500Y-24430000D02*
X54307499Y-24430000D01*
X62507500Y-28030000D02*
X62507500Y-24430000D01*
X52207500Y-26330001D02*
G75*
G02*
X54307499Y-24429999I1999999J-99997D01*
G01*
D17*
X55091182Y-29508529D02*
G75*
G02*
X57307500Y-27630000I2151317J-291470D01*
G01*
D12*
X55491182Y-29908529D02*
G75*
G02*
X57707500Y-28030000I2151317J-291470D01*
G01*
X71207500Y-23955000D02*
X71207500Y-24705000D01*
X71207500Y-24705000D02*
X71407500Y-24705000D01*
D13*
X71307500Y-24605000D02*
X71307500Y-23955000D01*
D12*
X71457500Y-23105000D02*
X71457500Y-27555000D01*
X71457500Y-27555000D02*
X74487500Y-27555000D01*
D11*
X71657500Y-27355000D02*
X74107500Y-27355000D01*
D14*
X71807500Y-27055000D02*
X71807500Y-25255001D01*
D15*
X72937500Y-23555000D02*
X72937500Y-25795000D01*
D12*
X76707500Y-25655000D02*
X81507500Y-25655000D01*
D16*
X79707500Y-23855000D02*
X73007500Y-23855000D01*
D17*
X81007500Y-22655000D02*
X81007500Y-25155000D01*
D11*
X81307500Y-25405000D02*
X80007500Y-25355000D01*
D18*
X81357500Y-22255000D02*
X80107500Y-22255000D01*
D12*
X81487500Y-24655000D02*
X81487500Y-22405000D01*
X81507500Y-22055000D02*
X73307499Y-22055000D01*
X81507500Y-25655000D02*
X81507500Y-22055000D01*
X71207500Y-23955001D02*
G75*
G02*
X73307499Y-22054999I1999999J-99997D01*
G01*
D17*
X74091182Y-27133529D02*
G75*
G02*
X76307500Y-25255000I2151317J-291470D01*
G01*
D12*
X74491182Y-27533529D02*
G75*
G02*
X76707500Y-25655000I2151317J-291470D01*
G01*
X90207500Y-26330000D02*
X90207500Y-27080000D01*
X90207500Y-27080000D02*
X90407500Y-27080000D01*
D13*
X90307500Y-26980000D02*
X90307500Y-26330000D01*
D12*
X90457500Y-25480000D02*
X90457500Y-29930000D01*
X90457500Y-29930000D02*
X93487500Y-29930000D01*
D11*
X90657500Y-29730000D02*
X93107500Y-29730000D01*
D14*
X90807500Y-29430000D02*
X90807500Y-27630001D01*
D15*
X91937500Y-25930000D02*
X91937500Y-28170000D01*
D12*
X95707500Y-28030000D02*
X100507500Y-28030000D01*
D16*
X98707500Y-26230000D02*
X92007500Y-26230000D01*
D17*
X100007500Y-25030000D02*
X100007500Y-27530000D01*
D11*
X100307500Y-27780000D02*
X99007500Y-27730000D01*
D18*
X100357500Y-24630000D02*
X99107500Y-24630000D01*
D12*
X100487500Y-27030000D02*
X100487500Y-24780000D01*
X100507500Y-24430000D02*
X92307499Y-24430000D01*
X100507500Y-28030000D02*
X100507500Y-24430000D01*
X90207500Y-26330001D02*
G75*
G02*
X92307499Y-24429999I1999999J-99997D01*
G01*
D17*
X93091182Y-29508529D02*
G75*
G02*
X95307500Y-27630000I2151317J-291470D01*
G01*
D12*
X93491182Y-29908529D02*
G75*
G02*
X95707500Y-28030000I2151317J-291470D01*
G01*
X14207500Y-50080000D02*
X14207500Y-50830000D01*
X14207500Y-50830000D02*
X14407500Y-50830000D01*
D13*
X14307500Y-50730000D02*
X14307500Y-50080000D01*
D12*
X14457500Y-49230000D02*
X14457500Y-53680000D01*
X14457500Y-53680000D02*
X17487500Y-53680000D01*
D11*
X14657500Y-53480000D02*
X17107500Y-53480000D01*
D14*
X14807500Y-53180000D02*
X14807500Y-51380001D01*
D15*
X15937500Y-49680000D02*
X15937500Y-51920000D01*
D12*
X19707500Y-51780000D02*
X24507500Y-51780000D01*
D16*
X22707500Y-49980000D02*
X16007500Y-49980000D01*
D17*
X24007500Y-48780000D02*
X24007500Y-51280000D01*
D11*
X24307500Y-51530000D02*
X23007500Y-51480000D01*
D18*
X24357500Y-48380000D02*
X23107500Y-48380000D01*
D12*
X24487500Y-50780000D02*
X24487500Y-48530000D01*
X24507500Y-48180000D02*
X16307499Y-48180000D01*
X24507500Y-51780000D02*
X24507500Y-48180000D01*
X14207500Y-50080001D02*
G75*
G02*
X16307499Y-48179999I1999999J-99997D01*
G01*
D17*
X17091182Y-53258529D02*
G75*
G02*
X19307500Y-51380000I2151317J-291470D01*
G01*
D12*
X17491182Y-53658529D02*
G75*
G02*
X19707500Y-51780000I2151317J-291470D01*
G01*
X33207500Y-50080000D02*
X33207500Y-50830000D01*
X33207500Y-50830000D02*
X33407500Y-50830000D01*
D13*
X33307500Y-50730000D02*
X33307500Y-50080000D01*
D12*
X33457500Y-49230000D02*
X33457500Y-53680000D01*
X33457500Y-53680000D02*
X36487500Y-53680000D01*
D11*
X33657500Y-53480000D02*
X36107500Y-53480000D01*
D14*
X33807500Y-53180000D02*
X33807500Y-51380001D01*
D15*
X34937500Y-49680000D02*
X34937500Y-51920000D01*
D12*
X38707500Y-51780000D02*
X43507500Y-51780000D01*
D16*
X41707500Y-49980000D02*
X35007500Y-49980000D01*
D17*
X43007500Y-48780000D02*
X43007500Y-51280000D01*
D11*
X43307500Y-51530000D02*
X42007500Y-51480000D01*
D18*
X43357500Y-48380000D02*
X42107500Y-48380000D01*
D12*
X43487500Y-50780000D02*
X43487500Y-48530000D01*
X43507500Y-48180000D02*
X35307499Y-48180000D01*
X43507500Y-51780000D02*
X43507500Y-48180000D01*
X33207500Y-50080001D02*
G75*
G02*
X35307499Y-48179999I1999999J-99997D01*
G01*
D17*
X36091182Y-53258529D02*
G75*
G02*
X38307500Y-51380000I2151317J-291470D01*
G01*
D12*
X36491182Y-53658529D02*
G75*
G02*
X38707500Y-51780000I2151317J-291470D01*
G01*
X52207500Y-45330000D02*
X52207500Y-46080000D01*
X52207500Y-46080000D02*
X52407500Y-46080000D01*
D13*
X52307500Y-45980000D02*
X52307500Y-45330000D01*
D12*
X52457500Y-44480000D02*
X52457500Y-48930000D01*
X52457500Y-48930000D02*
X55487500Y-48930000D01*
D11*
X52657500Y-48730000D02*
X55107500Y-48730000D01*
D14*
X52807500Y-48430000D02*
X52807500Y-46630001D01*
D15*
X53937500Y-44930000D02*
X53937500Y-47170000D01*
D12*
X57707500Y-47030000D02*
X62507500Y-47030000D01*
D16*
X60707500Y-45230000D02*
X54007500Y-45230000D01*
D17*
X62007500Y-44030000D02*
X62007500Y-46530000D01*
D11*
X62307500Y-46780000D02*
X61007500Y-46730000D01*
D18*
X62357500Y-43630000D02*
X61107500Y-43630000D01*
D12*
X62487500Y-46030000D02*
X62487500Y-43780000D01*
X62507500Y-43430000D02*
X54307499Y-43430000D01*
X62507500Y-47030000D02*
X62507500Y-43430000D01*
X52207500Y-45330001D02*
G75*
G02*
X54307499Y-43429999I1999999J-99997D01*
G01*
D17*
X55091182Y-48508529D02*
G75*
G02*
X57307500Y-46630000I2151317J-291470D01*
G01*
D12*
X55491182Y-48908529D02*
G75*
G02*
X57707500Y-47030000I2151317J-291470D01*
G01*
X71207500Y-43028363D02*
X71207500Y-43778363D01*
X71207500Y-43778363D02*
X71407500Y-43778363D01*
D13*
X71307500Y-43678363D02*
X71307500Y-43028363D01*
D12*
X71457500Y-42178363D02*
X71457500Y-46628363D01*
X71457500Y-46628363D02*
X74487500Y-46628363D01*
D11*
X71657500Y-46428363D02*
X74107500Y-46428363D01*
D14*
X71807500Y-46128363D02*
X71807500Y-44328364D01*
D15*
X72937500Y-42628363D02*
X72937500Y-44868363D01*
D12*
X76707500Y-44728363D02*
X81507500Y-44728363D01*
D16*
X79707500Y-42928363D02*
X73007500Y-42928363D01*
D17*
X81007500Y-41728363D02*
X81007500Y-44228363D01*
D11*
X81307500Y-44478363D02*
X80007500Y-44428363D01*
D18*
X81357500Y-41328363D02*
X80107500Y-41328363D01*
D12*
X81487500Y-43728363D02*
X81487500Y-41478363D01*
X81507500Y-41128363D02*
X73307499Y-41128363D01*
X81507500Y-44728363D02*
X81507500Y-41128363D01*
X71207500Y-43028364D02*
G75*
G02*
X73307499Y-41128362I1999999J-99997D01*
G01*
D17*
X74091182Y-46206892D02*
G75*
G02*
X76307500Y-44328363I2151317J-291470D01*
G01*
D12*
X74491182Y-46606892D02*
G75*
G02*
X76707500Y-44728363I2151317J-291470D01*
G01*
X90207500Y-45330000D02*
X90207500Y-46080000D01*
X90207500Y-46080000D02*
X90407500Y-46080000D01*
D13*
X90307500Y-45980000D02*
X90307500Y-45330000D01*
D12*
X90457500Y-44480000D02*
X90457500Y-48930000D01*
X90457500Y-48930000D02*
X93487500Y-48930000D01*
D11*
X90657500Y-48730000D02*
X93107500Y-48730000D01*
D14*
X90807500Y-48430000D02*
X90807500Y-46630001D01*
D15*
X91937500Y-44930000D02*
X91937500Y-47170000D01*
D12*
X95707500Y-47030000D02*
X100507500Y-47030000D01*
D16*
X98707500Y-45230000D02*
X92007500Y-45230000D01*
D17*
X100007500Y-44030000D02*
X100007500Y-46530000D01*
D11*
X100307500Y-46780000D02*
X99007500Y-46730000D01*
D18*
X100357500Y-43630000D02*
X99107500Y-43630000D01*
D12*
X100487500Y-46030000D02*
X100487500Y-43780000D01*
X100507500Y-43430000D02*
X92307499Y-43430000D01*
X100507500Y-47030000D02*
X100507500Y-43430000D01*
X90207500Y-45330001D02*
G75*
G02*
X92307499Y-43429999I1999999J-99997D01*
G01*
D17*
X93091182Y-48508529D02*
G75*
G02*
X95307500Y-46630000I2151317J-291470D01*
G01*
D12*
X93491182Y-48908529D02*
G75*
G02*
X95707500Y-47030000I2151317J-291470D01*
G01*
X109207500Y-47705000D02*
X109207500Y-48455000D01*
X109207500Y-48455000D02*
X109407500Y-48455000D01*
D13*
X109307500Y-48355000D02*
X109307500Y-47705000D01*
D12*
X109457500Y-46855000D02*
X109457500Y-51305000D01*
X109457500Y-51305000D02*
X112487500Y-51305000D01*
D11*
X109657500Y-51105000D02*
X112107500Y-51105000D01*
D14*
X109807500Y-50805000D02*
X109807500Y-49005001D01*
D15*
X110937500Y-47305000D02*
X110937500Y-49545000D01*
D12*
X114707500Y-49405000D02*
X119507500Y-49405000D01*
D16*
X117707500Y-47605000D02*
X111007500Y-47605000D01*
D17*
X119007500Y-46405000D02*
X119007500Y-48905000D01*
D11*
X119307500Y-49155000D02*
X118007500Y-49105000D01*
D18*
X119357500Y-46005000D02*
X118107500Y-46005000D01*
D12*
X119487500Y-48405000D02*
X119487500Y-46155000D01*
X119507500Y-45805000D02*
X111307499Y-45805000D01*
X119507500Y-49405000D02*
X119507500Y-45805000D01*
X109207500Y-47705001D02*
G75*
G02*
X111307499Y-45804999I1999999J-99997D01*
G01*
D17*
X112091182Y-50883529D02*
G75*
G02*
X114307500Y-49005000I2151317J-291470D01*
G01*
D12*
X112491182Y-51283529D02*
G75*
G02*
X114707500Y-49405000I2151317J-291470D01*
G01*
X14207500Y-69080000D02*
X14207500Y-69830000D01*
X14207500Y-69830000D02*
X14407500Y-69830000D01*
D13*
X14307500Y-69730000D02*
X14307500Y-69080000D01*
D12*
X14457500Y-68230000D02*
X14457500Y-72680000D01*
X14457500Y-72680000D02*
X17487500Y-72680000D01*
D11*
X14657500Y-72480000D02*
X17107500Y-72480000D01*
D14*
X14807500Y-72180000D02*
X14807500Y-70380001D01*
D15*
X15937500Y-68680000D02*
X15937500Y-70920000D01*
D12*
X19707500Y-70780000D02*
X24507500Y-70780000D01*
D16*
X22707500Y-68980000D02*
X16007500Y-68980000D01*
D17*
X24007500Y-67780000D02*
X24007500Y-70280000D01*
D11*
X24307500Y-70530000D02*
X23007500Y-70480000D01*
D18*
X24357500Y-67380000D02*
X23107500Y-67380000D01*
D12*
X24487500Y-69780000D02*
X24487500Y-67530000D01*
X24507500Y-67180000D02*
X16307499Y-67180000D01*
X24507500Y-70780000D02*
X24507500Y-67180000D01*
X14207500Y-69080001D02*
G75*
G02*
X16307499Y-67179999I1999999J-99997D01*
G01*
D17*
X17091182Y-72258529D02*
G75*
G02*
X19307500Y-70380000I2151317J-291470D01*
G01*
D12*
X17491182Y-72658529D02*
G75*
G02*
X19707500Y-70780000I2151317J-291470D01*
G01*
X33207500Y-69080000D02*
X33207500Y-69830000D01*
X33207500Y-69830000D02*
X33407500Y-69830000D01*
D13*
X33307500Y-69730000D02*
X33307500Y-69080000D01*
D12*
X33457500Y-68230000D02*
X33457500Y-72680000D01*
X33457500Y-72680000D02*
X36487500Y-72680000D01*
D11*
X33657500Y-72480000D02*
X36107500Y-72480000D01*
D14*
X33807500Y-72180000D02*
X33807500Y-70380001D01*
D15*
X34937500Y-68680000D02*
X34937500Y-70920000D01*
D12*
X38707500Y-70780000D02*
X43507500Y-70780000D01*
D16*
X41707500Y-68980000D02*
X35007500Y-68980000D01*
D17*
X43007500Y-67780000D02*
X43007500Y-70280000D01*
D11*
X43307500Y-70530000D02*
X42007500Y-70480000D01*
D18*
X43357500Y-67380000D02*
X42107500Y-67380000D01*
D12*
X43487500Y-69780000D02*
X43487500Y-67530000D01*
X43507500Y-67180000D02*
X35307499Y-67180000D01*
X43507500Y-70780000D02*
X43507500Y-67180000D01*
X33207500Y-69080001D02*
G75*
G02*
X35307499Y-67179999I1999999J-99997D01*
G01*
D17*
X36091182Y-72258529D02*
G75*
G02*
X38307500Y-70380000I2151317J-291470D01*
G01*
D12*
X36491182Y-72658529D02*
G75*
G02*
X38707500Y-70780000I2151317J-291470D01*
G01*
X52207500Y-64330000D02*
X52207500Y-65080000D01*
X52207500Y-65080000D02*
X52407500Y-65080000D01*
D13*
X52307500Y-64980000D02*
X52307500Y-64330000D01*
D12*
X52457500Y-63480000D02*
X52457500Y-67930000D01*
X52457500Y-67930000D02*
X55487500Y-67930000D01*
D11*
X52657500Y-67730000D02*
X55107500Y-67730000D01*
D14*
X52807500Y-67430000D02*
X52807500Y-65630001D01*
D15*
X53937500Y-63930000D02*
X53937500Y-66170000D01*
D12*
X57707500Y-66030000D02*
X62507500Y-66030000D01*
D16*
X60707500Y-64230000D02*
X54007500Y-64230000D01*
D17*
X62007500Y-63030000D02*
X62007500Y-65530000D01*
D11*
X62307500Y-65780000D02*
X61007500Y-65730000D01*
D18*
X62357500Y-62630000D02*
X61107500Y-62630000D01*
D12*
X62487500Y-65030000D02*
X62487500Y-62780000D01*
X62507500Y-62430000D02*
X54307499Y-62430000D01*
X62507500Y-66030000D02*
X62507500Y-62430000D01*
X52207500Y-64330001D02*
G75*
G02*
X54307499Y-62429999I1999999J-99997D01*
G01*
D17*
X55091182Y-67508529D02*
G75*
G02*
X57307500Y-65630000I2151317J-291470D01*
G01*
D12*
X55491182Y-67908529D02*
G75*
G02*
X57707500Y-66030000I2151317J-291470D01*
G01*
X71207500Y-61955000D02*
X71207500Y-62705000D01*
X71207500Y-62705000D02*
X71407500Y-62705000D01*
D13*
X71307500Y-62605000D02*
X71307500Y-61955000D01*
D12*
X71457500Y-61105000D02*
X71457500Y-65555000D01*
X71457500Y-65555000D02*
X74487500Y-65555000D01*
D11*
X71657500Y-65355000D02*
X74107500Y-65355000D01*
D14*
X71807500Y-65055000D02*
X71807500Y-63255001D01*
D15*
X72937500Y-61555000D02*
X72937500Y-63795000D01*
D12*
X76707500Y-63655000D02*
X81507500Y-63655000D01*
D16*
X79707500Y-61855000D02*
X73007500Y-61855000D01*
D17*
X81007500Y-60655000D02*
X81007500Y-63155000D01*
D11*
X81307500Y-63405000D02*
X80007500Y-63355000D01*
D18*
X81357500Y-60255000D02*
X80107500Y-60255000D01*
D12*
X81487500Y-62655000D02*
X81487500Y-60405000D01*
X81507500Y-60055000D02*
X73307499Y-60055000D01*
X81507500Y-63655000D02*
X81507500Y-60055000D01*
X71207500Y-61955001D02*
G75*
G02*
X73307499Y-60054999I1999999J-99997D01*
G01*
D17*
X74091182Y-65133529D02*
G75*
G02*
X76307500Y-63255000I2151317J-291470D01*
G01*
D12*
X74491182Y-65533529D02*
G75*
G02*
X76707500Y-63655000I2151317J-291470D01*
G01*
X90207500Y-64330000D02*
X90207500Y-65080000D01*
X90207500Y-65080000D02*
X90407500Y-65080000D01*
D13*
X90307500Y-64980000D02*
X90307500Y-64330000D01*
D12*
X90457500Y-63480000D02*
X90457500Y-67930000D01*
X90457500Y-67930000D02*
X93487500Y-67930000D01*
D11*
X90657500Y-67730000D02*
X93107500Y-67730000D01*
D14*
X90807500Y-67430000D02*
X90807500Y-65630001D01*
D15*
X91937500Y-63930000D02*
X91937500Y-66170000D01*
D12*
X95707500Y-66030000D02*
X100507500Y-66030000D01*
D16*
X98707500Y-64230000D02*
X92007500Y-64230000D01*
D17*
X100007500Y-63030000D02*
X100007500Y-65530000D01*
D11*
X100307500Y-65780000D02*
X99007500Y-65730000D01*
D18*
X100357500Y-62630000D02*
X99107500Y-62630000D01*
D12*
X100487500Y-65030000D02*
X100487500Y-62780000D01*
X100507500Y-62430000D02*
X92307499Y-62430000D01*
X100507500Y-66030000D02*
X100507500Y-62430000D01*
X90207500Y-64330001D02*
G75*
G02*
X92307499Y-62429999I1999999J-99997D01*
G01*
D17*
X93091182Y-67508529D02*
G75*
G02*
X95307500Y-65630000I2151317J-291470D01*
G01*
D12*
X93491182Y-67908529D02*
G75*
G02*
X95707500Y-66030000I2151317J-291470D01*
G01*
X109207500Y-66705000D02*
X109207500Y-67455000D01*
X109207500Y-67455000D02*
X109407500Y-67455000D01*
D13*
X109307500Y-67355000D02*
X109307500Y-66705000D01*
D12*
X109457500Y-65855000D02*
X109457500Y-70305000D01*
X109457500Y-70305000D02*
X112487500Y-70305000D01*
D11*
X109657500Y-70105000D02*
X112107500Y-70105000D01*
D14*
X109807500Y-69805000D02*
X109807500Y-68005001D01*
D15*
X110937500Y-66305000D02*
X110937500Y-68545000D01*
D12*
X114707500Y-68405000D02*
X119507500Y-68405000D01*
D16*
X117707500Y-66605000D02*
X111007500Y-66605000D01*
D17*
X119007500Y-65405000D02*
X119007500Y-67905000D01*
D11*
X119307500Y-68155000D02*
X118007500Y-68105000D01*
D18*
X119357500Y-65005000D02*
X118107500Y-65005000D01*
D12*
X119487500Y-67405000D02*
X119487500Y-65155000D01*
X119507500Y-64805000D02*
X111307499Y-64805000D01*
X119507500Y-68405000D02*
X119507500Y-64805000D01*
X109207500Y-66705001D02*
G75*
G02*
X111307499Y-64804999I1999999J-99997D01*
G01*
D17*
X112091182Y-69883529D02*
G75*
G02*
X114307500Y-68005000I2151317J-291470D01*
G01*
D12*
X112491182Y-70283529D02*
G75*
G02*
X114707500Y-68405000I2151317J-291470D01*
G01*
X80707500Y-83955000D02*
X80707500Y-84705000D01*
X80707500Y-84705000D02*
X80907500Y-84705000D01*
D13*
X80807500Y-84605000D02*
X80807500Y-83955000D01*
D12*
X80957500Y-83105000D02*
X80957500Y-87555000D01*
X80957500Y-87555000D02*
X83987500Y-87555000D01*
D11*
X81157500Y-87355000D02*
X83607500Y-87355000D01*
D14*
X81307500Y-87055000D02*
X81307500Y-85255001D01*
D15*
X82437500Y-83555000D02*
X82437500Y-85795000D01*
D12*
X86207500Y-85655000D02*
X91007500Y-85655000D01*
D16*
X89207500Y-83855000D02*
X82507500Y-83855000D01*
D17*
X90507500Y-82655000D02*
X90507500Y-85155000D01*
D11*
X90807500Y-85405000D02*
X89507500Y-85355000D01*
D18*
X90857500Y-82255000D02*
X89607500Y-82255000D01*
D12*
X90987500Y-84655000D02*
X90987500Y-82405000D01*
X91007500Y-82055000D02*
X82807499Y-82055000D01*
X91007500Y-85655000D02*
X91007500Y-82055000D01*
X80707500Y-83955001D02*
G75*
G02*
X82807499Y-82054999I1999999J-99997D01*
G01*
D17*
X83591182Y-87133529D02*
G75*
G02*
X85807500Y-85255000I2151317J-291470D01*
G01*
D12*
X83991182Y-87533529D02*
G75*
G02*
X86207500Y-85655000I2151317J-291470D01*
G01*
X103124987Y-85338116D02*
X102930873Y-86062561D01*
X102930873Y-86062561D02*
X103124058Y-86114324D01*
D13*
X103053347Y-85991850D02*
X103221580Y-85363998D01*
D12*
X103586465Y-84581784D02*
X102434720Y-88880154D01*
X102434720Y-88880154D02*
X105361475Y-89664376D01*
D11*
X102679669Y-88738733D02*
X105046187Y-89372839D01*
D14*
X102902204Y-88487778D02*
X103368078Y-86749112D01*
D15*
X104899566Y-85399503D02*
X104319812Y-87563177D01*
D12*
X107997587Y-88403695D02*
X112634031Y-89646026D01*
D16*
X111361239Y-87441486D02*
X104889536Y-85707398D01*
D17*
X112927525Y-86618839D02*
X112280477Y-89033654D01*
D11*
X112505550Y-89352781D02*
X111262788Y-88968020D01*
D18*
X113369127Y-86323056D02*
X112161719Y-85999532D01*
D12*
X112873531Y-88674924D02*
X113455874Y-86501591D01*
X113565779Y-86168693D02*
X105645187Y-84046377D01*
X112634031Y-89646026D02*
X113565779Y-86168693D01*
X103124987Y-85338117D02*
G75*
G02*
X105645187Y-84046377I1905969J-614228D01*
G01*
D17*
X105087746Y-89154691D02*
G75*
G02*
X107714744Y-87913797I2002575J-838341D01*
G01*
D12*
X105370589Y-89644589D02*
G75*
G02*
X107997587Y-88403694I2002575J-838340D01*
G01*
X122837181Y-97914550D02*
X123486700Y-98289550D01*
X123486700Y-98289550D02*
X123586700Y-98116345D01*
D13*
X123450097Y-98152947D02*
X122887181Y-97827947D01*
D12*
X122226059Y-97273044D02*
X126079872Y-99498044D01*
X126079872Y-99498044D02*
X127594872Y-96873987D01*
D11*
X126006667Y-99224838D02*
X127231667Y-97103076D01*
D14*
X125821859Y-98944935D02*
X124263014Y-98044935D01*
D15*
X123355770Y-96216326D02*
X125295667Y-97336326D01*
D12*
X127059424Y-94001410D02*
X129459424Y-89844488D01*
D16*
X127000578Y-90503334D02*
X123650578Y-96305704D01*
D17*
X126611348Y-88777501D02*
X128776411Y-90027501D01*
D11*
X129142917Y-89892693D02*
X128449616Y-90993526D01*
D18*
X126439937Y-88274392D02*
X125814937Y-89356924D01*
D12*
X128583398Y-89361809D02*
X126634841Y-88236809D01*
X126341732Y-88044488D02*
X122241732Y-95145897D01*
X129459424Y-89844488D02*
X126341732Y-88044488D01*
X122837181Y-97914550D02*
G75*
G02*
X122241732Y-95145897I1086600J1682051D01*
G01*
D17*
X127031708Y-97006473D02*
G75*
G02*
X126513013Y-94147819I1328079J1717361D01*
G01*
D12*
X127578119Y-96860062D02*
G75*
G02*
X127059424Y-94001410I1328079J1717360D01*
G01*
X167984819Y-87690450D02*
X167335300Y-88065450D01*
X167335300Y-88065450D02*
X167435300Y-88238655D01*
D13*
X167471903Y-88102053D02*
X168034819Y-87777053D01*
D12*
X168845941Y-87481956D02*
X164992128Y-89706956D01*
X164992128Y-89706956D02*
X166507128Y-92331013D01*
D11*
X165265333Y-89780162D02*
X166490333Y-91901924D01*
D14*
X165600141Y-89760065D02*
X167158986Y-88860066D01*
D15*
X169196230Y-88988674D02*
X167256333Y-90108674D01*
D12*
X169262576Y-93303590D02*
X171662576Y-97460512D01*
D16*
X172321422Y-95001666D02*
X168971422Y-89199296D01*
D17*
X174010652Y-95527499D02*
X171845589Y-96777499D01*
D11*
X171779083Y-97162307D02*
X171172384Y-96011474D01*
D18*
X174532063Y-95630608D02*
X173907063Y-94548076D01*
D12*
X172518602Y-96943191D02*
X174467159Y-95818191D01*
X174780268Y-95660512D02*
X170680267Y-88559103D01*
X171662576Y-97460512D02*
X174780268Y-95660512D01*
X167984819Y-87690451D02*
G75*
G02*
X170680267Y-88559103I913399J-1782048D01*
G01*
D17*
X166673974Y-91777056D02*
G75*
G02*
X169408987Y-92757179I823238J-2008831D01*
G01*
D12*
X166527563Y-92323467D02*
G75*
G02*
X169262575Y-93303590I823238J-2008830D01*
G01*
X213714500Y-61950000D02*
X213714500Y-62700000D01*
X213714500Y-62700000D02*
X213914500Y-62700000D01*
D13*
X213814500Y-62600000D02*
X213814500Y-61950000D01*
D12*
X213964500Y-61100000D02*
X213964500Y-65550000D01*
X213964500Y-65550000D02*
X216994500Y-65550000D01*
D11*
X214164500Y-65350000D02*
X216614500Y-65350000D01*
D14*
X214314500Y-65050000D02*
X214314500Y-63250001D01*
D15*
X215444500Y-61550000D02*
X215444500Y-63790000D01*
D12*
X219214500Y-63650000D02*
X224014500Y-63650000D01*
D16*
X222214500Y-61850000D02*
X215514500Y-61850000D01*
D17*
X223514500Y-60650000D02*
X223514500Y-63150000D01*
D11*
X223814500Y-63400000D02*
X222514500Y-63350000D01*
D18*
X223864500Y-60250000D02*
X222614500Y-60250000D01*
D12*
X223994500Y-62650000D02*
X223994500Y-60400000D01*
X224014500Y-60050000D02*
X215814499Y-60050000D01*
X224014500Y-63650000D02*
X224014500Y-60050000D01*
X213714500Y-61950001D02*
G75*
G02*
X215814499Y-60049999I1999999J-99997D01*
G01*
D17*
X216598182Y-65128529D02*
G75*
G02*
X218814500Y-63250000I2151317J-291470D01*
G01*
D12*
X216998182Y-65528529D02*
G75*
G02*
X219214500Y-63650000I2151317J-291470D01*
G01*
X194714500Y-64325000D02*
X194714500Y-65075000D01*
X194714500Y-65075000D02*
X194914500Y-65075000D01*
D13*
X194814500Y-64975000D02*
X194814500Y-64325000D01*
D12*
X194964500Y-63475000D02*
X194964500Y-67925000D01*
X194964500Y-67925000D02*
X197994500Y-67925000D01*
D11*
X195164500Y-67725000D02*
X197614500Y-67725000D01*
D14*
X195314500Y-67425000D02*
X195314500Y-65625001D01*
D15*
X196444500Y-63925000D02*
X196444500Y-66165000D01*
D12*
X200214500Y-66025000D02*
X205014500Y-66025000D01*
D16*
X203214500Y-64225000D02*
X196514500Y-64225000D01*
D17*
X204514500Y-63025000D02*
X204514500Y-65525000D01*
D11*
X204814500Y-65775000D02*
X203514500Y-65725000D01*
D18*
X204864500Y-62625000D02*
X203614500Y-62625000D01*
D12*
X204994500Y-65025000D02*
X204994500Y-62775000D01*
X205014500Y-62425000D02*
X196814499Y-62425000D01*
X205014500Y-66025000D02*
X205014500Y-62425000D01*
X194714500Y-64325001D02*
G75*
G02*
X196814499Y-62424999I1999999J-99997D01*
G01*
D17*
X197598182Y-67503529D02*
G75*
G02*
X199814500Y-65625000I2151317J-291470D01*
G01*
D12*
X197998182Y-67903529D02*
G75*
G02*
X200214500Y-66025000I2151317J-291470D01*
G01*
X175714500Y-66700000D02*
X175714500Y-67450000D01*
X175714500Y-67450000D02*
X175914500Y-67450000D01*
D13*
X175814500Y-67350000D02*
X175814500Y-66700000D01*
D12*
X175964500Y-65850000D02*
X175964500Y-70300000D01*
X175964500Y-70300000D02*
X178994500Y-70300000D01*
D11*
X176164500Y-70100000D02*
X178614500Y-70100000D01*
D14*
X176314500Y-69800000D02*
X176314500Y-68000001D01*
D15*
X177444500Y-66300000D02*
X177444500Y-68540000D01*
D12*
X181214500Y-68400000D02*
X186014500Y-68400000D01*
D16*
X184214500Y-66600000D02*
X177514500Y-66600000D01*
D17*
X185514500Y-65400000D02*
X185514500Y-67900000D01*
D11*
X185814500Y-68150000D02*
X184514500Y-68100000D01*
D18*
X185864500Y-65000000D02*
X184614500Y-65000000D01*
D12*
X185994500Y-67400000D02*
X185994500Y-65150000D01*
X186014500Y-64800000D02*
X177814499Y-64800000D01*
X186014500Y-68400000D02*
X186014500Y-64800000D01*
X175714500Y-66700001D02*
G75*
G02*
X177814499Y-64799999I1999999J-99997D01*
G01*
D17*
X178598182Y-69878529D02*
G75*
G02*
X180814500Y-68000000I2151317J-291470D01*
G01*
D12*
X178998182Y-70278529D02*
G75*
G02*
X181214500Y-68400000I2151317J-291470D01*
G01*
X204214500Y-83950000D02*
X204214500Y-84700000D01*
X204214500Y-84700000D02*
X204414500Y-84700000D01*
D13*
X204314500Y-84600000D02*
X204314500Y-83950000D01*
D12*
X204464500Y-83100000D02*
X204464500Y-87550000D01*
X204464500Y-87550000D02*
X207494500Y-87550000D01*
D11*
X204664500Y-87350000D02*
X207114500Y-87350000D01*
D14*
X204814500Y-87050000D02*
X204814500Y-85250001D01*
D15*
X205944500Y-83550000D02*
X205944500Y-85790000D01*
D12*
X209714500Y-85650000D02*
X214514500Y-85650000D01*
D16*
X212714500Y-83850000D02*
X206014500Y-83850000D01*
D17*
X214014500Y-82650000D02*
X214014500Y-85150000D01*
D11*
X214314500Y-85400000D02*
X213014500Y-85350000D01*
D18*
X214364500Y-82250000D02*
X213114500Y-82250000D01*
D12*
X214494500Y-84650000D02*
X214494500Y-82400000D01*
X214514500Y-82050000D02*
X206314499Y-82050000D01*
X214514500Y-85650000D02*
X214514500Y-82050000D01*
X204214500Y-83950001D02*
G75*
G02*
X206314499Y-82049999I1999999J-99997D01*
G01*
D17*
X207098182Y-87128529D02*
G75*
G02*
X209314500Y-85250000I2151317J-291470D01*
G01*
D12*
X207498182Y-87528529D02*
G75*
G02*
X209714500Y-85650000I2151317J-291470D01*
G01*
X182199088Y-88387181D02*
X182393202Y-89111625D01*
X182393202Y-89111625D02*
X182586388Y-89059862D01*
D13*
X182463913Y-88989151D02*
X182295681Y-88361299D01*
D12*
X182220573Y-87501439D02*
X183372318Y-91799809D01*
X183372318Y-91799809D02*
X186299073Y-91015587D01*
D11*
X183513739Y-91554860D02*
X185880258Y-90920754D01*
D14*
X183580983Y-91226260D02*
X183115109Y-89487594D01*
D15*
X183766612Y-87553054D02*
X184346367Y-89716728D01*
D12*
X187951673Y-88605750D02*
X192588117Y-87363419D01*
D16*
X190383576Y-86090627D02*
X183911873Y-87824714D01*
D17*
X191328696Y-84595051D02*
X191975744Y-87009865D01*
D11*
X192330227Y-87173701D02*
X191061582Y-87461870D01*
D18*
X191563243Y-84118094D02*
X190355836Y-84441618D01*
D12*
X192309979Y-86402669D02*
X191727636Y-84229336D01*
X191656368Y-83886086D02*
X183735775Y-86008402D01*
X192588117Y-87363419D02*
X191656368Y-83886086D01*
X182199088Y-88387182D02*
G75*
G02*
X183735775Y-86008401I1957732J421048D01*
G01*
D17*
X185807175Y-90711052D02*
G75*
G02*
X187461775Y-88322907I2153451J275263D01*
G01*
D12*
X186297073Y-90993895D02*
G75*
G02*
X187951673Y-88605751I2153450J275263D01*
G01*
X213714500Y-23950000D02*
X213714500Y-24700000D01*
X213714500Y-24700000D02*
X213914500Y-24700000D01*
D13*
X213814500Y-24600000D02*
X213814500Y-23950000D01*
D12*
X213964500Y-23100000D02*
X213964500Y-27550000D01*
X213964500Y-27550000D02*
X216994500Y-27550000D01*
D11*
X214164500Y-27350000D02*
X216614500Y-27350000D01*
D14*
X214314500Y-27050000D02*
X214314500Y-25250001D01*
D15*
X215444500Y-23550000D02*
X215444500Y-25790000D01*
D12*
X219214500Y-25650000D02*
X224014500Y-25650000D01*
D16*
X222214500Y-23850000D02*
X215514500Y-23850000D01*
D17*
X223514500Y-22650000D02*
X223514500Y-25150000D01*
D11*
X223814500Y-25400000D02*
X222514500Y-25350000D01*
D18*
X223864500Y-22250000D02*
X222614500Y-22250000D01*
D12*
X223994500Y-24650000D02*
X223994500Y-22400000D01*
X224014500Y-22050000D02*
X215814499Y-22050000D01*
X224014500Y-25650000D02*
X224014500Y-22050000D01*
X213714500Y-23950001D02*
G75*
G02*
X215814499Y-22049999I1999999J-99997D01*
G01*
D17*
X216598182Y-27128529D02*
G75*
G02*
X218814500Y-25250000I2151317J-291470D01*
G01*
D12*
X216998182Y-27528529D02*
G75*
G02*
X219214500Y-25650000I2151317J-291470D01*
G01*
X194714500Y-26325000D02*
X194714500Y-27075000D01*
X194714500Y-27075000D02*
X194914500Y-27075000D01*
D13*
X194814500Y-26975000D02*
X194814500Y-26325000D01*
D12*
X194964500Y-25475000D02*
X194964500Y-29925000D01*
X194964500Y-29925000D02*
X197994500Y-29925000D01*
D11*
X195164500Y-29725000D02*
X197614500Y-29725000D01*
D14*
X195314500Y-29425000D02*
X195314500Y-27625001D01*
D15*
X196444500Y-25925000D02*
X196444500Y-28165000D01*
D12*
X200214500Y-28025000D02*
X205014500Y-28025000D01*
D16*
X203214500Y-26225000D02*
X196514500Y-26225000D01*
D17*
X204514500Y-25025000D02*
X204514500Y-27525000D01*
D11*
X204814500Y-27775000D02*
X203514500Y-27725000D01*
D18*
X204864500Y-24625000D02*
X203614500Y-24625000D01*
D12*
X204994500Y-27025000D02*
X204994500Y-24775000D01*
X205014500Y-24425000D02*
X196814499Y-24425000D01*
X205014500Y-28025000D02*
X205014500Y-24425000D01*
X194714500Y-26325001D02*
G75*
G02*
X196814499Y-24424999I1999999J-99997D01*
G01*
D17*
X197598182Y-29503529D02*
G75*
G02*
X199814500Y-27625000I2151317J-291470D01*
G01*
D12*
X197998182Y-29903529D02*
G75*
G02*
X200214500Y-28025000I2151317J-291470D01*
G01*
X270714500Y-50075000D02*
X270714500Y-50825000D01*
X270714500Y-50825000D02*
X270914500Y-50825000D01*
D13*
X270814500Y-50725000D02*
X270814500Y-50075000D01*
D12*
X270964500Y-49225000D02*
X270964500Y-53675000D01*
X270964500Y-53675000D02*
X273994500Y-53675000D01*
D11*
X271164500Y-53475000D02*
X273614500Y-53475000D01*
D14*
X271314500Y-53175000D02*
X271314500Y-51375001D01*
D15*
X272444500Y-49675000D02*
X272444500Y-51915000D01*
D12*
X276214500Y-51775000D02*
X281014500Y-51775000D01*
D16*
X279214500Y-49975000D02*
X272514500Y-49975000D01*
D17*
X280514500Y-48775000D02*
X280514500Y-51275000D01*
D11*
X280814500Y-51525000D02*
X279514500Y-51475000D01*
D18*
X280864500Y-48375000D02*
X279614500Y-48375000D01*
D12*
X280994500Y-50775000D02*
X280994500Y-48525000D01*
X281014500Y-48175000D02*
X272814499Y-48175000D01*
X281014500Y-51775000D02*
X281014500Y-48175000D01*
X270714500Y-50075001D02*
G75*
G02*
X272814499Y-48174999I1999999J-99997D01*
G01*
D17*
X273598182Y-53253529D02*
G75*
G02*
X275814500Y-51375000I2151317J-291470D01*
G01*
D12*
X273998182Y-53653529D02*
G75*
G02*
X276214500Y-51775000I2151317J-291470D01*
G01*
X232714500Y-26325000D02*
X232714500Y-27075000D01*
X232714500Y-27075000D02*
X232914500Y-27075000D01*
D13*
X232814500Y-26975000D02*
X232814500Y-26325000D01*
D12*
X232964500Y-25475000D02*
X232964500Y-29925000D01*
X232964500Y-29925000D02*
X235994500Y-29925000D01*
D11*
X233164500Y-29725000D02*
X235614500Y-29725000D01*
D14*
X233314500Y-29425000D02*
X233314500Y-27625001D01*
D15*
X234444500Y-25925000D02*
X234444500Y-28165000D01*
D12*
X238214500Y-28025000D02*
X243014500Y-28025000D01*
D16*
X241214500Y-26225000D02*
X234514500Y-26225000D01*
D17*
X242514500Y-25025000D02*
X242514500Y-27525000D01*
D11*
X242814500Y-27775000D02*
X241514500Y-27725000D01*
D18*
X242864500Y-24625000D02*
X241614500Y-24625000D01*
D12*
X242994500Y-27025000D02*
X242994500Y-24775000D01*
X243014500Y-24425000D02*
X234814499Y-24425000D01*
X243014500Y-28025000D02*
X243014500Y-24425000D01*
X232714500Y-26325001D02*
G75*
G02*
X234814499Y-24424999I1999999J-99997D01*
G01*
D17*
X235598182Y-29503529D02*
G75*
G02*
X237814500Y-27625000I2151317J-291470D01*
G01*
D12*
X235998182Y-29903529D02*
G75*
G02*
X238214500Y-28025000I2151317J-291470D01*
G01*
X251714500Y-50075000D02*
X251714500Y-50825000D01*
X251714500Y-50825000D02*
X251914500Y-50825000D01*
D13*
X251814500Y-50725000D02*
X251814500Y-50075000D01*
D12*
X251964500Y-49225000D02*
X251964500Y-53675000D01*
X251964500Y-53675000D02*
X254994500Y-53675000D01*
D11*
X252164500Y-53475000D02*
X254614500Y-53475000D01*
D14*
X252314500Y-53175000D02*
X252314500Y-51375001D01*
D15*
X253444500Y-49675000D02*
X253444500Y-51915000D01*
D12*
X257214500Y-51775000D02*
X262014500Y-51775000D01*
D16*
X260214500Y-49975000D02*
X253514500Y-49975000D01*
D17*
X261514500Y-48775000D02*
X261514500Y-51275000D01*
D11*
X261814500Y-51525000D02*
X260514500Y-51475000D01*
D18*
X261864500Y-48375000D02*
X260614500Y-48375000D01*
D12*
X261994500Y-50775000D02*
X261994500Y-48525000D01*
X262014500Y-48175000D02*
X253814499Y-48175000D01*
X262014500Y-51775000D02*
X262014500Y-48175000D01*
X251714500Y-50075001D02*
G75*
G02*
X253814499Y-48174999I1999999J-99997D01*
G01*
D17*
X254598182Y-53253529D02*
G75*
G02*
X256814500Y-51375000I2151317J-291470D01*
G01*
D12*
X254998182Y-53653529D02*
G75*
G02*
X257214500Y-51775000I2151317J-291470D01*
G01*
X251714500Y-69075000D02*
X251714500Y-69825000D01*
X251714500Y-69825000D02*
X251914500Y-69825000D01*
D13*
X251814500Y-69725000D02*
X251814500Y-69075000D01*
D12*
X251964500Y-68225000D02*
X251964500Y-72675000D01*
X251964500Y-72675000D02*
X254994500Y-72675000D01*
D11*
X252164500Y-72475000D02*
X254614500Y-72475000D01*
D14*
X252314500Y-72175000D02*
X252314500Y-70375001D01*
D15*
X253444500Y-68675000D02*
X253444500Y-70915000D01*
D12*
X257214500Y-70775000D02*
X262014500Y-70775000D01*
D16*
X260214500Y-68975000D02*
X253514500Y-68975000D01*
D17*
X261514500Y-67775000D02*
X261514500Y-70275000D01*
D11*
X261814500Y-70525000D02*
X260514500Y-70475000D01*
D18*
X261864500Y-67375000D02*
X260614500Y-67375000D01*
D12*
X261994500Y-69775000D02*
X261994500Y-67525000D01*
X262014500Y-67175000D02*
X253814499Y-67175000D01*
X262014500Y-70775000D02*
X262014500Y-67175000D01*
X251714500Y-69075001D02*
G75*
G02*
X253814499Y-67174999I1999999J-99997D01*
G01*
D17*
X254598182Y-72253529D02*
G75*
G02*
X256814500Y-70375000I2151317J-291470D01*
G01*
D12*
X254998182Y-72653529D02*
G75*
G02*
X257214500Y-70775000I2151317J-291470D01*
G01*
X232714500Y-64325000D02*
X232714500Y-65075000D01*
X232714500Y-65075000D02*
X232914500Y-65075000D01*
D13*
X232814500Y-64975000D02*
X232814500Y-64325000D01*
D12*
X232964500Y-63475000D02*
X232964500Y-67925000D01*
X232964500Y-67925000D02*
X235994500Y-67925000D01*
D11*
X233164500Y-67725000D02*
X235614500Y-67725000D01*
D14*
X233314500Y-67425000D02*
X233314500Y-65625001D01*
D15*
X234444500Y-63925000D02*
X234444500Y-66165000D01*
D12*
X238214500Y-66025000D02*
X243014500Y-66025000D01*
D16*
X241214500Y-64225000D02*
X234514500Y-64225000D01*
D17*
X242514500Y-63025000D02*
X242514500Y-65525000D01*
D11*
X242814500Y-65775000D02*
X241514500Y-65725000D01*
D18*
X242864500Y-62625000D02*
X241614500Y-62625000D01*
D12*
X242994500Y-65025000D02*
X242994500Y-62775000D01*
X243014500Y-62425000D02*
X234814499Y-62425000D01*
X243014500Y-66025000D02*
X243014500Y-62425000D01*
X232714500Y-64325001D02*
G75*
G02*
X234814499Y-62424999I1999999J-99997D01*
G01*
D17*
X235598182Y-67503529D02*
G75*
G02*
X237814500Y-65625000I2151317J-291470D01*
G01*
D12*
X235998182Y-67903529D02*
G75*
G02*
X238214500Y-66025000I2151317J-291470D01*
G01*
X270714500Y-31075000D02*
X270714500Y-31825000D01*
X270714500Y-31825000D02*
X270914500Y-31825000D01*
D13*
X270814500Y-31725000D02*
X270814500Y-31075000D01*
D12*
X270964500Y-30225000D02*
X270964500Y-34675000D01*
X270964500Y-34675000D02*
X273994500Y-34675000D01*
D11*
X271164500Y-34475000D02*
X273614500Y-34475000D01*
D14*
X271314500Y-34175000D02*
X271314500Y-32375001D01*
D15*
X272444500Y-30675000D02*
X272444500Y-32915000D01*
D12*
X276214500Y-32775000D02*
X281014500Y-32775000D01*
D16*
X279214500Y-30975000D02*
X272514500Y-30975000D01*
D17*
X280514500Y-29775000D02*
X280514500Y-32275000D01*
D11*
X280814500Y-32525000D02*
X279514500Y-32475000D01*
D18*
X280864500Y-29375000D02*
X279614500Y-29375000D01*
D12*
X280994500Y-31775000D02*
X280994500Y-29525000D01*
X281014500Y-29175000D02*
X272814499Y-29175000D01*
X281014500Y-32775000D02*
X281014500Y-29175000D01*
X270714500Y-31075001D02*
G75*
G02*
X272814499Y-29174999I1999999J-99997D01*
G01*
D17*
X273598182Y-34253529D02*
G75*
G02*
X275814500Y-32375000I2151317J-291470D01*
G01*
D12*
X273998182Y-34653529D02*
G75*
G02*
X276214500Y-32775000I2151317J-291470D01*
G01*
X251714500Y-31075000D02*
X251714500Y-31825000D01*
X251714500Y-31825000D02*
X251914500Y-31825000D01*
D13*
X251814500Y-31725000D02*
X251814500Y-31075000D01*
D12*
X251964500Y-30225000D02*
X251964500Y-34675000D01*
X251964500Y-34675000D02*
X254994500Y-34675000D01*
D11*
X252164500Y-34475000D02*
X254614500Y-34475000D01*
D14*
X252314500Y-34175000D02*
X252314500Y-32375001D01*
D15*
X253444500Y-30675000D02*
X253444500Y-32915000D01*
D12*
X257214500Y-32775000D02*
X262014500Y-32775000D01*
D16*
X260214500Y-30975000D02*
X253514500Y-30975000D01*
D17*
X261514500Y-29775000D02*
X261514500Y-32275000D01*
D11*
X261814500Y-32525000D02*
X260514500Y-32475000D01*
D18*
X261864500Y-29375000D02*
X260614500Y-29375000D01*
D12*
X261994500Y-31775000D02*
X261994500Y-29525000D01*
X262014500Y-29175000D02*
X253814499Y-29175000D01*
X262014500Y-32775000D02*
X262014500Y-29175000D01*
X251714500Y-31075001D02*
G75*
G02*
X253814499Y-29174999I1999999J-99997D01*
G01*
D17*
X254598182Y-34253529D02*
G75*
G02*
X256814500Y-32375000I2151317J-291470D01*
G01*
D12*
X254998182Y-34653529D02*
G75*
G02*
X257214500Y-32775000I2151317J-291470D01*
G01*
X232714500Y-45325000D02*
X232714500Y-46075000D01*
X232714500Y-46075000D02*
X232914500Y-46075000D01*
D13*
X232814500Y-45975000D02*
X232814500Y-45325000D01*
D12*
X232964500Y-44475000D02*
X232964500Y-48925000D01*
X232964500Y-48925000D02*
X235994500Y-48925000D01*
D11*
X233164500Y-48725000D02*
X235614500Y-48725000D01*
D14*
X233314500Y-48425000D02*
X233314500Y-46625001D01*
D15*
X234444500Y-44925000D02*
X234444500Y-47165000D01*
D12*
X238214500Y-47025000D02*
X243014500Y-47025000D01*
D16*
X241214500Y-45225000D02*
X234514500Y-45225000D01*
D17*
X242514500Y-44025000D02*
X242514500Y-46525000D01*
D11*
X242814500Y-46775000D02*
X241514500Y-46725000D01*
D18*
X242864500Y-43625000D02*
X241614500Y-43625000D01*
D12*
X242994500Y-46025000D02*
X242994500Y-43775000D01*
X243014500Y-43425000D02*
X234814499Y-43425000D01*
X243014500Y-47025000D02*
X243014500Y-43425000D01*
X232714500Y-45325001D02*
G75*
G02*
X234814499Y-43424999I1999999J-99997D01*
G01*
D17*
X235598182Y-48503529D02*
G75*
G02*
X237814500Y-46625000I2151317J-291470D01*
G01*
D12*
X235998182Y-48903529D02*
G75*
G02*
X238214500Y-47025000I2151317J-291470D01*
G01*
X213714500Y-42950000D02*
X213714500Y-43700000D01*
X213714500Y-43700000D02*
X213914500Y-43700000D01*
D13*
X213814500Y-43600000D02*
X213814500Y-42950000D01*
D12*
X213964500Y-42100000D02*
X213964500Y-46550000D01*
X213964500Y-46550000D02*
X216994500Y-46550000D01*
D11*
X214164500Y-46350000D02*
X216614500Y-46350000D01*
D14*
X214314500Y-46050000D02*
X214314500Y-44250001D01*
D15*
X215444500Y-42550000D02*
X215444500Y-44790000D01*
D12*
X219214500Y-44650000D02*
X224014500Y-44650000D01*
D16*
X222214500Y-42850000D02*
X215514500Y-42850000D01*
D17*
X223514500Y-41650000D02*
X223514500Y-44150000D01*
D11*
X223814500Y-44400000D02*
X222514500Y-44350000D01*
D18*
X223864500Y-41250000D02*
X222614500Y-41250000D01*
D12*
X223994500Y-43650000D02*
X223994500Y-41400000D01*
X224014500Y-41050000D02*
X215814499Y-41050000D01*
X224014500Y-44650000D02*
X224014500Y-41050000D01*
X213714500Y-42950001D02*
G75*
G02*
X215814499Y-41049999I1999999J-99997D01*
G01*
D17*
X216598182Y-46128529D02*
G75*
G02*
X218814500Y-44250000I2151317J-291470D01*
G01*
D12*
X216998182Y-46528529D02*
G75*
G02*
X219214500Y-44650000I2151317J-291470D01*
G01*
X194714500Y-45325000D02*
X194714500Y-46075000D01*
X194714500Y-46075000D02*
X194914500Y-46075000D01*
D13*
X194814500Y-45975000D02*
X194814500Y-45325000D01*
D12*
X194964500Y-44475000D02*
X194964500Y-48925000D01*
X194964500Y-48925000D02*
X197994500Y-48925000D01*
D11*
X195164500Y-48725000D02*
X197614500Y-48725000D01*
D14*
X195314500Y-48425000D02*
X195314500Y-46625001D01*
D15*
X196444500Y-44925000D02*
X196444500Y-47165000D01*
D12*
X200214500Y-47025000D02*
X205014500Y-47025000D01*
D16*
X203214500Y-45225000D02*
X196514500Y-45225000D01*
D17*
X204514500Y-44025000D02*
X204514500Y-46525000D01*
D11*
X204814500Y-46775000D02*
X203514500Y-46725000D01*
D18*
X204864500Y-43625000D02*
X203614500Y-43625000D01*
D12*
X204994500Y-46025000D02*
X204994500Y-43775000D01*
X205014500Y-43425000D02*
X196814499Y-43425000D01*
X205014500Y-47025000D02*
X205014500Y-43425000D01*
X194714500Y-45325001D02*
G75*
G02*
X196814499Y-43424999I1999999J-99997D01*
G01*
D17*
X197598182Y-48503529D02*
G75*
G02*
X199814500Y-46625000I2151317J-291470D01*
G01*
D12*
X197998182Y-48903529D02*
G75*
G02*
X200214500Y-47025000I2151317J-291470D01*
G01*
X175714500Y-47700000D02*
X175714500Y-48450000D01*
X175714500Y-48450000D02*
X175914500Y-48450000D01*
D13*
X175814500Y-48350000D02*
X175814500Y-47700000D01*
D12*
X175964500Y-46850000D02*
X175964500Y-51300000D01*
X175964500Y-51300000D02*
X178994500Y-51300000D01*
D11*
X176164500Y-51100000D02*
X178614500Y-51100000D01*
D14*
X176314500Y-50800000D02*
X176314500Y-49000001D01*
D15*
X177444500Y-47300000D02*
X177444500Y-49540000D01*
D12*
X181214500Y-49400000D02*
X186014500Y-49400000D01*
D16*
X184214500Y-47600000D02*
X177514500Y-47600000D01*
D17*
X185514500Y-46400000D02*
X185514500Y-48900000D01*
D11*
X185814500Y-49150000D02*
X184514500Y-49100000D01*
D18*
X185864500Y-46000000D02*
X184614500Y-46000000D01*
D12*
X185994500Y-48400000D02*
X185994500Y-46150000D01*
X186014500Y-45800000D02*
X177814499Y-45800000D01*
X186014500Y-49400000D02*
X186014500Y-45800000D01*
X175714500Y-47700001D02*
G75*
G02*
X177814499Y-45799999I1999999J-99997D01*
G01*
D17*
X178598182Y-50878529D02*
G75*
G02*
X180814500Y-49000000I2151317J-291470D01*
G01*
D12*
X178998182Y-51278529D02*
G75*
G02*
X181214500Y-49400000I2151317J-291470D01*
G01*
X270714500Y-69075000D02*
X270714500Y-69825000D01*
X270714500Y-69825000D02*
X270914500Y-69825000D01*
D13*
X270814500Y-69725000D02*
X270814500Y-69075000D01*
D12*
X270964500Y-68225000D02*
X270964500Y-72675000D01*
X270964500Y-72675000D02*
X273994500Y-72675000D01*
D11*
X271164500Y-72475000D02*
X273614500Y-72475000D01*
D14*
X271314500Y-72175000D02*
X271314500Y-70375001D01*
D15*
X272444500Y-68675000D02*
X272444500Y-70915000D01*
D12*
X276214500Y-70775000D02*
X281014500Y-70775000D01*
D16*
X279214500Y-68975000D02*
X272514500Y-68975000D01*
D17*
X280514500Y-67775000D02*
X280514500Y-70275000D01*
D11*
X280814500Y-70525000D02*
X279514500Y-70475000D01*
D18*
X280864500Y-67375000D02*
X279614500Y-67375000D01*
D12*
X280994500Y-69775000D02*
X280994500Y-67525000D01*
X281014500Y-67175000D02*
X272814499Y-67175000D01*
X281014500Y-70775000D02*
X281014500Y-67175000D01*
X270714500Y-69075001D02*
G75*
G02*
X272814499Y-67174999I1999999J-99997D01*
G01*
D17*
X273598182Y-72253529D02*
G75*
G02*
X275814500Y-70375000I2151317J-291470D01*
G01*
D12*
X273998182Y-72653529D02*
G75*
G02*
X276214500Y-70775000I2151317J-291470D01*
G01*
X14207500Y-31080000D02*
X14207500Y-31830000D01*
X14207500Y-31830000D02*
X14407500Y-31830000D01*
D13*
X14307500Y-31730000D02*
X14307500Y-31080000D01*
D12*
X14457500Y-30230000D02*
X14457500Y-34680000D01*
X14457500Y-34680000D02*
X17487500Y-34680000D01*
D11*
X14657500Y-34480000D02*
X17107500Y-34480000D01*
D14*
X14807500Y-34180000D02*
X14807500Y-32380001D01*
D15*
X15937500Y-30680000D02*
X15937500Y-32920000D01*
D12*
X19707500Y-32780000D02*
X24507500Y-32780000D01*
D16*
X22707500Y-30980000D02*
X16007500Y-30980000D01*
D17*
X24007500Y-29780000D02*
X24007500Y-32280000D01*
D11*
X24307500Y-32530000D02*
X23007500Y-32480000D01*
D18*
X24357500Y-29380000D02*
X23107500Y-29380000D01*
D12*
X24487500Y-31780000D02*
X24487500Y-29530000D01*
X24507500Y-29180000D02*
X16307499Y-29180000D01*
X24507500Y-32780000D02*
X24507500Y-29180000D01*
X14207500Y-31080001D02*
G75*
G02*
X16307499Y-29179999I1999999J-99997D01*
G01*
D17*
X17091182Y-34258529D02*
G75*
G02*
X19307500Y-32380000I2151317J-291470D01*
G01*
D12*
X17491182Y-34658529D02*
G75*
G02*
X19707500Y-32780000I2151317J-291470D01*
G01*
X109207500Y-28705000D02*
X109207500Y-29455000D01*
X109207500Y-29455000D02*
X109407500Y-29455000D01*
D13*
X109307500Y-29355000D02*
X109307500Y-28705000D01*
D12*
X109457500Y-27855000D02*
X109457500Y-32305000D01*
X109457500Y-32305000D02*
X112487500Y-32305000D01*
D11*
X109657500Y-32105000D02*
X112107500Y-32105000D01*
D14*
X109807500Y-31805000D02*
X109807500Y-30005001D01*
D15*
X110937500Y-28305000D02*
X110937500Y-30545000D01*
D12*
X114707500Y-30405000D02*
X119507500Y-30405000D01*
D16*
X117707500Y-28605000D02*
X111007500Y-28605000D01*
D17*
X119007500Y-27405000D02*
X119007500Y-29905000D01*
D11*
X119307500Y-30155000D02*
X118007500Y-30105000D01*
D18*
X119357500Y-27005000D02*
X118107500Y-27005000D01*
D12*
X119487500Y-29405000D02*
X119487500Y-27155000D01*
X119507500Y-26805000D02*
X111307499Y-26805000D01*
X119507500Y-30405000D02*
X119507500Y-26805000D01*
X109207500Y-28705001D02*
G75*
G02*
X111307499Y-26804999I1999999J-99997D01*
G01*
D17*
X112091182Y-31883529D02*
G75*
G02*
X114307500Y-30005000I2151317J-291470D01*
G01*
D12*
X112491182Y-32283529D02*
G75*
G02*
X114707500Y-30405000I2151317J-291470D01*
G01*
X175707500Y-28705000D02*
X175707500Y-29455000D01*
X175707500Y-29455000D02*
X175907500Y-29455000D01*
D13*
X175807500Y-29355000D02*
X175807500Y-28705000D01*
D12*
X175957500Y-27855000D02*
X175957500Y-32305000D01*
X175957500Y-32305000D02*
X178987500Y-32305000D01*
D11*
X176157500Y-32105000D02*
X178607500Y-32105000D01*
D14*
X176307500Y-31805000D02*
X176307500Y-30005001D01*
D15*
X177437500Y-28305000D02*
X177437500Y-30545000D01*
D12*
X181207500Y-30405000D02*
X186007500Y-30405000D01*
D16*
X184207500Y-28605000D02*
X177507500Y-28605000D01*
D17*
X185507500Y-27405000D02*
X185507500Y-29905000D01*
D11*
X185807500Y-30155000D02*
X184507500Y-30105000D01*
D18*
X185857500Y-27005000D02*
X184607500Y-27005000D01*
D12*
X185987500Y-29405000D02*
X185987500Y-27155000D01*
X186007500Y-26805000D02*
X177807499Y-26805000D01*
X186007500Y-30405000D02*
X186007500Y-26805000D01*
X175707500Y-28705001D02*
G75*
G02*
X177807499Y-26804999I1999999J-99997D01*
G01*
D17*
X178591182Y-31883529D02*
G75*
G02*
X180807500Y-30005000I2151317J-291470D01*
G01*
D12*
X178991182Y-32283529D02*
G75*
G02*
X181207500Y-30405000I2151317J-291470D01*
G01*
X26984500Y-38476875D02*
X26984500Y-33076875D01*
X28484500Y-38476875D02*
X26984500Y-38476875D01*
X28234500Y-36276875D02*
X27234500Y-36276875D01*
X27734500Y-36176875D02*
X28234500Y-35276875D01*
X27234500Y-35276875D02*
X27734500Y-36176875D01*
X28234500Y-35276875D02*
X27234500Y-35276875D01*
X28484500Y-33076875D02*
X28484500Y-38476875D01*
X28484500Y-33076875D02*
X26984500Y-33076875D01*
X45984500Y-38480000D02*
X45984500Y-33080000D01*
X47484500Y-38480000D02*
X45984500Y-38480000D01*
X47234500Y-36280000D02*
X46234500Y-36280000D01*
X46734500Y-36180000D02*
X47234500Y-35280000D01*
X46234500Y-35280000D02*
X46734500Y-36180000D01*
X47234500Y-35280000D02*
X46234500Y-35280000D01*
X47484500Y-33080000D02*
X47484500Y-38480000D01*
X47484500Y-33080000D02*
X45984500Y-33080000D01*
X64957500Y-33480000D02*
X64957500Y-28080000D01*
X66457500Y-33480000D02*
X64957500Y-33480000D01*
X66207500Y-31280000D02*
X65207500Y-31280000D01*
X65707500Y-31180000D02*
X66207500Y-30280000D01*
X65207500Y-30280000D02*
X65707500Y-31180000D01*
X66207500Y-30280000D02*
X65207500Y-30280000D01*
X66457500Y-28080000D02*
X66457500Y-33480000D01*
X66457500Y-28080000D02*
X64957500Y-28080000D01*
X83957500Y-31355000D02*
X83957500Y-25955000D01*
X85457500Y-31355000D02*
X83957500Y-31355000D01*
X85207500Y-29155000D02*
X84207500Y-29155000D01*
X84707500Y-29055000D02*
X85207500Y-28155000D01*
X84207500Y-28155000D02*
X84707500Y-29055000D01*
X85207500Y-28155000D02*
X84207500Y-28155000D01*
X85457500Y-25955000D02*
X85457500Y-31355000D01*
X85457500Y-25955000D02*
X83957500Y-25955000D01*
X102957500Y-33730000D02*
X102957500Y-28330000D01*
X104457500Y-33730000D02*
X102957500Y-33730000D01*
X104207500Y-31530000D02*
X103207500Y-31530000D01*
X103707500Y-31430000D02*
X104207500Y-30530000D01*
X103207500Y-30530000D02*
X103707500Y-31430000D01*
X104207500Y-30530000D02*
X103207500Y-30530000D01*
X104457500Y-28330000D02*
X104457500Y-33730000D01*
X104457500Y-28330000D02*
X102957500Y-28330000D01*
X121957500Y-36105000D02*
X121957500Y-30705000D01*
X123457500Y-36105000D02*
X121957500Y-36105000D01*
X123207500Y-33905000D02*
X122207500Y-33905000D01*
X122707500Y-33805000D02*
X123207500Y-32905000D01*
X122207500Y-32905000D02*
X122707500Y-33805000D01*
X123207500Y-32905000D02*
X122207500Y-32905000D01*
X123457500Y-30705000D02*
X123457500Y-36105000D01*
X123457500Y-30705000D02*
X121957500Y-30705000D01*
X26984500Y-57476875D02*
X26984500Y-52076875D01*
X28484500Y-57476875D02*
X26984500Y-57476875D01*
X28234500Y-55276875D02*
X27234500Y-55276875D01*
X27734500Y-55176875D02*
X28234500Y-54276875D01*
X27234500Y-54276875D02*
X27734500Y-55176875D01*
X28234500Y-54276875D02*
X27234500Y-54276875D01*
X28484500Y-52076875D02*
X28484500Y-57476875D01*
X28484500Y-52076875D02*
X26984500Y-52076875D01*
X45984500Y-57480000D02*
X45984500Y-52080000D01*
X47484500Y-57480000D02*
X45984500Y-57480000D01*
X47234500Y-55280000D02*
X46234500Y-55280000D01*
X46734500Y-55180000D02*
X47234500Y-54280000D01*
X46234500Y-54280000D02*
X46734500Y-55180000D01*
X47234500Y-54280000D02*
X46234500Y-54280000D01*
X47484500Y-52080000D02*
X47484500Y-57480000D01*
X47484500Y-52080000D02*
X45984500Y-52080000D01*
X64957500Y-52730000D02*
X64957500Y-47330000D01*
X66457500Y-52730000D02*
X64957500Y-52730000D01*
X66207500Y-50530000D02*
X65207500Y-50530000D01*
X65707500Y-50430000D02*
X66207500Y-49530000D01*
X65207500Y-49530000D02*
X65707500Y-50430000D01*
X66207500Y-49530000D02*
X65207500Y-49530000D01*
X66457500Y-47330000D02*
X66457500Y-52730000D01*
X66457500Y-47330000D02*
X64957500Y-47330000D01*
X83957500Y-50355000D02*
X83957500Y-44955000D01*
X85457500Y-50355000D02*
X83957500Y-50355000D01*
X85207500Y-48155000D02*
X84207500Y-48155000D01*
X84707500Y-48055000D02*
X85207500Y-47155000D01*
X84207500Y-47155000D02*
X84707500Y-48055000D01*
X85207500Y-47155000D02*
X84207500Y-47155000D01*
X85457500Y-44955000D02*
X85457500Y-50355000D01*
X85457500Y-44955000D02*
X83957500Y-44955000D01*
X102957500Y-52730000D02*
X102957500Y-47330000D01*
X104457500Y-52730000D02*
X102957500Y-52730000D01*
X104207500Y-50530000D02*
X103207500Y-50530000D01*
X103707500Y-50430000D02*
X104207500Y-49530000D01*
X103207500Y-49530000D02*
X103707500Y-50430000D01*
X104207500Y-49530000D02*
X103207500Y-49530000D01*
X104457500Y-47330000D02*
X104457500Y-52730000D01*
X104457500Y-47330000D02*
X102957500Y-47330000D01*
X121957500Y-55105000D02*
X121957500Y-49705000D01*
X123457500Y-55105000D02*
X121957500Y-55105000D01*
X123207500Y-52905000D02*
X122207500Y-52905000D01*
X122707500Y-52805000D02*
X123207500Y-51905000D01*
X122207500Y-51905000D02*
X122707500Y-52805000D01*
X123207500Y-51905000D02*
X122207500Y-51905000D01*
X123457500Y-49705000D02*
X123457500Y-55105000D01*
X123457500Y-49705000D02*
X121957500Y-49705000D01*
X26984500Y-76476875D02*
X26984500Y-71076875D01*
X28484500Y-76476875D02*
X26984500Y-76476875D01*
X28234500Y-74276875D02*
X27234500Y-74276875D01*
X27734500Y-74176875D02*
X28234500Y-73276875D01*
X27234500Y-73276875D02*
X27734500Y-74176875D01*
X28234500Y-73276875D02*
X27234500Y-73276875D01*
X28484500Y-71076875D02*
X28484500Y-76476875D01*
X28484500Y-71076875D02*
X26984500Y-71076875D01*
X45984500Y-76480000D02*
X45984500Y-71080000D01*
X47484500Y-76480000D02*
X45984500Y-76480000D01*
X47234500Y-74280000D02*
X46234500Y-74280000D01*
X46734500Y-74180000D02*
X47234500Y-73280000D01*
X46234500Y-73280000D02*
X46734500Y-74180000D01*
X47234500Y-73280000D02*
X46234500Y-73280000D01*
X47484500Y-71080000D02*
X47484500Y-76480000D01*
X47484500Y-71080000D02*
X45984500Y-71080000D01*
X64957500Y-71730000D02*
X64957500Y-66330000D01*
X66457500Y-71730000D02*
X64957500Y-71730000D01*
X66207500Y-69530000D02*
X65207500Y-69530000D01*
X65707500Y-69430000D02*
X66207500Y-68530000D01*
X65207500Y-68530000D02*
X65707500Y-69430000D01*
X66207500Y-68530000D02*
X65207500Y-68530000D01*
X66457500Y-66330000D02*
X66457500Y-71730000D01*
X66457500Y-66330000D02*
X64957500Y-66330000D01*
X83957500Y-69355000D02*
X83957500Y-63955000D01*
X85457500Y-69355000D02*
X83957500Y-69355000D01*
X85207500Y-67155000D02*
X84207500Y-67155000D01*
X84707500Y-67055000D02*
X85207500Y-66155000D01*
X84207500Y-66155000D02*
X84707500Y-67055000D01*
X85207500Y-66155000D02*
X84207500Y-66155000D01*
X85457500Y-63955000D02*
X85457500Y-69355000D01*
X85457500Y-63955000D02*
X83957500Y-63955000D01*
X102957500Y-71730000D02*
X102957500Y-66330000D01*
X104457500Y-71730000D02*
X102957500Y-71730000D01*
X104207500Y-69530000D02*
X103207500Y-69530000D01*
X103707500Y-69430000D02*
X104207500Y-68530000D01*
X103207500Y-68530000D02*
X103707500Y-69430000D01*
X104207500Y-68530000D02*
X103207500Y-68530000D01*
X104457500Y-66330000D02*
X104457500Y-71730000D01*
X104457500Y-66330000D02*
X102957500Y-66330000D01*
X121957500Y-74105000D02*
X121957500Y-68705000D01*
X123457500Y-74105000D02*
X121957500Y-74105000D01*
X123207500Y-71905000D02*
X122207500Y-71905000D01*
X122707500Y-71805000D02*
X123207500Y-70905000D01*
X122207500Y-70905000D02*
X122707500Y-71805000D01*
X123207500Y-70905000D02*
X122207500Y-70905000D01*
X123457500Y-68705000D02*
X123457500Y-74105000D01*
X123457500Y-68705000D02*
X121957500Y-68705000D01*
X75407500Y-91470000D02*
X75407500Y-86070000D01*
X76907500Y-91470000D02*
X75407500Y-91470000D01*
X76657500Y-89270000D02*
X75657500Y-89270000D01*
X76157500Y-89170000D02*
X76657500Y-88270000D01*
X75657500Y-88270000D02*
X76157500Y-89170000D01*
X76657500Y-88270000D02*
X75657500Y-88270000D01*
X76907500Y-86070000D02*
X76907500Y-91470000D01*
X76907500Y-86070000D02*
X75407500Y-86070000D01*
X94414500Y-91465000D02*
X94414500Y-86065000D01*
X95914500Y-91465000D02*
X94414500Y-91465000D01*
X95664500Y-89265000D02*
X94664500Y-89265000D01*
X95164500Y-89165000D02*
X95664500Y-88265000D01*
X94664500Y-88265000D02*
X95164500Y-89165000D01*
X95664500Y-88265000D02*
X94664500Y-88265000D01*
X95914500Y-86065000D02*
X95914500Y-91465000D01*
X95914500Y-86065000D02*
X94414500Y-86065000D01*
X116732500Y-98080000D02*
X116732500Y-92680000D01*
X118232500Y-98080000D02*
X116732500Y-98080000D01*
X117982500Y-95880000D02*
X116982500Y-95880000D01*
X117482500Y-95780000D02*
X117982500Y-94880000D01*
X116982500Y-94880000D02*
X117482500Y-95780000D01*
X117982500Y-94880000D02*
X116982500Y-94880000D01*
X118232500Y-92680000D02*
X118232500Y-98080000D01*
X118232500Y-92680000D02*
X116732500Y-92680000D01*
X264464500Y-38475000D02*
X264464500Y-33075000D01*
X265964500Y-38475000D02*
X264464500Y-38475000D01*
X265714500Y-36275000D02*
X264714500Y-36275000D01*
X265214500Y-36175000D02*
X265714500Y-35275000D01*
X264714500Y-35275000D02*
X265214500Y-36175000D01*
X265714500Y-35275000D02*
X264714500Y-35275000D01*
X265964500Y-33075000D02*
X265964500Y-38475000D01*
X265964500Y-33075000D02*
X264464500Y-33075000D01*
X245464500Y-33725000D02*
X245464500Y-28325000D01*
X246964500Y-33725000D02*
X245464500Y-33725000D01*
X246714500Y-31525000D02*
X245714500Y-31525000D01*
X246214500Y-31425000D02*
X246714500Y-30525000D01*
X245714500Y-30525000D02*
X246214500Y-31425000D01*
X246714500Y-30525000D02*
X245714500Y-30525000D01*
X246964500Y-28325000D02*
X246964500Y-33725000D01*
X246964500Y-28325000D02*
X245464500Y-28325000D01*
X226464500Y-31350000D02*
X226464500Y-25950000D01*
X227964500Y-31350000D02*
X226464500Y-31350000D01*
X227714500Y-29150000D02*
X226714500Y-29150000D01*
X227214500Y-29050000D02*
X227714500Y-28150000D01*
X226714500Y-28150000D02*
X227214500Y-29050000D01*
X227714500Y-28150000D02*
X226714500Y-28150000D01*
X227964500Y-25950000D02*
X227964500Y-31350000D01*
X227964500Y-25950000D02*
X226464500Y-25950000D01*
X188457500Y-36105000D02*
X188457500Y-30705000D01*
X189957500Y-36105000D02*
X188457500Y-36105000D01*
X189707500Y-33905000D02*
X188707500Y-33905000D01*
X189207500Y-33805000D02*
X189707500Y-32905000D01*
X188707500Y-32905000D02*
X189207500Y-33805000D01*
X189707500Y-32905000D02*
X188707500Y-32905000D01*
X189957500Y-30705000D02*
X189957500Y-36105000D01*
X189957500Y-30705000D02*
X188457500Y-30705000D01*
X283464500Y-57325000D02*
X283464500Y-51925000D01*
X284964500Y-57325000D02*
X283464500Y-57325000D01*
X284714500Y-55125000D02*
X283714500Y-55125000D01*
X284214500Y-55025000D02*
X284714500Y-54125000D01*
X283714500Y-54125000D02*
X284214500Y-55025000D01*
X284714500Y-54125000D02*
X283714500Y-54125000D01*
X284964500Y-51925000D02*
X284964500Y-57325000D01*
X284964500Y-51925000D02*
X283464500Y-51925000D01*
X264464500Y-57475000D02*
X264464500Y-52075000D01*
X265964500Y-57475000D02*
X264464500Y-57475000D01*
X265714500Y-55275000D02*
X264714500Y-55275000D01*
X265214500Y-55175000D02*
X265714500Y-54275000D01*
X264714500Y-54275000D02*
X265214500Y-55175000D01*
X265714500Y-54275000D02*
X264714500Y-54275000D01*
X265964500Y-52075000D02*
X265964500Y-57475000D01*
X265964500Y-52075000D02*
X264464500Y-52075000D01*
X245464500Y-52725000D02*
X245464500Y-47325000D01*
X246964500Y-52725000D02*
X245464500Y-52725000D01*
X246714500Y-50525000D02*
X245714500Y-50525000D01*
X246214500Y-50425000D02*
X246714500Y-49525000D01*
X245714500Y-49525000D02*
X246214500Y-50425000D01*
X246714500Y-49525000D02*
X245714500Y-49525000D01*
X246964500Y-47325000D02*
X246964500Y-52725000D01*
X246964500Y-47325000D02*
X245464500Y-47325000D01*
X226464500Y-50350000D02*
X226464500Y-44950000D01*
X227964500Y-50350000D02*
X226464500Y-50350000D01*
X227714500Y-48150000D02*
X226714500Y-48150000D01*
X227214500Y-48050000D02*
X227714500Y-47150000D01*
X226714500Y-47150000D02*
X227214500Y-48050000D01*
X227714500Y-47150000D02*
X226714500Y-47150000D01*
X227964500Y-44950000D02*
X227964500Y-50350000D01*
X227964500Y-44950000D02*
X226464500Y-44950000D01*
X207464500Y-52725000D02*
X207464500Y-47325000D01*
X208964500Y-52725000D02*
X207464500Y-52725000D01*
X208714500Y-50525000D02*
X207714500Y-50525000D01*
X208214500Y-50425000D02*
X208714500Y-49525000D01*
X207714500Y-49525000D02*
X208214500Y-50425000D01*
X208714500Y-49525000D02*
X207714500Y-49525000D01*
X208964500Y-47325000D02*
X208964500Y-52725000D01*
X208964500Y-47325000D02*
X207464500Y-47325000D01*
X188457500Y-55105000D02*
X188457500Y-49705000D01*
X189957500Y-55105000D02*
X188457500Y-55105000D01*
X189707500Y-52905000D02*
X188707500Y-52905000D01*
X189207500Y-52805000D02*
X189707500Y-51905000D01*
X188707500Y-51905000D02*
X189207500Y-52805000D01*
X189707500Y-51905000D02*
X188707500Y-51905000D01*
X189957500Y-49705000D02*
X189957500Y-55105000D01*
X189957500Y-49705000D02*
X188457500Y-49705000D01*
X283464500Y-76475000D02*
X283464500Y-71075000D01*
X284964500Y-76475000D02*
X283464500Y-76475000D01*
X284714500Y-74275000D02*
X283714500Y-74275000D01*
X284214500Y-74175000D02*
X284714500Y-73275000D01*
X283714500Y-73275000D02*
X284214500Y-74175000D01*
X284714500Y-73275000D02*
X283714500Y-73275000D01*
X284964500Y-71075000D02*
X284964500Y-76475000D01*
X284964500Y-71075000D02*
X283464500Y-71075000D01*
X264464500Y-76475000D02*
X264464500Y-71075000D01*
X265964500Y-76475000D02*
X264464500Y-76475000D01*
X265714500Y-74275000D02*
X264714500Y-74275000D01*
X265214500Y-74175000D02*
X265714500Y-73275000D01*
X264714500Y-73275000D02*
X265214500Y-74175000D01*
X265714500Y-73275000D02*
X264714500Y-73275000D01*
X265964500Y-71075000D02*
X265964500Y-76475000D01*
X265964500Y-71075000D02*
X264464500Y-71075000D01*
X245464500Y-71725000D02*
X245464500Y-66325000D01*
X246964500Y-71725000D02*
X245464500Y-71725000D01*
X246714500Y-69525000D02*
X245714500Y-69525000D01*
X246214500Y-69425000D02*
X246714500Y-68525000D01*
X245714500Y-68525000D02*
X246214500Y-69425000D01*
X246714500Y-68525000D02*
X245714500Y-68525000D01*
X246964500Y-66325000D02*
X246964500Y-71725000D01*
X246964500Y-66325000D02*
X245464500Y-66325000D01*
X226464500Y-69350000D02*
X226464500Y-63950000D01*
X227964500Y-69350000D02*
X226464500Y-69350000D01*
X227714500Y-67150000D02*
X226714500Y-67150000D01*
X227214500Y-67050000D02*
X227714500Y-66150000D01*
X226714500Y-66150000D02*
X227214500Y-67050000D01*
X227714500Y-66150000D02*
X226714500Y-66150000D01*
X227964500Y-63950000D02*
X227964500Y-69350000D01*
X227964500Y-63950000D02*
X226464500Y-63950000D01*
X207464500Y-71725000D02*
X207464500Y-66325000D01*
X208964500Y-71725000D02*
X207464500Y-71725000D01*
X208714500Y-69525000D02*
X207714500Y-69525000D01*
X208214500Y-69425000D02*
X208714500Y-68525000D01*
X207714500Y-68525000D02*
X208214500Y-69425000D01*
X208714500Y-68525000D02*
X207714500Y-68525000D01*
X208964500Y-66325000D02*
X208964500Y-71725000D01*
X208964500Y-66325000D02*
X207464500Y-66325000D01*
X188457500Y-74105000D02*
X188457500Y-68705000D01*
X189957500Y-74105000D02*
X188457500Y-74105000D01*
X189707500Y-71905000D02*
X188707500Y-71905000D01*
X189207500Y-71805000D02*
X189707500Y-70905000D01*
X188707500Y-70905000D02*
X189207500Y-71805000D01*
X189707500Y-70905000D02*
X188707500Y-70905000D01*
X189957500Y-68705000D02*
X189957500Y-74105000D01*
X189957500Y-68705000D02*
X188457500Y-68705000D01*
X216964500Y-91335000D02*
X216964500Y-85935000D01*
X218464500Y-91335000D02*
X216964500Y-91335000D01*
X218214500Y-89135000D02*
X217214500Y-89135000D01*
X217714500Y-89035000D02*
X218214500Y-88135000D01*
X217214500Y-88135000D02*
X217714500Y-89035000D01*
X218214500Y-88135000D02*
X217214500Y-88135000D01*
X218464500Y-85935000D02*
X218464500Y-91335000D01*
X218464500Y-85935000D02*
X216964500Y-85935000D01*
X198914500Y-91350000D02*
X198914500Y-85950000D01*
X200414500Y-91350000D02*
X198914500Y-91350000D01*
X200164500Y-89150000D02*
X199164500Y-89150000D01*
X199664500Y-89050000D02*
X200164500Y-88150000D01*
X199164500Y-88150000D02*
X199664500Y-89050000D01*
X200164500Y-88150000D02*
X199164500Y-88150000D01*
X200414500Y-85950000D02*
X200414500Y-91350000D01*
X200414500Y-85950000D02*
X198914500Y-85950000D01*
X177632500Y-98730000D02*
X177632500Y-93330000D01*
X179132500Y-98730000D02*
X177632500Y-98730000D01*
X178882500Y-96530000D02*
X177882500Y-96530000D01*
X178382500Y-96430000D02*
X178882500Y-95530000D01*
X177882500Y-95530000D02*
X178382500Y-96430000D01*
X178882500Y-95530000D02*
X177882500Y-95530000D01*
X179132500Y-93330000D02*
X179132500Y-98730000D01*
X179132500Y-93330000D02*
X177632500Y-93330000D01*
X283464500Y-38475000D02*
X283464500Y-33075000D01*
X284964500Y-38475000D02*
X283464500Y-38475000D01*
X284714500Y-36275000D02*
X283714500Y-36275000D01*
X284214500Y-36175000D02*
X284714500Y-35275000D01*
X283714500Y-35275000D02*
X284214500Y-36175000D01*
X284714500Y-35275000D02*
X283714500Y-35275000D01*
X284964500Y-33075000D02*
X284964500Y-38475000D01*
X284964500Y-33075000D02*
X283464500Y-33075000D01*
X207464500Y-33725000D02*
X207464500Y-28325000D01*
X208964500Y-33725000D02*
X207464500Y-33725000D01*
X208714500Y-31525000D02*
X207714500Y-31525000D01*
X208214500Y-31425000D02*
X208714500Y-30525000D01*
X207714500Y-30525000D02*
X208214500Y-31425000D01*
X208714500Y-30525000D02*
X207714500Y-30525000D01*
X208964500Y-28325000D02*
X208964500Y-33725000D01*
X208964500Y-28325000D02*
X207464500Y-28325000D01*
M02*
